G04 #@! TF.GenerationSoftware,KiCad,Pcbnew,9.0.5*
G04 #@! TF.CreationDate,2026-03-01T18:05:01+05:30*
G04 #@! TF.ProjectId,jitx-design,6a697478-2d64-4657-9369-676e2e6b6963,rev?*
G04 #@! TF.SameCoordinates,Original*
G04 #@! TF.FileFunction,Copper,L4,Bot*
G04 #@! TF.FilePolarity,Positive*
%FSLAX46Y46*%
G04 Gerber Fmt 4.6, Leading zero omitted, Abs format (unit mm)*
G04 Created by KiCad (PCBNEW 9.0.5) date 2026-03-01 18:05:01*
%MOMM*%
%LPD*%
G01*
G04 APERTURE LIST*
G04 #@! TA.AperFunction,Conductor*
%ADD10C,0.000000*%
G04 #@! TD*
G04 #@! TA.AperFunction,ComponentPad*
%ADD11R,2.000000X2.000000*%
G04 #@! TD*
G04 #@! TA.AperFunction,ComponentPad*
%ADD12C,2.000000*%
G04 #@! TD*
G04 #@! TA.AperFunction,ComponentPad*
%ADD13C,4.700000*%
G04 #@! TD*
G04 #@! TA.AperFunction,ComponentPad*
%ADD14C,1.900000*%
G04 #@! TD*
G04 #@! TA.AperFunction,ComponentPad*
%ADD15R,1.800000X1.800000*%
G04 #@! TD*
G04 #@! TA.AperFunction,ComponentPad*
%ADD16C,1.800000*%
G04 #@! TD*
G04 #@! TA.AperFunction,ComponentPad*
%ADD17C,1.600000*%
G04 #@! TD*
G04 #@! TA.AperFunction,ComponentPad*
%ADD18O,2.000000X1.200000*%
G04 #@! TD*
G04 #@! TA.AperFunction,ViaPad*
%ADD19C,0.600000*%
G04 #@! TD*
G04 #@! TA.AperFunction,Conductor*
%ADD20C,0.130000*%
G04 #@! TD*
G04 #@! TA.AperFunction,Conductor*
%ADD21C,0.500000*%
G04 #@! TD*
G04 APERTURE END LIST*
D10*
G04 #@! TA.AperFunction,Conductor*
G36*
X163821190Y-76490904D02*
G01*
X163918517Y-76555936D01*
X163983548Y-76653263D01*
X164006385Y-76768068D01*
X163983548Y-76882873D01*
X163918517Y-76980200D01*
X163821190Y-77045232D01*
X131440291Y-91036370D01*
X131057608Y-91112491D01*
X115301860Y-88152645D01*
X115269342Y-88146536D01*
X115236463Y-88142832D01*
X115169496Y-88135286D01*
X115165698Y-88134858D01*
X115161896Y-88134463D01*
X114635033Y-88079627D01*
X114328886Y-88018731D01*
X114069347Y-87845313D01*
X113895929Y-87585774D01*
X113835033Y-87279627D01*
X113895929Y-86973480D01*
X114069347Y-86713942D01*
X114328886Y-86540524D01*
X114635033Y-86479627D01*
X114941179Y-86540524D01*
X130934679Y-90597144D01*
X130961326Y-90603902D01*
X131015778Y-90611496D01*
X131070735Y-90613074D01*
X131125534Y-90608618D01*
X131179514Y-90598181D01*
X131232024Y-90581889D01*
X131257228Y-90570914D01*
X163591580Y-76490904D01*
X163706385Y-76468068D01*
X163821190Y-76490904D01*
G37*
G04 #@! TD.AperFunction*
G04 #@! TA.AperFunction,Conductor*
G36*
X130508295Y-130808935D02*
G01*
X130538803Y-130862696D01*
X130575700Y-130912289D01*
X130618424Y-130956961D01*
X130666324Y-130996032D01*
X130692498Y-131012469D01*
X133717179Y-132911940D01*
X133814506Y-132976972D01*
X133879538Y-133074299D01*
X133902374Y-133189104D01*
X133879538Y-133303909D01*
X133814506Y-133401236D01*
X133717179Y-133466268D01*
X133602374Y-133489104D01*
X133487569Y-133466268D01*
X133390242Y-133401236D01*
X130512930Y-131034517D01*
X130376363Y-130830130D01*
X130496468Y-130780381D01*
X130508295Y-130808935D01*
G37*
G04 #@! TD.AperFunction*
G04 #@! TA.AperFunction,Conductor*
G36*
X114941179Y-78540524D02*
G01*
X115200718Y-78713942D01*
X115374136Y-78973480D01*
X115435033Y-79279627D01*
X115374136Y-79585774D01*
X113741732Y-82830167D01*
X113724264Y-82864886D01*
X113694821Y-82936827D01*
X113671050Y-83010836D01*
X113653096Y-83086467D01*
X113641066Y-83163263D01*
X113635033Y-83240761D01*
X113635033Y-83279627D01*
X113635033Y-85279627D01*
X113135033Y-85279627D01*
X113135033Y-83279627D01*
X113835033Y-79279627D01*
X113895929Y-78973480D01*
X114069347Y-78713942D01*
X114328886Y-78540524D01*
X114635033Y-78479627D01*
X114941179Y-78540524D01*
G37*
G04 #@! TD.AperFunction*
G04 #@! TA.AperFunction,Conductor*
G36*
X114941179Y-86540524D02*
G01*
X115200718Y-86713942D01*
X116577687Y-88356304D01*
X116619704Y-88408992D01*
X116228789Y-88720737D01*
X116186771Y-88668049D01*
X116171027Y-88648306D01*
X116137375Y-88610649D01*
X116119519Y-88592793D01*
X116071867Y-88545141D01*
X116054011Y-88527285D01*
X116016354Y-88493633D01*
X115996611Y-88477889D01*
X115943923Y-88435871D01*
X115924181Y-88420127D01*
X115882992Y-88390903D01*
X115861611Y-88377468D01*
X115804550Y-88341614D01*
X115783169Y-88328179D01*
X115738968Y-88303750D01*
X115716217Y-88292794D01*
X115655500Y-88263554D01*
X115632749Y-88252598D01*
X115586090Y-88233271D01*
X115562256Y-88224931D01*
X115498647Y-88202673D01*
X115474812Y-88194333D01*
X115426283Y-88180352D01*
X115401665Y-88174733D01*
X115335964Y-88159737D01*
X115311345Y-88154118D01*
X115261556Y-88145659D01*
X115236463Y-88142832D01*
X115169496Y-88135286D01*
X115165698Y-88134858D01*
X115161896Y-88134463D01*
X114635033Y-88079627D01*
X114328886Y-88018731D01*
X114069347Y-87845313D01*
X113895929Y-87585774D01*
X113835033Y-87279627D01*
X113895929Y-86973480D01*
X114069347Y-86713942D01*
X114328886Y-86540524D01*
X114635033Y-86479627D01*
X114941179Y-86540524D01*
G37*
G04 #@! TD.AperFunction*
G04 #@! TA.AperFunction,Conductor*
G36*
X130411030Y-122472276D02*
G01*
X130508357Y-122537308D01*
X130573388Y-122634635D01*
X130596225Y-122749440D01*
X130573388Y-122864245D01*
X130508357Y-122961572D01*
X130411030Y-123026604D01*
X124359235Y-126560898D01*
X124244430Y-126583734D01*
X124129625Y-126560898D01*
X124032298Y-126495866D01*
X123967266Y-126398539D01*
X123944430Y-126283734D01*
X123967266Y-126168929D01*
X124032298Y-126071602D01*
X124129625Y-126006570D01*
X130181420Y-122472276D01*
X130296225Y-122449440D01*
X130411030Y-122472276D01*
G37*
G04 #@! TD.AperFunction*
G04 #@! TA.AperFunction,Conductor*
G36*
X118890625Y-128037069D02*
G01*
X119215048Y-128253842D01*
X119431821Y-128578265D01*
X120154657Y-130233070D01*
X120207941Y-130500949D01*
X119707941Y-130500949D01*
X119707941Y-130482552D01*
X119701230Y-130446377D01*
X119688032Y-130412034D01*
X119668790Y-130380674D01*
X119644151Y-130353350D01*
X119614941Y-130330979D01*
X119582140Y-130314313D01*
X119564495Y-130309111D01*
X118125258Y-129884828D01*
X117800835Y-129668055D01*
X117584062Y-129343632D01*
X117507941Y-128960949D01*
X117584062Y-128578265D01*
X117800835Y-128253842D01*
X118125258Y-128037069D01*
X118507941Y-127960949D01*
X118890625Y-128037069D01*
G37*
G04 #@! TD.AperFunction*
G04 #@! TA.AperFunction,Conductor*
G36*
X131080722Y-128979462D02*
G01*
X131178049Y-129044494D01*
X131243081Y-129141821D01*
X131265917Y-129256626D01*
X131243081Y-129371431D01*
X131178049Y-129468758D01*
X130559445Y-130287661D01*
X130546666Y-130304577D01*
X130524065Y-130340452D01*
X130504581Y-130378111D01*
X130496468Y-130397698D01*
X130376363Y-130347949D01*
X130688753Y-129141821D01*
X130753785Y-129044494D01*
X130851112Y-128979462D01*
X130965917Y-128956626D01*
X131080722Y-128979462D01*
G37*
G04 #@! TD.AperFunction*
G04 #@! TA.AperFunction,Conductor*
G36*
X114877874Y-124385044D02*
G01*
X114922182Y-124471495D01*
X114973331Y-124554083D01*
X115030989Y-124632267D01*
X115094777Y-124705535D01*
X115164277Y-124773408D01*
X115239036Y-124835441D01*
X115318564Y-124891230D01*
X115360453Y-124915819D01*
X116350625Y-125497069D01*
X116675048Y-125713842D01*
X116891821Y-126038265D01*
X116967941Y-126420949D01*
X116891821Y-126803632D01*
X116675048Y-127128055D01*
X116350625Y-127344828D01*
X115967941Y-127420949D01*
X115585258Y-127344828D01*
X115260835Y-127128055D01*
X115044062Y-126803632D01*
X114397346Y-124531510D01*
X114859286Y-124340169D01*
X114877874Y-124385044D01*
G37*
G04 #@! TD.AperFunction*
G04 #@! TA.AperFunction,Conductor*
G36*
X118890625Y-125497069D02*
G01*
X119215048Y-125713842D01*
X119431821Y-126038265D01*
X119507941Y-126420949D01*
X119431821Y-126803632D01*
X119215048Y-127128055D01*
X118890625Y-127344828D01*
X118507941Y-127420949D01*
X115967941Y-127420949D01*
X115585258Y-127344828D01*
X115260835Y-127128055D01*
X115044062Y-126803632D01*
X114967941Y-126420949D01*
X115044062Y-126038265D01*
X115260835Y-125713842D01*
X115585258Y-125497069D01*
X115967941Y-125420949D01*
X118507941Y-125420949D01*
X118890625Y-125497069D01*
G37*
G04 #@! TD.AperFunction*
D11*
X118507941Y-131500949D03*
D12*
X115967941Y-131500949D03*
X118507941Y-128960949D03*
X115967941Y-128960949D03*
X118507941Y-126420949D03*
X115967941Y-126420949D03*
X118507941Y-123880949D03*
X115967941Y-123880949D03*
X118507941Y-121340949D03*
X115967941Y-121340949D03*
X118507941Y-118800949D03*
X115967941Y-118800949D03*
X118507941Y-116260949D03*
X115967941Y-116260949D03*
X118507941Y-113720949D03*
X115967941Y-113720949D03*
X118507941Y-111180949D03*
X115967941Y-111180949D03*
X118507941Y-108640949D03*
X115967941Y-108640949D03*
X118507941Y-106100949D03*
X115967941Y-106100949D03*
X118507941Y-103560949D03*
X115967941Y-103560949D03*
X118507941Y-101020949D03*
X115967941Y-101020949D03*
X118507941Y-98480949D03*
X115967941Y-98480949D03*
X118507941Y-95940949D03*
X115967941Y-95940949D03*
X118507941Y-93400949D03*
X115967941Y-93400949D03*
D13*
X116500000Y-136500000D03*
X163500000Y-136500000D03*
D14*
X132048688Y-85114797D03*
X129508688Y-85114797D03*
X126968688Y-85114797D03*
D15*
X132048688Y-136349927D03*
D16*
X129508688Y-136349927D03*
X126968688Y-136349927D03*
D13*
X121000000Y-80000000D03*
D17*
X114635033Y-79279627D03*
X114635033Y-83279627D03*
X114635033Y-85279627D03*
X114635033Y-87279627D03*
D18*
X114635033Y-89629627D03*
X114635033Y-76929627D03*
D19*
X130858407Y-115213471D03*
X161923502Y-112201123D03*
X125258407Y-100487902D03*
X125358407Y-131239039D03*
X127958407Y-117163471D03*
X130296225Y-122749440D03*
X130965917Y-129256626D03*
X131057608Y-90112491D03*
X133602374Y-133189104D03*
X124244430Y-126283734D03*
X161923502Y-114741123D03*
X133558407Y-115863471D03*
X130858407Y-101787902D03*
X161923502Y-102041123D03*
X125258407Y-116513471D03*
X161923502Y-117281123D03*
X130858407Y-116513471D03*
X127958407Y-115863471D03*
X161923502Y-119821123D03*
X133558407Y-117163471D03*
X125258407Y-115213471D03*
X126608407Y-96925118D03*
X126608407Y-126376255D03*
X126608407Y-111650687D03*
X137565062Y-84862171D03*
X129153835Y-112992005D03*
X129485627Y-127349171D03*
X130237885Y-91475435D03*
X129429593Y-98145500D03*
X128594240Y-91416140D03*
X129407610Y-105556333D03*
X140013090Y-83338656D03*
X126608407Y-104334535D03*
X161923502Y-124901123D03*
X133658407Y-129939039D03*
X127958407Y-102437902D03*
X161862410Y-127403611D03*
X130958407Y-130589039D03*
X163706385Y-76768068D03*
X161923502Y-94421123D03*
X130858407Y-100487902D03*
X125258407Y-101787902D03*
X128058407Y-131889039D03*
X128058407Y-130589039D03*
X127958407Y-101137902D03*
X133558407Y-102437902D03*
X161923502Y-107121123D03*
X161923502Y-99501123D03*
X133558407Y-101137902D03*
X125358407Y-129939039D03*
D20*
X130858407Y-115213471D02*
X131225659Y-115224995D01*
X131225659Y-115224995D02*
X161557868Y-112164818D01*
X161557868Y-112164818D02*
X161923502Y-112201123D01*
X120569767Y-96099097D02*
X125258407Y-100487902D01*
X118395801Y-94660968D02*
X118620082Y-94680929D01*
X115967941Y-93400949D02*
X117877932Y-94497905D01*
X119356054Y-95002370D02*
X120569767Y-96099097D01*
X118620082Y-94680929D02*
G75*
G02*
X119356030Y-95002397I-112182J-1259971D01*
G01*
X117877932Y-94497905D02*
G75*
G03*
X118395802Y-94660958I629968J1096905D01*
G01*
X115967941Y-118800949D02*
X117064897Y-120710939D01*
X117227961Y-121228809D02*
X117247922Y-121453089D01*
X122303358Y-127578426D02*
X123424079Y-129258670D01*
X118395801Y-122600968D02*
X118620082Y-122620929D01*
X119568764Y-123191833D02*
X120107501Y-124021163D01*
X123424079Y-129258670D02*
X125358407Y-131239039D01*
X120107501Y-124021163D02*
X122258568Y-127508617D01*
X117064897Y-120710939D02*
G75*
G02*
X117227935Y-121228811I-1096997J-629961D01*
G01*
X118620082Y-122620929D02*
G75*
G02*
X119568720Y-123191862I-112182J-1259971D01*
G01*
X117247922Y-121453089D02*
G75*
G03*
X118395800Y-122600977I1259978J112089D01*
G01*
X122258568Y-127508617D02*
G75*
G03*
X122303358Y-127578426I1988432J1226517D01*
G01*
X115967941Y-111180949D02*
X117877932Y-112277905D01*
X119601492Y-113085045D02*
X120332255Y-114341725D01*
X120332255Y-114341725D02*
X124803588Y-117220018D01*
X118395801Y-112440968D02*
X118620082Y-112460929D01*
X124936846Y-117289788D02*
X125258407Y-117353751D01*
X125258407Y-117353751D02*
X127958407Y-117163471D01*
X118620082Y-112460929D02*
G75*
G02*
X119601443Y-113085073I-112182J-1259971D01*
G01*
X117877932Y-112277905D02*
G75*
G03*
X118395802Y-112440958I629968J1096905D01*
G01*
X124803588Y-117220018D02*
G75*
G03*
X124936846Y-117289789I454812J706518D01*
G01*
D21*
X131057608Y-90112491D02*
X114635033Y-85279627D01*
D20*
X130436415Y-130372823D02*
G75*
G03*
X130436443Y-130805244I521985J-216177D01*
G01*
X133558407Y-115863471D02*
X133892542Y-115919760D01*
X161589367Y-114684834D02*
X161923502Y-114741123D01*
X133892542Y-115919760D02*
X161589367Y-114684834D01*
X131231790Y-101799619D02*
X161558454Y-101961803D01*
X161558454Y-101961803D02*
X161923502Y-102041123D01*
X130858407Y-101787902D02*
X131231790Y-101799619D01*
X115967941Y-108640949D02*
X117877932Y-109737905D01*
X120314352Y-111234228D02*
X125258407Y-116513471D01*
X119419665Y-110304031D02*
X120314352Y-111234228D01*
X118395801Y-109900968D02*
X118620082Y-109920929D01*
X117877932Y-109737905D02*
G75*
G03*
X118395802Y-109900958I629968J1096905D01*
G01*
X118620082Y-109920929D02*
G75*
G02*
X119419658Y-110304038I-112182J-1260071D01*
G01*
D21*
X116085033Y-89595932D02*
X116085033Y-89663323D01*
X113827032Y-124078455D02*
X114524073Y-131634151D01*
X115819709Y-90328746D02*
X114359809Y-91973920D01*
X114514447Y-88523797D02*
X115112139Y-88581726D01*
X115834947Y-88948619D02*
X115876964Y-89001307D01*
X116014981Y-89251030D02*
X116037239Y-89314639D01*
X115966430Y-89143691D02*
X115995670Y-89204408D01*
X115967941Y-132950949D02*
X119507941Y-132950949D01*
X115119112Y-88582457D02*
X115186079Y-88590002D01*
X119957941Y-132500949D02*
X119957941Y-130500949D01*
X115565136Y-88722640D02*
X115622197Y-88758494D01*
X115876964Y-90257948D02*
X115834947Y-90310636D01*
X113488269Y-103601224D02*
X113818225Y-123915865D01*
X115942020Y-90159730D02*
X115906166Y-90216792D01*
X115235829Y-88598455D02*
X115301530Y-88613451D01*
X115995670Y-90054847D02*
X115966430Y-90115564D01*
X115753669Y-88863339D02*
X115801321Y-88910991D01*
X115663353Y-88787696D02*
X115716041Y-88829713D01*
X115460252Y-88668990D02*
X115520969Y-88698230D01*
X116082203Y-89713707D02*
X116074658Y-89780673D01*
X115906166Y-89042463D02*
X115942020Y-89099524D01*
X116066205Y-89830424D02*
X116051209Y-89896125D01*
X113819076Y-93331116D02*
X113489250Y-103480397D01*
X115350021Y-88627421D02*
X115413630Y-88649679D01*
X116037239Y-89944616D02*
X116014981Y-90008225D01*
X113385033Y-85279627D02*
X113385033Y-87279627D01*
X116074658Y-89478581D02*
X116082203Y-89545548D01*
X116051209Y-89363130D02*
X116066205Y-89428831D01*
X115801321Y-88910991D02*
G75*
G02*
X115834952Y-88948615I-318021J-318109D01*
G01*
X115906166Y-90216792D02*
G75*
G02*
X115876963Y-90257947I-380966J239392D01*
G01*
X113818225Y-123915865D02*
G75*
G03*
X113827035Y-124078455I2150075J34965D01*
G01*
X114524073Y-131634151D02*
G75*
G03*
X115967941Y-132950863I1443827J133251D01*
G01*
X116082203Y-89545548D02*
G75*
G02*
X116085030Y-89595932I-447003J-50352D01*
G01*
X116014981Y-90008225D02*
G75*
G02*
X115995669Y-90054846I-424481J148525D01*
G01*
X116051209Y-89896125D02*
G75*
G02*
X116037235Y-89944615I-438909J100225D01*
G01*
X115301530Y-88613451D02*
G75*
G02*
X115350021Y-88627420I-100130J-438749D01*
G01*
X115966430Y-90115564D02*
G75*
G02*
X115942022Y-90159731I-405330J195164D01*
G01*
X115942020Y-89099524D02*
G75*
G02*
X115966428Y-89143692I-380820J-239276D01*
G01*
X116074658Y-89780673D02*
G75*
G02*
X116066201Y-89830423I-447458J50473D01*
G01*
X116085033Y-89663323D02*
G75*
G02*
X116082201Y-89713707I-449933J23D01*
G01*
X115112139Y-88581726D02*
G75*
G02*
X115119112Y-88582456I-43639J-450274D01*
G01*
X115622197Y-88758494D02*
G75*
G02*
X115663353Y-88787697I-239197J-380706D01*
G01*
X114359809Y-91973920D02*
G75*
G03*
X113819096Y-93331117I1608091J-1426980D01*
G01*
X113385033Y-87279627D02*
G75*
G03*
X114514452Y-88523741I1249967J27D01*
G01*
X115186079Y-88590002D02*
G75*
G02*
X115235830Y-88598450I-50379J-447398D01*
G01*
X115876964Y-89001307D02*
G75*
G02*
X115906164Y-89042464I-351464J-280293D01*
G01*
X116037239Y-89314639D02*
G75*
G02*
X116051210Y-89363130I-424839J-148661D01*
G01*
X115995670Y-89204408D02*
G75*
G02*
X116014977Y-89251031I-405170J-195092D01*
G01*
X115834947Y-90310636D02*
G75*
G02*
X115819709Y-90328746I-352247J280936D01*
G01*
X119507941Y-132950949D02*
G75*
G03*
X119957949Y-132500949I-41J450049D01*
G01*
X116066205Y-89428831D02*
G75*
G02*
X116074658Y-89478581I-438905J-100169D01*
G01*
X115520969Y-88698230D02*
G75*
G02*
X115565135Y-88722641I-195169J-405270D01*
G01*
X115716041Y-88829713D02*
G75*
G02*
X115753669Y-88863339I-280441J-351687D01*
G01*
X115413630Y-88649679D02*
G75*
G02*
X115460252Y-88668990I-148530J-424521D01*
G01*
X113489250Y-103480397D02*
G75*
G03*
X113488270Y-103601224I2476950J-80503D01*
G01*
D20*
X130858407Y-116513471D02*
X131232884Y-116525222D01*
X131232884Y-116525222D02*
X161558558Y-117196349D01*
X161558558Y-117196349D02*
X161923502Y-117281123D01*
X127958407Y-115863471D02*
X120748351Y-106830457D01*
X118395801Y-104820968D02*
X118620082Y-104840929D01*
X117227961Y-103448809D02*
X117247922Y-103673089D01*
X119484156Y-105296442D02*
X120748351Y-106830457D01*
X115967941Y-106100949D02*
X114870985Y-104190958D01*
X118620082Y-104840929D02*
G75*
G02*
X119484148Y-105296448I-112182J-1260071D01*
G01*
X117247922Y-103673089D02*
G75*
G03*
X118395800Y-104820977I1259978J112089D01*
G01*
X114870985Y-104190958D02*
G75*
G02*
X117227958Y-103448809I1096955J630008D01*
G01*
X133558407Y-117163471D02*
X133892542Y-117264057D01*
X133892542Y-117264057D02*
X161589367Y-119720537D01*
X161589367Y-119720537D02*
X161923502Y-119821123D01*
X125258407Y-115213471D02*
X120470447Y-109043834D01*
X117064897Y-105470939D02*
X115967941Y-103560949D01*
X120470447Y-109043834D02*
X119487629Y-107840676D01*
X117247922Y-106213089D02*
X117227961Y-105988809D01*
X118620082Y-107380929D02*
X118395801Y-107360968D01*
X117227961Y-105988809D02*
G75*
G03*
X117064919Y-105470926I-1260061J-112091D01*
G01*
X119487629Y-107840676D02*
G75*
G03*
X118620086Y-107380883I-979729J-800224D01*
G01*
X118395801Y-107360968D02*
G75*
G02*
X117247931Y-106213088I112099J1259968D01*
G01*
X115967941Y-131500949D02*
X118507941Y-131500949D01*
X161923502Y-124901123D02*
X133658407Y-129939039D01*
X125258407Y-102677725D02*
X127958407Y-102437902D01*
X118804573Y-102331219D02*
X120956297Y-102850250D01*
X115967941Y-101020949D02*
X117877932Y-102117905D01*
X118395801Y-102280968D02*
X118620082Y-102300929D01*
X120956297Y-102850250D02*
X125258407Y-102677725D01*
X118620082Y-102300929D02*
G75*
G02*
X118804572Y-102331224I-112182J-1260071D01*
G01*
X117877932Y-102117905D02*
G75*
G03*
X118395802Y-102280958I629968J1096905D01*
G01*
X161862410Y-127403611D02*
X133720212Y-130500649D01*
X133676127Y-130503762D02*
X130958407Y-130589039D01*
X133720212Y-130500649D02*
G75*
G02*
X133676127Y-130503765I-61912J562549D01*
G01*
D21*
X114883387Y-92438534D02*
X116343287Y-90793360D01*
X116697957Y-89083443D02*
X116675700Y-89019834D01*
X114188881Y-103503134D02*
X114518706Y-93353852D01*
X116733659Y-90051889D02*
X116748654Y-89986188D01*
X116675700Y-90239420D02*
X116697957Y-90175811D01*
X116777802Y-89467173D02*
X116770256Y-89400206D01*
X116785033Y-89663323D02*
X116785033Y-89595932D01*
X116382229Y-90747078D02*
X116424246Y-90694390D01*
X116770256Y-89859048D02*
X116777802Y-89792082D01*
X116534727Y-88727102D02*
X116498873Y-88670040D01*
X116748654Y-89273066D02*
X116733659Y-89207365D01*
X116626348Y-88900689D02*
X116597108Y-88839972D01*
X114518133Y-123904497D02*
X114188176Y-103589856D01*
X116597108Y-90419282D02*
X116626348Y-90358565D01*
X116498873Y-90589214D02*
X116534727Y-90532153D01*
X116785033Y-89595932D02*
G75*
G03*
X116777798Y-89467173I-1150533J-68D01*
G01*
X116733659Y-89207365D02*
G75*
G03*
X116697963Y-89083441I-1121459J-255935D01*
G01*
X114628316Y-124435840D02*
G75*
G02*
X114518119Y-123904497I1339684J554940D01*
G01*
X116534727Y-90532153D02*
G75*
G03*
X116597106Y-90419281I-973627J611753D01*
G01*
X116597108Y-88839972D02*
G75*
G03*
X116534730Y-88727100I-1036108J-498928D01*
G01*
X116697957Y-90175811D02*
G75*
G03*
X116733659Y-90051889I-1085757J379911D01*
G01*
X116424246Y-90694390D02*
G75*
G03*
X116498874Y-90589215I-899046J716990D01*
G01*
X116748654Y-89986188D02*
G75*
G03*
X116770259Y-89859048I-1120954J255888D01*
G01*
X114518706Y-93353852D02*
G75*
G02*
X114883372Y-92438520I1449194J-47048D01*
G01*
X116626348Y-90358565D02*
G75*
G03*
X116675700Y-90239420I-1036348J499065D01*
G01*
X116498873Y-88670040D02*
G75*
G03*
X116424242Y-88564867I-973673J-611860D01*
G01*
X116777802Y-89792082D02*
G75*
G03*
X116785032Y-89663323I-1143302J128782D01*
G01*
X114188176Y-103589856D02*
G75*
G02*
X114188883Y-103503134I1778924J28856D01*
G01*
X116675700Y-89019834D02*
G75*
G03*
X116626353Y-88900686I-1085700J-379866D01*
G01*
X116343287Y-90793360D02*
G75*
G03*
X116382228Y-90747077I-860887J763860D01*
G01*
X116770256Y-89400206D02*
G75*
G03*
X116748657Y-89273065I-1142556J-128694D01*
G01*
D20*
X161557726Y-94421741D02*
X161923502Y-94421123D01*
X131224183Y-100487285D02*
X161557726Y-94421741D01*
X130858407Y-100487902D02*
X131224183Y-100487285D01*
X120224497Y-100294010D02*
X125258407Y-101787902D01*
X117877932Y-99577905D02*
X115967941Y-98480949D01*
X120224497Y-100294010D02*
X118936075Y-99830601D01*
X118620082Y-99760929D02*
X118395801Y-99740968D01*
X118936075Y-99830601D02*
G75*
G03*
X118620083Y-99760921I-428175J-1190399D01*
G01*
X118395801Y-99740968D02*
G75*
G02*
X117877927Y-99577914I112099J1259968D01*
G01*
X115967941Y-121340949D02*
X117064897Y-123250939D01*
X122909027Y-129847644D02*
X124986475Y-131664353D01*
X117227961Y-123768809D02*
X117247922Y-123993089D01*
X119492936Y-125627216D02*
X122814853Y-129749600D01*
X118395801Y-125140968D02*
X118620082Y-125160929D01*
X125340687Y-131803762D02*
X128058407Y-131889039D01*
X124986475Y-131664353D02*
G75*
G03*
X125340687Y-131803747I371925J425353D01*
G01*
X122814853Y-129749600D02*
G75*
G03*
X122909031Y-129847640I609147J490900D01*
G01*
X117247922Y-123993089D02*
G75*
G03*
X118395800Y-125140977I1259978J112089D01*
G01*
X117064897Y-123250939D02*
G75*
G02*
X117227935Y-123768811I-1096997J-629961D01*
G01*
X118620082Y-125160929D02*
G75*
G02*
X119492900Y-125627245I-112182J-1259971D01*
G01*
X115967941Y-116260949D02*
X117064897Y-118170939D01*
X125340687Y-130503762D02*
X128058407Y-130589039D01*
X120420385Y-122263643D02*
X122866806Y-126995917D01*
X118395801Y-120060968D02*
X118620082Y-120080929D01*
X119628186Y-120753345D02*
X120420385Y-122263643D01*
X117227961Y-118688809D02*
X117247922Y-118913089D01*
X123927959Y-128428282D02*
X124858061Y-130201487D01*
X123010486Y-127223113D02*
X123927959Y-128428282D01*
X117247922Y-118913089D02*
G75*
G03*
X118395800Y-120060977I1259978J112089D01*
G01*
X124858061Y-130201487D02*
G75*
G03*
X125340688Y-130503734I500339J262487D01*
G01*
X118620082Y-120080929D02*
G75*
G02*
X119628134Y-120753373I-112182J-1259971D01*
G01*
X122866806Y-126995917D02*
G75*
G03*
X123010492Y-127223109I1377594J712217D01*
G01*
X117064897Y-118170939D02*
G75*
G02*
X117227935Y-118688811I-1096997J-629961D01*
G01*
X120402839Y-98175775D02*
X124963251Y-100969678D01*
X118395801Y-97200968D02*
X118620082Y-97220929D01*
X115967941Y-95940949D02*
X117877932Y-97037905D01*
X119179815Y-97409123D02*
X120402839Y-98175775D01*
X125240687Y-101052625D02*
X127958407Y-101137902D01*
X118620082Y-97220929D02*
G75*
G02*
X119179802Y-97409144I-112182J-1259971D01*
G01*
X117877932Y-97037905D02*
G75*
G03*
X118395802Y-97200958I629968J1096905D01*
G01*
X124963251Y-100969678D02*
G75*
G03*
X125240687Y-101052620I295149J481778D01*
G01*
X161589367Y-106995765D02*
X161923502Y-107121123D01*
X133558407Y-102437902D02*
X133892542Y-102563261D01*
X133892542Y-102563261D02*
X161589367Y-106995765D01*
X161589367Y-99449827D02*
X161923502Y-99501123D01*
X133892542Y-101189199D02*
X161589367Y-99449827D01*
X133558407Y-101137902D02*
X133892542Y-101189199D01*
X120360113Y-119775104D02*
X119653797Y-118265001D01*
X125358407Y-129939039D02*
X124293728Y-127662756D01*
X118620082Y-117540929D02*
X118395801Y-117520968D01*
X117247922Y-116373089D02*
X117227961Y-116148809D01*
X117064897Y-115630939D02*
X115967941Y-113720949D01*
X123429115Y-126647812D02*
X120360113Y-119775104D01*
X124293728Y-127662756D02*
X123584733Y-126885474D01*
X118395801Y-117520968D02*
G75*
G02*
X117247931Y-116373088I112099J1259968D01*
G01*
X119653797Y-118265001D02*
G75*
G03*
X118620087Y-117540868I-1145897J-535899D01*
G01*
X123584733Y-126885474D02*
G75*
G02*
X123429102Y-126647818I659667J601774D01*
G01*
X117227961Y-116148809D02*
G75*
G03*
X117064919Y-115630926I-1260061J-112091D01*
G01*
G04 #@! TA.AperFunction,Conductor*
G36*
X166864399Y-75885601D02*
G01*
X166868500Y-75895500D01*
X166868500Y-140104500D01*
X166864399Y-140114399D01*
X166854500Y-140118500D01*
X112145500Y-140118500D01*
X112135601Y-140114399D01*
X112131500Y-140104500D01*
X112131500Y-136359574D01*
X113999500Y-136359574D01*
X113999500Y-136640425D01*
X114030943Y-136919498D01*
X114030945Y-136919511D01*
X114093436Y-137193303D01*
X114093443Y-137193328D01*
X114186194Y-137458397D01*
X114186194Y-137458398D01*
X114308056Y-137711447D01*
X114308060Y-137711454D01*
X114457472Y-137949241D01*
X114457480Y-137949253D01*
X114632588Y-138168830D01*
X114831169Y-138367411D01*
X115050746Y-138542519D01*
X115050752Y-138542523D01*
X115288555Y-138691945D01*
X115541592Y-138813801D01*
X115541594Y-138813801D01*
X115541601Y-138813805D01*
X115766730Y-138892580D01*
X115806682Y-138906560D01*
X116080491Y-138969055D01*
X116228226Y-138985700D01*
X116359574Y-139000500D01*
X116359575Y-139000500D01*
X116640425Y-139000500D01*
X116919509Y-138969055D01*
X117193318Y-138906560D01*
X117458397Y-138813805D01*
X117458398Y-138813805D01*
X117458401Y-138813803D01*
X117458408Y-138813801D01*
X117711445Y-138691945D01*
X117949248Y-138542523D01*
X118168825Y-138367416D01*
X118367416Y-138168825D01*
X118542523Y-137949248D01*
X118691945Y-137711445D01*
X118813801Y-137458408D01*
X118813803Y-137458401D01*
X118813805Y-137458398D01*
X118813805Y-137458397D01*
X118889624Y-137241718D01*
X118906560Y-137193318D01*
X118969055Y-136919509D01*
X119000500Y-136640425D01*
X119000500Y-136359575D01*
X118989180Y-136259105D01*
X125814688Y-136259105D01*
X125814688Y-136440748D01*
X125843104Y-136620156D01*
X125899235Y-136792911D01*
X125981697Y-136954751D01*
X125981707Y-136954767D01*
X126066935Y-137072072D01*
X126066937Y-137072072D01*
X126500319Y-136638689D01*
X126528578Y-136687635D01*
X126630980Y-136790037D01*
X126679924Y-136818294D01*
X126246541Y-137251677D01*
X126246541Y-137251678D01*
X126363847Y-137336907D01*
X126363863Y-137336917D01*
X126525703Y-137419379D01*
X126698458Y-137475510D01*
X126877866Y-137503927D01*
X127059510Y-137503927D01*
X127238917Y-137475510D01*
X127411672Y-137419379D01*
X127573512Y-137336917D01*
X127573528Y-137336907D01*
X127690833Y-137251678D01*
X127690833Y-137251676D01*
X127257451Y-136818294D01*
X127306396Y-136790037D01*
X127408798Y-136687635D01*
X127437055Y-136638690D01*
X127870437Y-137072072D01*
X127870439Y-137072072D01*
X127955668Y-136954767D01*
X127955678Y-136954751D01*
X128038140Y-136792911D01*
X128094271Y-136620156D01*
X128122688Y-136440748D01*
X128122688Y-136259106D01*
X128120923Y-136247965D01*
X128120923Y-136247964D01*
X128120685Y-136246462D01*
X128458188Y-136246462D01*
X128458188Y-136453391D01*
X128498557Y-136656345D01*
X128498559Y-136656351D01*
X128577746Y-136847524D01*
X128577747Y-136847525D01*
X128692711Y-137019582D01*
X128692712Y-137019583D01*
X128692715Y-137019587D01*
X128839027Y-137165899D01*
X128839030Y-137165901D01*
X128839033Y-137165904D01*
X128967404Y-137251678D01*
X129011090Y-137280868D01*
X129198342Y-137358431D01*
X129202268Y-137360057D01*
X129405223Y-137400427D01*
X129612153Y-137400427D01*
X129815108Y-137360057D01*
X130006286Y-137280868D01*
X130178343Y-137165904D01*
X130324665Y-137019582D01*
X130439629Y-136847525D01*
X130518818Y-136656347D01*
X130559188Y-136453392D01*
X130559188Y-136246462D01*
X130518818Y-136043507D01*
X130439629Y-135852329D01*
X130324665Y-135680272D01*
X130324662Y-135680269D01*
X130324660Y-135680266D01*
X130178348Y-135533954D01*
X130178344Y-135533951D01*
X130178343Y-135533950D01*
X130030413Y-135435107D01*
X130998188Y-135435107D01*
X130998188Y-137264746D01*
X131006920Y-137308647D01*
X131006920Y-137308648D01*
X131006921Y-137308649D01*
X131040184Y-137358431D01*
X131089966Y-137391694D01*
X131133868Y-137400427D01*
X132963508Y-137400427D01*
X133007410Y-137391694D01*
X133057192Y-137358431D01*
X133090455Y-137308649D01*
X133099188Y-137264747D01*
X133099188Y-136359574D01*
X160999500Y-136359574D01*
X160999500Y-136640425D01*
X161030943Y-136919498D01*
X161030945Y-136919511D01*
X161093436Y-137193303D01*
X161093443Y-137193328D01*
X161186194Y-137458397D01*
X161186194Y-137458398D01*
X161308056Y-137711447D01*
X161308060Y-137711454D01*
X161457472Y-137949241D01*
X161457480Y-137949253D01*
X161632588Y-138168830D01*
X161831169Y-138367411D01*
X162050746Y-138542519D01*
X162050752Y-138542523D01*
X162288555Y-138691945D01*
X162541592Y-138813801D01*
X162541594Y-138813801D01*
X162541601Y-138813805D01*
X162766730Y-138892580D01*
X162806682Y-138906560D01*
X163080491Y-138969055D01*
X163228226Y-138985700D01*
X163359574Y-139000500D01*
X163359575Y-139000500D01*
X163640425Y-139000500D01*
X163919509Y-138969055D01*
X164193318Y-138906560D01*
X164458397Y-138813805D01*
X164458398Y-138813805D01*
X164458401Y-138813803D01*
X164458408Y-138813801D01*
X164711445Y-138691945D01*
X164949248Y-138542523D01*
X165168825Y-138367416D01*
X165367416Y-138168825D01*
X165542523Y-137949248D01*
X165691945Y-137711445D01*
X165813801Y-137458408D01*
X165813803Y-137458401D01*
X165813805Y-137458398D01*
X165813805Y-137458397D01*
X165837145Y-137391694D01*
X165906560Y-137193318D01*
X165969055Y-136919509D01*
X166000500Y-136640425D01*
X166000500Y-136359575D01*
X165991254Y-136277518D01*
X165979176Y-136170321D01*
X165969055Y-136080491D01*
X165906560Y-135806682D01*
X165862325Y-135680266D01*
X165813805Y-135541602D01*
X165813805Y-135541601D01*
X165813801Y-135541592D01*
X165691945Y-135288555D01*
X165686867Y-135280474D01*
X165542527Y-135050758D01*
X165542519Y-135050746D01*
X165367411Y-134831169D01*
X165168830Y-134632588D01*
X164949253Y-134457480D01*
X164949241Y-134457472D01*
X164711454Y-134308060D01*
X164711447Y-134308056D01*
X164458398Y-134186194D01*
X164193328Y-134093443D01*
X164193320Y-134093441D01*
X164193318Y-134093440D01*
X164193314Y-134093439D01*
X164193303Y-134093436D01*
X163919511Y-134030945D01*
X163919498Y-134030943D01*
X163640426Y-133999500D01*
X163640425Y-133999500D01*
X163359575Y-133999500D01*
X163359574Y-133999500D01*
X163080501Y-134030943D01*
X163080488Y-134030945D01*
X162806696Y-134093436D01*
X162806671Y-134093443D01*
X162541602Y-134186194D01*
X162541601Y-134186194D01*
X162288552Y-134308056D01*
X162288545Y-134308060D01*
X162050758Y-134457472D01*
X162050746Y-134457480D01*
X161831169Y-134632588D01*
X161632588Y-134831169D01*
X161457480Y-135050746D01*
X161457472Y-135050758D01*
X161308060Y-135288545D01*
X161308056Y-135288552D01*
X161186194Y-135541601D01*
X161186194Y-135541602D01*
X161093443Y-135806671D01*
X161093436Y-135806696D01*
X161030945Y-136080488D01*
X161030943Y-136080501D01*
X160999500Y-136359574D01*
X133099188Y-136359574D01*
X133099188Y-135435107D01*
X133090455Y-135391205D01*
X133057192Y-135341423D01*
X133007410Y-135308160D01*
X133007409Y-135308159D01*
X133007408Y-135308159D01*
X132963508Y-135299427D01*
X131133868Y-135299427D01*
X131089967Y-135308159D01*
X131040184Y-135341423D01*
X131006920Y-135391206D01*
X130998188Y-135435107D01*
X130030413Y-135435107D01*
X130006286Y-135418986D01*
X130006287Y-135418986D01*
X130006285Y-135418985D01*
X129815112Y-135339798D01*
X129815106Y-135339796D01*
X129612153Y-135299427D01*
X129405223Y-135299427D01*
X129202269Y-135339796D01*
X129202263Y-135339798D01*
X129011090Y-135418985D01*
X128839027Y-135533954D01*
X128692715Y-135680266D01*
X128577746Y-135852329D01*
X128498559Y-136043502D01*
X128498557Y-136043508D01*
X128458188Y-136246462D01*
X128120685Y-136246462D01*
X128094271Y-136079697D01*
X128038140Y-135906942D01*
X127955678Y-135745102D01*
X127955668Y-135745086D01*
X127870439Y-135627780D01*
X127870438Y-135627780D01*
X127437055Y-136061163D01*
X127408798Y-136012219D01*
X127306396Y-135909817D01*
X127257450Y-135881558D01*
X127690833Y-135448176D01*
X127690833Y-135448174D01*
X127573528Y-135362946D01*
X127573512Y-135362936D01*
X127411672Y-135280474D01*
X127238917Y-135224343D01*
X127059510Y-135195927D01*
X126877866Y-135195927D01*
X126698458Y-135224343D01*
X126525703Y-135280474D01*
X126363863Y-135362936D01*
X126363847Y-135362946D01*
X126246541Y-135448174D01*
X126246541Y-135448175D01*
X126679925Y-135881558D01*
X126630980Y-135909817D01*
X126528578Y-136012219D01*
X126500319Y-136061163D01*
X126066936Y-135627780D01*
X126066935Y-135627780D01*
X125981707Y-135745086D01*
X125981697Y-135745102D01*
X125899235Y-135906942D01*
X125843104Y-136079697D01*
X125814688Y-136259105D01*
X118989180Y-136259105D01*
X118969055Y-136080491D01*
X118906560Y-135806682D01*
X118862325Y-135680266D01*
X118813805Y-135541602D01*
X118813805Y-135541601D01*
X118813801Y-135541592D01*
X118691945Y-135288555D01*
X118686867Y-135280474D01*
X118542527Y-135050758D01*
X118542519Y-135050746D01*
X118367411Y-134831169D01*
X118168830Y-134632588D01*
X117949253Y-134457480D01*
X117949241Y-134457472D01*
X117711454Y-134308060D01*
X117711447Y-134308056D01*
X117458398Y-134186194D01*
X117193328Y-134093443D01*
X117193320Y-134093441D01*
X117193318Y-134093440D01*
X117193314Y-134093439D01*
X117193303Y-134093436D01*
X116919511Y-134030945D01*
X116919498Y-134030943D01*
X116640426Y-133999500D01*
X116640425Y-133999500D01*
X116359575Y-133999500D01*
X116359574Y-133999500D01*
X116080501Y-134030943D01*
X116080488Y-134030945D01*
X115806696Y-134093436D01*
X115806671Y-134093443D01*
X115541602Y-134186194D01*
X115541601Y-134186194D01*
X115288552Y-134308056D01*
X115288545Y-134308060D01*
X115050758Y-134457472D01*
X115050746Y-134457480D01*
X114831169Y-134632588D01*
X114632588Y-134831169D01*
X114457480Y-135050746D01*
X114457472Y-135050758D01*
X114308060Y-135288545D01*
X114308056Y-135288552D01*
X114186194Y-135541601D01*
X114186194Y-135541602D01*
X114093443Y-135806671D01*
X114093436Y-135806696D01*
X114030945Y-136080488D01*
X114030943Y-136080501D01*
X113999500Y-136359574D01*
X112131500Y-136359574D01*
X112131500Y-83279617D01*
X112979533Y-83279617D01*
X112979533Y-85279627D01*
X112984056Y-85296507D01*
X112984533Y-85300130D01*
X112984533Y-87221186D01*
X112984532Y-87221195D01*
X112984532Y-87273784D01*
X112984473Y-87273927D01*
X112984557Y-87401504D01*
X112984558Y-87401513D01*
X113020366Y-87642612D01*
X113020367Y-87642617D01*
X113091199Y-87875838D01*
X113195521Y-88096129D01*
X113195523Y-88096132D01*
X113195524Y-88096134D01*
X113331074Y-88298715D01*
X113331078Y-88298719D01*
X113494907Y-88479187D01*
X113494910Y-88479190D01*
X113670104Y-88622687D01*
X113683477Y-88633640D01*
X113892686Y-88758718D01*
X114117998Y-88851709D01*
X114118005Y-88851710D01*
X114118006Y-88851711D01*
X114137662Y-88856605D01*
X114146278Y-88862975D01*
X114147865Y-88873572D01*
X114141495Y-88882188D01*
X114137011Y-88883921D01*
X114016121Y-88907968D01*
X114016115Y-88907970D01*
X113879538Y-88964542D01*
X113756611Y-89046680D01*
X113652086Y-89151205D01*
X113569948Y-89274132D01*
X113513376Y-89410709D01*
X113513374Y-89410715D01*
X113488098Y-89537785D01*
X113484533Y-89555709D01*
X113484533Y-89703545D01*
X113487484Y-89718380D01*
X113513374Y-89848538D01*
X113513376Y-89848544D01*
X113569948Y-89985121D01*
X113569949Y-89985122D01*
X113652082Y-90108043D01*
X113652083Y-90108044D01*
X113652086Y-90108048D01*
X113756611Y-90212573D01*
X113756614Y-90212575D01*
X113756617Y-90212578D01*
X113857363Y-90279894D01*
X113879538Y-90294711D01*
X113883970Y-90296547D01*
X114016120Y-90351285D01*
X114161115Y-90380127D01*
X115108951Y-90380127D01*
X115225626Y-90356918D01*
X115236134Y-90359008D01*
X115242087Y-90367918D01*
X115239997Y-90378427D01*
X115238828Y-90379941D01*
X114064061Y-91703795D01*
X114064021Y-91703814D01*
X113976294Y-91802608D01*
X113828014Y-92007374D01*
X113700695Y-92225823D01*
X113595616Y-92455757D01*
X113595605Y-92455786D01*
X113513784Y-92694966D01*
X113513780Y-92694980D01*
X113456001Y-92941125D01*
X113456000Y-92941134D01*
X113422847Y-93191765D01*
X113418865Y-93315704D01*
X113418865Y-93315709D01*
X113090832Y-103409835D01*
X113088961Y-103467387D01*
X113088960Y-103467387D01*
X113088200Y-103490771D01*
X113088199Y-103490807D01*
X113088194Y-103490971D01*
X113087249Y-103520090D01*
X113087301Y-103520311D01*
X113087666Y-103523602D01*
X113087441Y-103537556D01*
X113087441Y-103551499D01*
X113087421Y-103551545D01*
X113087022Y-103554782D01*
X113086990Y-103554911D01*
X113086965Y-103555010D01*
X113087432Y-103583736D01*
X113087441Y-103584252D01*
X113087441Y-103584348D01*
X113087822Y-103607741D01*
X113087880Y-103611296D01*
X113087880Y-103611297D01*
X113179367Y-109243939D01*
X113404380Y-123097570D01*
X113416840Y-123864675D01*
X113416840Y-123864689D01*
X113417682Y-123916510D01*
X113417680Y-123916516D01*
X113417776Y-123922377D01*
X113418300Y-123954575D01*
X113418301Y-123954606D01*
X113418634Y-123975089D01*
X113419238Y-123977207D01*
X113419307Y-123978871D01*
X113419308Y-123978873D01*
X113420972Y-124018918D01*
X113423645Y-124058900D01*
X113423475Y-124062196D01*
X113423381Y-124062739D01*
X114119901Y-131612789D01*
X114119902Y-131612812D01*
X114124727Y-131665102D01*
X114124659Y-131665322D01*
X114136675Y-131794997D01*
X114136677Y-131795009D01*
X114192618Y-132037794D01*
X114280597Y-132270893D01*
X114399020Y-132490089D01*
X114399027Y-132490099D01*
X114545762Y-132691448D01*
X114545763Y-132691449D01*
X114545765Y-132691451D01*
X114718168Y-132871319D01*
X114718173Y-132871323D01*
X114718175Y-132871325D01*
X114718174Y-132871325D01*
X114913121Y-133026456D01*
X114913130Y-133026462D01*
X115086412Y-133129795D01*
X115127113Y-133154066D01*
X115356276Y-133251841D01*
X115596475Y-133318019D01*
X115843378Y-133351406D01*
X115914142Y-133351429D01*
X115914422Y-133351449D01*
X115915214Y-133351449D01*
X115967952Y-133351449D01*
X119449357Y-133351449D01*
X119449427Y-133351453D01*
X119450390Y-133351452D01*
X119450394Y-133351454D01*
X119507977Y-133351449D01*
X119560668Y-133351449D01*
X119561539Y-133351449D01*
X119561715Y-133351435D01*
X119591738Y-133351434D01*
X119756037Y-133318741D01*
X119910804Y-133254628D01*
X119910804Y-133254627D01*
X119910806Y-133254627D01*
X119910807Y-133254626D01*
X119920111Y-133248409D01*
X120050090Y-133161556D01*
X120168546Y-133043102D01*
X120261621Y-132903817D01*
X120325737Y-132749052D01*
X120358433Y-132584753D01*
X120358434Y-132554832D01*
X120358441Y-132554767D01*
X120358441Y-132500905D01*
X120358442Y-132490089D01*
X120358447Y-132443409D01*
X120358445Y-132443405D01*
X120358446Y-132442477D01*
X120358441Y-132442391D01*
X120358441Y-130501770D01*
X120358471Y-130500854D01*
X120358733Y-130496852D01*
X120360453Y-130470613D01*
X120358710Y-130461849D01*
X120358441Y-130459118D01*
X120358441Y-130448225D01*
X120358441Y-130448222D01*
X120349075Y-130413271D01*
X120348876Y-130412417D01*
X120307169Y-130202734D01*
X120297156Y-130170825D01*
X119574320Y-128516020D01*
X119561114Y-128491874D01*
X119557602Y-128486618D01*
X119556772Y-128485201D01*
X119491937Y-128357955D01*
X119486995Y-128351153D01*
X119385495Y-128211449D01*
X119385494Y-128211448D01*
X119385487Y-128211441D01*
X119351038Y-128176992D01*
X119349303Y-128174877D01*
X119344342Y-128167452D01*
X119344339Y-128167448D01*
X119301442Y-128124551D01*
X119294009Y-128119584D01*
X119291893Y-128117847D01*
X119257442Y-128083396D01*
X119257441Y-128083395D01*
X119257440Y-128083394D01*
X119110947Y-127976961D01*
X119110939Y-127976956D01*
X119110935Y-127976953D01*
X118982949Y-127911740D01*
X118977016Y-127907776D01*
X118967146Y-127903687D01*
X118966649Y-127903434D01*
X118966648Y-127903433D01*
X118949585Y-127894739D01*
X118931360Y-127888818D01*
X118930840Y-127888649D01*
X118920961Y-127884557D01*
X118913961Y-127883164D01*
X118913172Y-127882908D01*
X118913171Y-127882907D01*
X118777350Y-127838778D01*
X118598487Y-127810449D01*
X118549771Y-127810449D01*
X118547040Y-127810180D01*
X118538277Y-127808437D01*
X118477605Y-127808437D01*
X118468842Y-127810180D01*
X118466111Y-127810449D01*
X118417395Y-127810449D01*
X118238531Y-127838778D01*
X118102707Y-127882908D01*
X118101915Y-127883165D01*
X118094922Y-127884557D01*
X118085059Y-127888641D01*
X118084522Y-127888816D01*
X118084520Y-127888815D01*
X118066312Y-127894733D01*
X118066293Y-127894741D01*
X118049236Y-127903432D01*
X118048730Y-127903689D01*
X118038867Y-127907776D01*
X118032947Y-127911730D01*
X118032208Y-127912107D01*
X118032202Y-127912111D01*
X117904950Y-127976951D01*
X117904934Y-127976961D01*
X117758442Y-128083393D01*
X117758439Y-128083396D01*
X117723985Y-128117849D01*
X117721866Y-128119588D01*
X117714443Y-128124549D01*
X117714438Y-128124553D01*
X117671546Y-128167445D01*
X117671542Y-128167450D01*
X117666581Y-128174873D01*
X117664842Y-128176992D01*
X117630388Y-128211447D01*
X117630385Y-128211450D01*
X117523953Y-128357942D01*
X117523943Y-128357958D01*
X117459102Y-128485212D01*
X117459101Y-128485211D01*
X117458718Y-128485961D01*
X117454769Y-128491874D01*
X117450684Y-128501732D01*
X117450427Y-128502238D01*
X117441733Y-128519301D01*
X117441725Y-128519319D01*
X117435805Y-128537536D01*
X117435806Y-128537537D01*
X117435635Y-128538063D01*
X117431550Y-128547928D01*
X117430160Y-128554913D01*
X117429902Y-128555708D01*
X117385770Y-128691539D01*
X117357441Y-128870403D01*
X117357441Y-128919118D01*
X117357172Y-128921849D01*
X117355429Y-128930612D01*
X117355429Y-128991285D01*
X117357172Y-129000048D01*
X117357441Y-129002779D01*
X117357441Y-129051495D01*
X117366943Y-129111488D01*
X117385770Y-129230358D01*
X117429902Y-129366188D01*
X117430158Y-129366978D01*
X117431550Y-129373969D01*
X117435637Y-129383836D01*
X117435806Y-129384355D01*
X117435806Y-129384356D01*
X117441731Y-129402593D01*
X117450432Y-129419671D01*
X117450433Y-129419671D01*
X117450686Y-129420168D01*
X117454769Y-129430023D01*
X117458726Y-129435946D01*
X117459103Y-129436685D01*
X117523943Y-129563939D01*
X117523953Y-129563955D01*
X117630386Y-129710448D01*
X117630387Y-129710449D01*
X117630388Y-129710450D01*
X117664844Y-129744906D01*
X117666581Y-129747022D01*
X117671542Y-129754446D01*
X117671544Y-129754448D01*
X117671546Y-129754451D01*
X117714441Y-129797346D01*
X117714445Y-129797349D01*
X117721864Y-129802306D01*
X117723981Y-129804043D01*
X117742349Y-129822411D01*
X117758440Y-129838502D01*
X117758441Y-129838503D01*
X117904934Y-129944936D01*
X117904938Y-129944938D01*
X117904947Y-129944945D01*
X118032208Y-130009788D01*
X118033626Y-130010619D01*
X118038868Y-130014122D01*
X118050828Y-130019721D01*
X118061602Y-130024765D01*
X118066302Y-130027160D01*
X118067657Y-130027600D01*
X118075437Y-130031242D01*
X118081283Y-130033980D01*
X118081284Y-130033980D01*
X118081288Y-130033982D01*
X118145980Y-130053052D01*
X118146294Y-130053149D01*
X118238532Y-130083120D01*
X118258045Y-130086210D01*
X118259791Y-130086604D01*
X118653722Y-130202734D01*
X118710663Y-130219520D01*
X118718999Y-130226253D01*
X118720133Y-130236908D01*
X118713400Y-130245244D01*
X118706704Y-130246949D01*
X118634941Y-130246949D01*
X118634941Y-130913812D01*
X118586932Y-130900949D01*
X118428950Y-130900949D01*
X118380941Y-130913812D01*
X118380941Y-130246949D01*
X117482925Y-130246949D01*
X117408835Y-130261685D01*
X117324817Y-130317825D01*
X117268677Y-130401844D01*
X117253941Y-130475932D01*
X117253941Y-131373949D01*
X117920805Y-131373949D01*
X117907941Y-131421958D01*
X117907941Y-131579940D01*
X117920805Y-131627949D01*
X117253942Y-131627949D01*
X117253942Y-132525964D01*
X117255484Y-132533718D01*
X117253393Y-132544227D01*
X117244484Y-132550180D01*
X117241753Y-132550449D01*
X116699947Y-132550449D01*
X116690048Y-132546348D01*
X116685947Y-132536449D01*
X116690048Y-132526550D01*
X116691718Y-132525123D01*
X116761678Y-132474293D01*
X116761678Y-132474292D01*
X116293305Y-132005919D01*
X116336349Y-131981068D01*
X116448060Y-131869357D01*
X116472911Y-131826314D01*
X116941283Y-132294686D01*
X116941285Y-132294686D01*
X117040449Y-132158200D01*
X117040459Y-132158184D01*
X117130068Y-131982320D01*
X117191063Y-131794595D01*
X117221941Y-131599640D01*
X117221941Y-131402257D01*
X117191063Y-131207302D01*
X117130068Y-131019577D01*
X117040459Y-130843713D01*
X117040449Y-130843697D01*
X116941285Y-130707210D01*
X116941284Y-130707210D01*
X116472910Y-131175583D01*
X116448060Y-131132541D01*
X116336349Y-131020830D01*
X116293304Y-130995978D01*
X116761678Y-130527604D01*
X116761678Y-130527603D01*
X116705201Y-130486570D01*
X116625192Y-130428440D01*
X116625176Y-130428430D01*
X116449312Y-130338821D01*
X116261587Y-130277826D01*
X116066633Y-130246949D01*
X115869249Y-130246949D01*
X115674294Y-130277826D01*
X115486569Y-130338821D01*
X115310705Y-130428430D01*
X115310689Y-130428440D01*
X115174202Y-130527603D01*
X115174202Y-130527605D01*
X115642575Y-130995978D01*
X115599533Y-131020830D01*
X115487822Y-131132541D01*
X115462970Y-131175584D01*
X114994596Y-130707210D01*
X114994595Y-130707210D01*
X114895432Y-130843697D01*
X114895422Y-130843714D01*
X114881770Y-130870505D01*
X114873622Y-130877464D01*
X114862940Y-130876623D01*
X114855981Y-130868475D01*
X114855357Y-130865446D01*
X114671307Y-128870403D01*
X114817441Y-128870403D01*
X114817441Y-129051495D01*
X114826943Y-129111488D01*
X114845770Y-129230358D01*
X114901730Y-129402590D01*
X114983943Y-129563939D01*
X114983953Y-129563955D01*
X115090386Y-129710448D01*
X115090393Y-129710456D01*
X115218433Y-129838496D01*
X115218441Y-129838503D01*
X115364934Y-129944936D01*
X115364938Y-129944938D01*
X115364947Y-129944945D01*
X115432676Y-129979455D01*
X115526299Y-130027159D01*
X115526301Y-130027159D01*
X115526302Y-130027160D01*
X115698532Y-130083120D01*
X115877395Y-130111449D01*
X116058487Y-130111449D01*
X116237350Y-130083120D01*
X116409580Y-130027160D01*
X116570935Y-129944945D01*
X116717442Y-129838502D01*
X116845494Y-129710450D01*
X116951937Y-129563943D01*
X117034152Y-129402588D01*
X117090112Y-129230358D01*
X117118441Y-129051495D01*
X117118441Y-128870403D01*
X117090112Y-128691540D01*
X117034152Y-128519310D01*
X117034151Y-128519309D01*
X117034151Y-128519307D01*
X116993044Y-128438632D01*
X116951937Y-128357955D01*
X116946995Y-128351153D01*
X116845495Y-128211449D01*
X116845488Y-128211441D01*
X116717448Y-128083401D01*
X116717440Y-128083394D01*
X116570947Y-127976961D01*
X116570939Y-127976956D01*
X116570935Y-127976953D01*
X116565113Y-127973986D01*
X116409582Y-127894738D01*
X116237350Y-127838778D01*
X116058487Y-127810449D01*
X115877395Y-127810449D01*
X115698531Y-127838778D01*
X115526299Y-127894738D01*
X115364950Y-127976951D01*
X115364934Y-127976961D01*
X115218441Y-128083394D01*
X115218433Y-128083401D01*
X115090393Y-128211441D01*
X115090386Y-128211449D01*
X114983953Y-128357942D01*
X114983943Y-128357958D01*
X114901730Y-128519307D01*
X114845770Y-128691539D01*
X114825316Y-128820684D01*
X114817441Y-128870403D01*
X114671307Y-128870403D01*
X114301826Y-124865343D01*
X114305000Y-124855110D01*
X114314481Y-124850117D01*
X114324715Y-124853291D01*
X114329231Y-124860224D01*
X114422654Y-125188448D01*
X114840050Y-126654894D01*
X114840413Y-126656537D01*
X114845770Y-126690358D01*
X114880972Y-126798704D01*
X114881122Y-126799197D01*
X114894499Y-126846195D01*
X114894502Y-126846201D01*
X114900901Y-126860038D01*
X114901730Y-126862588D01*
X114905513Y-126870014D01*
X114905621Y-126870247D01*
X114905631Y-126870267D01*
X114914769Y-126890024D01*
X114918270Y-126895264D01*
X114919103Y-126896685D01*
X114983943Y-127023939D01*
X114983953Y-127023955D01*
X115090386Y-127170448D01*
X115090387Y-127170449D01*
X115090388Y-127170450D01*
X115124844Y-127204906D01*
X115126581Y-127207022D01*
X115131542Y-127214446D01*
X115131544Y-127214448D01*
X115131546Y-127214451D01*
X115174441Y-127257346D01*
X115174445Y-127257349D01*
X115181864Y-127262306D01*
X115183981Y-127264043D01*
X115218440Y-127298502D01*
X115218441Y-127298503D01*
X115364934Y-127404936D01*
X115364938Y-127404938D01*
X115364947Y-127404945D01*
X115492942Y-127470162D01*
X115498867Y-127474121D01*
X115508725Y-127478204D01*
X115509217Y-127478455D01*
X115526301Y-127487160D01*
X115534384Y-127489786D01*
X115545053Y-127493252D01*
X115554921Y-127497340D01*
X115561915Y-127498731D01*
X115698532Y-127543120D01*
X115877395Y-127571449D01*
X115926110Y-127571449D01*
X115928841Y-127571718D01*
X115937604Y-127573461D01*
X115967941Y-127576449D01*
X115967948Y-127576449D01*
X118507934Y-127576449D01*
X118507941Y-127576449D01*
X118538278Y-127573461D01*
X118547041Y-127571718D01*
X118549772Y-127571449D01*
X118598487Y-127571449D01*
X118777350Y-127543120D01*
X118913965Y-127498731D01*
X118920962Y-127497340D01*
X118930833Y-127493251D01*
X118949580Y-127487160D01*
X118967148Y-127478208D01*
X118977016Y-127474121D01*
X118982943Y-127470160D01*
X119110935Y-127404945D01*
X119257442Y-127298502D01*
X119291900Y-127264042D01*
X119294012Y-127262309D01*
X119301439Y-127257348D01*
X119344341Y-127214446D01*
X119349302Y-127207019D01*
X119351035Y-127204907D01*
X119385494Y-127170450D01*
X119491937Y-127023943D01*
X119557151Y-126895953D01*
X119561114Y-126890023D01*
X119565203Y-126880150D01*
X119574152Y-126862588D01*
X119580242Y-126843843D01*
X119584333Y-126833968D01*
X119585725Y-126826968D01*
X119630112Y-126690358D01*
X119658441Y-126511495D01*
X119658441Y-126462778D01*
X119658710Y-126460047D01*
X119660453Y-126451284D01*
X119660453Y-126390613D01*
X119658710Y-126381849D01*
X119658441Y-126379118D01*
X119658441Y-126330403D01*
X119655854Y-126314069D01*
X119636226Y-126190144D01*
X119638728Y-126179727D01*
X119647864Y-126174128D01*
X119658283Y-126176630D01*
X119660955Y-126179172D01*
X122619681Y-129850849D01*
X122619698Y-129850872D01*
X122643325Y-129880192D01*
X122643329Y-129880204D01*
X122665163Y-129907301D01*
X122665214Y-129907364D01*
X122665294Y-129907452D01*
X122673950Y-129918194D01*
X122676087Y-129919360D01*
X122677674Y-129921112D01*
X122677676Y-129921113D01*
X122704089Y-129950255D01*
X122733813Y-129979455D01*
X122734898Y-129981647D01*
X122745336Y-129990775D01*
X122745384Y-129990822D01*
X122745494Y-129990918D01*
X122763793Y-130006916D01*
X122763794Y-130006917D01*
X124811318Y-131797457D01*
X124811343Y-131797482D01*
X124812354Y-131798366D01*
X124844623Y-131826582D01*
X124844614Y-131826593D01*
X124854984Y-131835642D01*
X124876882Y-131854792D01*
X124876883Y-131854792D01*
X124877801Y-131855595D01*
X124878062Y-131855781D01*
X124895244Y-131870776D01*
X124895245Y-131870776D01*
X124895247Y-131870778D01*
X125010059Y-131940650D01*
X125135126Y-131989868D01*
X125135129Y-131989868D01*
X125135130Y-131989869D01*
X125266758Y-132016982D01*
X125266760Y-132016982D01*
X125266765Y-132016983D01*
X125289499Y-132017718D01*
X125289947Y-132017776D01*
X125291082Y-132017811D01*
X125291083Y-132017812D01*
X127647606Y-132091753D01*
X127657371Y-132096162D01*
X127659290Y-132098746D01*
X127697916Y-132165650D01*
X127697918Y-132165653D01*
X127781792Y-132249527D01*
X127781795Y-132249529D01*
X127818799Y-132270893D01*
X127884521Y-132308838D01*
X127999098Y-132339539D01*
X127999101Y-132339539D01*
X128117713Y-132339539D01*
X128117716Y-132339539D01*
X128232293Y-132308838D01*
X128335020Y-132249528D01*
X128418896Y-132165652D01*
X128478206Y-132062925D01*
X128508907Y-131948348D01*
X128508907Y-131829730D01*
X128478206Y-131715153D01*
X128446654Y-131660503D01*
X128418897Y-131612427D01*
X128418895Y-131612424D01*
X128335021Y-131528550D01*
X128335018Y-131528548D01*
X128232297Y-131469242D01*
X128232295Y-131469241D01*
X128232293Y-131469240D01*
X128117716Y-131438539D01*
X127999098Y-131438539D01*
X127999097Y-131438539D01*
X127884524Y-131469239D01*
X127884516Y-131469242D01*
X127781795Y-131528548D01*
X127781792Y-131528550D01*
X127697924Y-131612418D01*
X127697915Y-131612430D01*
X127673925Y-131653980D01*
X127665424Y-131660503D01*
X127661362Y-131660973D01*
X125669429Y-131598470D01*
X125659663Y-131594061D01*
X125655875Y-131584038D01*
X125659968Y-131574579D01*
X125718896Y-131515652D01*
X125727386Y-131500948D01*
X125745693Y-131469239D01*
X125778206Y-131412925D01*
X125808907Y-131298348D01*
X125808907Y-131179730D01*
X125778206Y-131065153D01*
X125752616Y-131020830D01*
X125718897Y-130962427D01*
X125718895Y-130962424D01*
X125635021Y-130878550D01*
X125635018Y-130878548D01*
X125532297Y-130819242D01*
X125532295Y-130819241D01*
X125532293Y-130819240D01*
X125417716Y-130788539D01*
X125299098Y-130788539D01*
X125299097Y-130788539D01*
X125244020Y-130803296D01*
X125233397Y-130801897D01*
X125230382Y-130799555D01*
X125152044Y-130719353D01*
X125148060Y-130709406D01*
X125152277Y-130699556D01*
X125162224Y-130695572D01*
X125164939Y-130695870D01*
X125265087Y-130716945D01*
X125289559Y-130717730D01*
X125289896Y-130717774D01*
X125291081Y-130717811D01*
X125291083Y-130717812D01*
X127647606Y-130791753D01*
X127657371Y-130796162D01*
X127659290Y-130798746D01*
X127697916Y-130865650D01*
X127697918Y-130865653D01*
X127781792Y-130949527D01*
X127781795Y-130949529D01*
X127862812Y-130996304D01*
X127884521Y-131008838D01*
X127999098Y-131039539D01*
X127999101Y-131039539D01*
X128117713Y-131039539D01*
X128117716Y-131039539D01*
X128232293Y-131008838D01*
X128335020Y-130949528D01*
X128418896Y-130865652D01*
X128478206Y-130762925D01*
X128508907Y-130648348D01*
X128508907Y-130529730D01*
X128504203Y-130512175D01*
X130177887Y-130512175D01*
X130177896Y-130665924D01*
X130207901Y-130816715D01*
X130236998Y-130886948D01*
X130237321Y-130887806D01*
X130247068Y-130916520D01*
X130252040Y-130923962D01*
X130252806Y-130925108D01*
X130253731Y-130927340D01*
X130255436Y-130929045D01*
X130256202Y-130930191D01*
X130329266Y-131039538D01*
X130383636Y-131120908D01*
X130414148Y-131154610D01*
X131116760Y-131732540D01*
X133132160Y-133390298D01*
X133291460Y-133521329D01*
X133303851Y-133530529D01*
X133303866Y-133530539D01*
X133311284Y-133535496D01*
X133313400Y-133537232D01*
X133325761Y-133549593D01*
X133325763Y-133549595D01*
X133354139Y-133565977D01*
X133374078Y-133577489D01*
X133374831Y-133577956D01*
X133401178Y-133595561D01*
X133415207Y-133601371D01*
X133416834Y-133602174D01*
X133428488Y-133608903D01*
X133441481Y-133612384D01*
X133443208Y-133612970D01*
X133457233Y-133618780D01*
X133457234Y-133618780D01*
X133457236Y-133618781D01*
X133468538Y-133621028D01*
X133488299Y-133624958D01*
X133489147Y-133625156D01*
X133543065Y-133639604D01*
X133560544Y-133639604D01*
X133563275Y-133639873D01*
X133572038Y-133641616D01*
X133632710Y-133641616D01*
X133641473Y-133639873D01*
X133644204Y-133639604D01*
X133661680Y-133639604D01*
X133661683Y-133639604D01*
X133715606Y-133625154D01*
X133716440Y-133624960D01*
X133747515Y-133618780D01*
X133761543Y-133612968D01*
X133763260Y-133612385D01*
X133776260Y-133608903D01*
X133787906Y-133602177D01*
X133789548Y-133601369D01*
X133796371Y-133598542D01*
X133803570Y-133595561D01*
X133829918Y-133577954D01*
X133830636Y-133577508D01*
X133878987Y-133549593D01*
X133891349Y-133537229D01*
X133893461Y-133535496D01*
X133900897Y-133530529D01*
X133943799Y-133487627D01*
X133948766Y-133480191D01*
X133950499Y-133478079D01*
X133962863Y-133465717D01*
X133990778Y-133417366D01*
X133991224Y-133416648D01*
X134008831Y-133390300D01*
X134011812Y-133383101D01*
X134014639Y-133376278D01*
X134015449Y-133374634D01*
X134022173Y-133362990D01*
X134025655Y-133349990D01*
X134026238Y-133348273D01*
X134032050Y-133334245D01*
X134038230Y-133303170D01*
X134038424Y-133302336D01*
X134052874Y-133248413D01*
X134052874Y-133230933D01*
X134053143Y-133228202D01*
X134054886Y-133219439D01*
X134054886Y-133158768D01*
X134053143Y-133150004D01*
X134052874Y-133147273D01*
X134052874Y-133129798D01*
X134052874Y-133129795D01*
X134038426Y-133075877D01*
X134038228Y-133075029D01*
X134032050Y-133043963D01*
X134026240Y-133029938D01*
X134025653Y-133028207D01*
X134022173Y-133015218D01*
X134015444Y-133003564D01*
X134014641Y-133001937D01*
X134008831Y-132987908D01*
X133991226Y-132961561D01*
X133990759Y-132960808D01*
X133979247Y-132940869D01*
X133962865Y-132912493D01*
X133962863Y-132912491D01*
X133950502Y-132900130D01*
X133948765Y-132898013D01*
X133943800Y-132890582D01*
X133943797Y-132890578D01*
X133900900Y-132847681D01*
X133893461Y-132842710D01*
X133891345Y-132840973D01*
X133878987Y-132828615D01*
X133878985Y-132828614D01*
X133878983Y-132828612D01*
X133830681Y-132800725D01*
X133829903Y-132800242D01*
X133803570Y-132782647D01*
X133803550Y-132782634D01*
X133803523Y-132782616D01*
X133799885Y-132780259D01*
X133394950Y-132525964D01*
X131052103Y-131054678D01*
X131045901Y-131045942D01*
X131047693Y-131035378D01*
X131055925Y-131029300D01*
X131132293Y-131008838D01*
X131235020Y-130949528D01*
X131318896Y-130865652D01*
X131357524Y-130798744D01*
X131366022Y-130792224D01*
X131369201Y-130791754D01*
X133638648Y-130720544D01*
X133638701Y-130720548D01*
X133640070Y-130720504D01*
X133640071Y-130720505D01*
X133679316Y-130719268D01*
X133682915Y-130719155D01*
X133682915Y-130719157D01*
X133693084Y-130718837D01*
X133693107Y-130718835D01*
X133695971Y-130718745D01*
X133700320Y-130719296D01*
X133700517Y-130719353D01*
X133701177Y-130719545D01*
X133712889Y-130718255D01*
X133713944Y-130718181D01*
X133725731Y-130717812D01*
X133726542Y-130717445D01*
X133730772Y-130716287D01*
X133737573Y-130715539D01*
X133737574Y-130715539D01*
X133743787Y-130714855D01*
X133743787Y-130714856D01*
X133752842Y-130713859D01*
X161481903Y-127662286D01*
X161492190Y-127665279D01*
X161495557Y-127669202D01*
X161501918Y-127680220D01*
X161501927Y-127680231D01*
X161585795Y-127764099D01*
X161585798Y-127764101D01*
X161617119Y-127782184D01*
X161688524Y-127823410D01*
X161803101Y-127854111D01*
X161803104Y-127854111D01*
X161921716Y-127854111D01*
X161921719Y-127854111D01*
X162036296Y-127823410D01*
X162139023Y-127764100D01*
X162222899Y-127680224D01*
X162282209Y-127577497D01*
X162312910Y-127462920D01*
X162312910Y-127344302D01*
X162282209Y-127229725D01*
X162230573Y-127140289D01*
X162222900Y-127126999D01*
X162222898Y-127126996D01*
X162139024Y-127043122D01*
X162139021Y-127043120D01*
X162036300Y-126983814D01*
X162036298Y-126983813D01*
X162036296Y-126983812D01*
X161921719Y-126953111D01*
X161803101Y-126953111D01*
X161803100Y-126953111D01*
X161688527Y-126983811D01*
X161688519Y-126983814D01*
X161585798Y-127043120D01*
X161585795Y-127043122D01*
X161501921Y-127126996D01*
X161501919Y-127126999D01*
X161444131Y-127227090D01*
X161435630Y-127233613D01*
X161433538Y-127234006D01*
X134018807Y-130250986D01*
X134008519Y-130247993D01*
X134003360Y-130238601D01*
X134006353Y-130228313D01*
X134007370Y-130227176D01*
X134018896Y-130215652D01*
X134026356Y-130202732D01*
X134030067Y-130196302D01*
X134078206Y-130112925D01*
X134078602Y-130111449D01*
X134084291Y-130090213D01*
X134090813Y-130081712D01*
X134095355Y-130080053D01*
X161561370Y-125184564D01*
X161571835Y-125186864D01*
X161573719Y-125188442D01*
X161623822Y-125238545D01*
X161646891Y-125261614D01*
X161737477Y-125313913D01*
X161749616Y-125320922D01*
X161864193Y-125351623D01*
X161864196Y-125351623D01*
X161982808Y-125351623D01*
X161982811Y-125351623D01*
X162097388Y-125320922D01*
X162200115Y-125261612D01*
X162283991Y-125177736D01*
X162343301Y-125075009D01*
X162374002Y-124960432D01*
X162374002Y-124841814D01*
X162343301Y-124727237D01*
X162287424Y-124630456D01*
X162283992Y-124624511D01*
X162283990Y-124624508D01*
X162200116Y-124540634D01*
X162200113Y-124540632D01*
X162097392Y-124481326D01*
X162097390Y-124481325D01*
X162097388Y-124481324D01*
X161982811Y-124450623D01*
X161864193Y-124450623D01*
X161864192Y-124450623D01*
X161749619Y-124481323D01*
X161749611Y-124481326D01*
X161646890Y-124540632D01*
X161646887Y-124540634D01*
X161563013Y-124624508D01*
X161563011Y-124624511D01*
X161503705Y-124727232D01*
X161503703Y-124727238D01*
X161497617Y-124749948D01*
X161491093Y-124758449D01*
X161486551Y-124760107D01*
X134020538Y-129655596D01*
X134010072Y-129653296D01*
X134008187Y-129651717D01*
X133935020Y-129578550D01*
X133935019Y-129578549D01*
X133935017Y-129578547D01*
X133832297Y-129519242D01*
X133832295Y-129519241D01*
X133832293Y-129519240D01*
X133717716Y-129488539D01*
X133599098Y-129488539D01*
X133599097Y-129488539D01*
X133484524Y-129519239D01*
X133484516Y-129519242D01*
X133381795Y-129578548D01*
X133381792Y-129578550D01*
X133297918Y-129662424D01*
X133297916Y-129662427D01*
X133238610Y-129765148D01*
X133238607Y-129765156D01*
X133215486Y-129851446D01*
X133207907Y-129879730D01*
X133207907Y-129998348D01*
X133238607Y-130112923D01*
X133238610Y-130112929D01*
X133297915Y-130215649D01*
X133297917Y-130215651D01*
X133297918Y-130215652D01*
X133356844Y-130274578D01*
X133360945Y-130284477D01*
X133356845Y-130294376D01*
X133347384Y-130298470D01*
X131355450Y-130360973D01*
X131345427Y-130357185D01*
X131342892Y-130353987D01*
X131318896Y-130312426D01*
X131318895Y-130312425D01*
X131318894Y-130312423D01*
X131235021Y-130228550D01*
X131235018Y-130228548D01*
X131132297Y-130169242D01*
X131132295Y-130169241D01*
X131132293Y-130169240D01*
X131017716Y-130138539D01*
X130899098Y-130138539D01*
X130899094Y-130138539D01*
X130898164Y-130138789D01*
X130887541Y-130137387D01*
X130881021Y-130128884D01*
X130882423Y-130118261D01*
X130883370Y-130116831D01*
X131302126Y-129562487D01*
X131307342Y-129555149D01*
X131312305Y-129547719D01*
X131314047Y-129545597D01*
X131326406Y-129533239D01*
X131354321Y-129484888D01*
X131354767Y-129484170D01*
X131372374Y-129457822D01*
X131375355Y-129450623D01*
X131378182Y-129443800D01*
X131378992Y-129442156D01*
X131382151Y-129436685D01*
X131385716Y-129430512D01*
X131389198Y-129417512D01*
X131389781Y-129415795D01*
X131395593Y-129401767D01*
X131401773Y-129370692D01*
X131401967Y-129369858D01*
X131416417Y-129315935D01*
X131416417Y-129298455D01*
X131416686Y-129295724D01*
X131418429Y-129286961D01*
X131418429Y-129226290D01*
X131416686Y-129217526D01*
X131416417Y-129214795D01*
X131416417Y-129197320D01*
X131416417Y-129197317D01*
X131401969Y-129143399D01*
X131401771Y-129142551D01*
X131395593Y-129111485D01*
X131389783Y-129097460D01*
X131389196Y-129095729D01*
X131387633Y-129089896D01*
X131385716Y-129082740D01*
X131378987Y-129071086D01*
X131378184Y-129069459D01*
X131372374Y-129055430D01*
X131354769Y-129029083D01*
X131354302Y-129028330D01*
X131338754Y-129001400D01*
X131326408Y-128980015D01*
X131326405Y-128980012D01*
X131314045Y-128967652D01*
X131312308Y-128965535D01*
X131307343Y-128958104D01*
X131307340Y-128958100D01*
X131264443Y-128915203D01*
X131257004Y-128910232D01*
X131254888Y-128908495D01*
X131242530Y-128896137D01*
X131242528Y-128896136D01*
X131242526Y-128896134D01*
X131194224Y-128868247D01*
X131193446Y-128867764D01*
X131167112Y-128850168D01*
X131153090Y-128844360D01*
X131151448Y-128843550D01*
X131139808Y-128836829D01*
X131139805Y-128836828D01*
X131139804Y-128836827D01*
X131139803Y-128836827D01*
X131126803Y-128833343D01*
X131125076Y-128832756D01*
X131117395Y-128829575D01*
X131111061Y-128826951D01*
X131111056Y-128826949D01*
X131080006Y-128820773D01*
X131079114Y-128820565D01*
X131025226Y-128806126D01*
X131007747Y-128806126D01*
X131005016Y-128805857D01*
X130996253Y-128804114D01*
X130935581Y-128804114D01*
X130926818Y-128805857D01*
X130924087Y-128806126D01*
X130906607Y-128806126D01*
X130852718Y-128820565D01*
X130851826Y-128820773D01*
X130820777Y-128826949D01*
X130820776Y-128826949D01*
X130806752Y-128832758D01*
X130805023Y-128833344D01*
X130792031Y-128836827D01*
X130792024Y-128836830D01*
X130780377Y-128843553D01*
X130778738Y-128844362D01*
X130764717Y-128850170D01*
X130738385Y-128867764D01*
X130737608Y-128868247D01*
X130689304Y-128896136D01*
X130689303Y-128896137D01*
X130676944Y-128908495D01*
X130674825Y-128910234D01*
X130667393Y-128915201D01*
X130667388Y-128915205D01*
X130624496Y-128958097D01*
X130624492Y-128958102D01*
X130619525Y-128965534D01*
X130617786Y-128967653D01*
X130605428Y-128980012D01*
X130605427Y-128980013D01*
X130577538Y-129028317D01*
X130577055Y-129029094D01*
X130559461Y-129055427D01*
X130559460Y-129055430D01*
X130551345Y-129073538D01*
X130551344Y-129073537D01*
X130551044Y-129074206D01*
X130546118Y-129082740D01*
X130544475Y-129088867D01*
X130544018Y-129089890D01*
X130544016Y-129089896D01*
X130538220Y-129102832D01*
X130538220Y-129102833D01*
X130225831Y-130308955D01*
X130225830Y-130308957D01*
X130225830Y-130308961D01*
X130225617Y-130312424D01*
X130225320Y-130317257D01*
X130224281Y-130321753D01*
X130207872Y-130361377D01*
X130207870Y-130361383D01*
X130177887Y-130512175D01*
X128504203Y-130512175D01*
X128478206Y-130415153D01*
X128444738Y-130357185D01*
X128418897Y-130312427D01*
X128418895Y-130312424D01*
X128335021Y-130228550D01*
X128335018Y-130228548D01*
X128232297Y-130169242D01*
X128232295Y-130169241D01*
X128232293Y-130169240D01*
X128117716Y-130138539D01*
X127999098Y-130138539D01*
X127999097Y-130138539D01*
X127884524Y-130169239D01*
X127884516Y-130169242D01*
X127781795Y-130228548D01*
X127781792Y-130228550D01*
X127697924Y-130312418D01*
X127697915Y-130312430D01*
X127673925Y-130353980D01*
X127665424Y-130360503D01*
X127661362Y-130360973D01*
X125669429Y-130298470D01*
X125659663Y-130294061D01*
X125655875Y-130284038D01*
X125659968Y-130274579D01*
X125718896Y-130215652D01*
X125726356Y-130202732D01*
X125735475Y-130186935D01*
X125778206Y-130112925D01*
X125808907Y-129998348D01*
X125808907Y-129879730D01*
X125778206Y-129765153D01*
X125748460Y-129713632D01*
X125718897Y-129662427D01*
X125718895Y-129662424D01*
X125635021Y-129578550D01*
X125635018Y-129578548D01*
X125532297Y-129519242D01*
X125532295Y-129519241D01*
X125532293Y-129519240D01*
X125417716Y-129488539D01*
X125394510Y-129488539D01*
X125384611Y-129484438D01*
X125381829Y-129480470D01*
X124493346Y-127580894D01*
X124492860Y-127579721D01*
X124481829Y-127549197D01*
X124476475Y-127543328D01*
X124474137Y-127539825D01*
X124470770Y-127532626D01*
X124470769Y-127532625D01*
X124446815Y-127510726D01*
X124445918Y-127509828D01*
X124434527Y-127497340D01*
X123773823Y-126772999D01*
X123773813Y-126772986D01*
X123772830Y-126771909D01*
X123772830Y-126771907D01*
X123744173Y-126740495D01*
X123743731Y-126739982D01*
X123698717Y-126685027D01*
X123697836Y-126683826D01*
X123679423Y-126655709D01*
X123659144Y-126624742D01*
X123658398Y-126623458D01*
X123626150Y-126560486D01*
X123625835Y-126559827D01*
X123488999Y-126253398D01*
X123791918Y-126253398D01*
X123791918Y-126254004D01*
X123791918Y-126314069D01*
X123793661Y-126322832D01*
X123793930Y-126325563D01*
X123793930Y-126343043D01*
X123808369Y-126396931D01*
X123808577Y-126397823D01*
X123814753Y-126428873D01*
X123814755Y-126428878D01*
X123820559Y-126442890D01*
X123821147Y-126444620D01*
X123822933Y-126451285D01*
X123824632Y-126457622D01*
X123824633Y-126457625D01*
X123831354Y-126469265D01*
X123832164Y-126470907D01*
X123837972Y-126484929D01*
X123855568Y-126511263D01*
X123856051Y-126512041D01*
X123883938Y-126560343D01*
X123883940Y-126560345D01*
X123883941Y-126560347D01*
X123896299Y-126572705D01*
X123898036Y-126574821D01*
X123903007Y-126582260D01*
X123945904Y-126625157D01*
X123945908Y-126625160D01*
X123953339Y-126630125D01*
X123955456Y-126631862D01*
X123967817Y-126644223D01*
X123967819Y-126644225D01*
X123987711Y-126655709D01*
X124016134Y-126672119D01*
X124016887Y-126672586D01*
X124043234Y-126690191D01*
X124057263Y-126696001D01*
X124058890Y-126696804D01*
X124070544Y-126703533D01*
X124083537Y-126707014D01*
X124085264Y-126707600D01*
X124099289Y-126713410D01*
X124099290Y-126713410D01*
X124099292Y-126713411D01*
X124110594Y-126715658D01*
X124130355Y-126719588D01*
X124131203Y-126719786D01*
X124185121Y-126734234D01*
X124202600Y-126734234D01*
X124205331Y-126734503D01*
X124214094Y-126736246D01*
X124274766Y-126736246D01*
X124283529Y-126734503D01*
X124286260Y-126734234D01*
X124303736Y-126734234D01*
X124303739Y-126734234D01*
X124357662Y-126719784D01*
X124358496Y-126719590D01*
X124380005Y-126715312D01*
X124389568Y-126713411D01*
X124389576Y-126713408D01*
X124409116Y-126705998D01*
X124418316Y-126703533D01*
X124423482Y-126700550D01*
X124437654Y-126695176D01*
X125653332Y-125985211D01*
X130489438Y-123160889D01*
X130490556Y-123160189D01*
X130497421Y-123155897D01*
X130523756Y-123138299D01*
X130524487Y-123137843D01*
X130572838Y-123109929D01*
X130585200Y-123097565D01*
X130587312Y-123095832D01*
X130594748Y-123090865D01*
X130637651Y-123047962D01*
X130642618Y-123040526D01*
X130644351Y-123038414D01*
X130656714Y-123026053D01*
X130684633Y-122977694D01*
X130685089Y-122976964D01*
X130702680Y-122950638D01*
X130702682Y-122950634D01*
X130708489Y-122936616D01*
X130709299Y-122934972D01*
X130716024Y-122923326D01*
X130719505Y-122910328D01*
X130720087Y-122908612D01*
X130725900Y-122894583D01*
X130732081Y-122863504D01*
X130732274Y-122862677D01*
X130746725Y-122808749D01*
X130746725Y-122791271D01*
X130746994Y-122788540D01*
X130748737Y-122779777D01*
X130748737Y-122719102D01*
X130746994Y-122710339D01*
X130746725Y-122707608D01*
X130746725Y-122690134D01*
X130746725Y-122690131D01*
X130732276Y-122636208D01*
X130732080Y-122635367D01*
X130725900Y-122604297D01*
X130720091Y-122590276D01*
X130719504Y-122588544D01*
X130716025Y-122575558D01*
X130716024Y-122575555D01*
X130716024Y-122575554D01*
X130709297Y-122563903D01*
X130708491Y-122562271D01*
X130702682Y-122548245D01*
X130685080Y-122521902D01*
X130684613Y-122521149D01*
X130667466Y-122491449D01*
X130656716Y-122472829D01*
X130656714Y-122472827D01*
X130644354Y-122460467D01*
X130642617Y-122458350D01*
X130637652Y-122450919D01*
X130637649Y-122450915D01*
X130594751Y-122408017D01*
X130587312Y-122403046D01*
X130585196Y-122401309D01*
X130572838Y-122388951D01*
X130572836Y-122388950D01*
X130572834Y-122388948D01*
X130528298Y-122363235D01*
X130524528Y-122361058D01*
X130523754Y-122360578D01*
X130497420Y-122342982D01*
X130483398Y-122337174D01*
X130481756Y-122336364D01*
X130470116Y-122329643D01*
X130470113Y-122329642D01*
X130470112Y-122329641D01*
X130470111Y-122329641D01*
X130457111Y-122326157D01*
X130455384Y-122325570D01*
X130447703Y-122322389D01*
X130441369Y-122319765D01*
X130441364Y-122319763D01*
X130410314Y-122313587D01*
X130409422Y-122313379D01*
X130355534Y-122298940D01*
X130338055Y-122298940D01*
X130335324Y-122298671D01*
X130326561Y-122296928D01*
X130265889Y-122296928D01*
X130257126Y-122298671D01*
X130254395Y-122298940D01*
X130236915Y-122298940D01*
X130183026Y-122313379D01*
X130182134Y-122313587D01*
X130151086Y-122319762D01*
X130132197Y-122326924D01*
X130132196Y-122326923D01*
X130131516Y-122327180D01*
X130122339Y-122329641D01*
X130117173Y-122332621D01*
X130116114Y-122333024D01*
X130103001Y-122337997D01*
X130102995Y-122338000D01*
X124051216Y-125872284D01*
X124043230Y-125877279D01*
X124016898Y-125894872D01*
X124016121Y-125895355D01*
X123967817Y-125923244D01*
X123967816Y-125923245D01*
X123955457Y-125935603D01*
X123953338Y-125937342D01*
X123945906Y-125942309D01*
X123945901Y-125942313D01*
X123903009Y-125985205D01*
X123903005Y-125985210D01*
X123898038Y-125992642D01*
X123896299Y-125994761D01*
X123883941Y-126007120D01*
X123883940Y-126007121D01*
X123856051Y-126055425D01*
X123855568Y-126056202D01*
X123837974Y-126082534D01*
X123832166Y-126096555D01*
X123831357Y-126098194D01*
X123824634Y-126109841D01*
X123824631Y-126109848D01*
X123821150Y-126122837D01*
X123820562Y-126124569D01*
X123814753Y-126138593D01*
X123814753Y-126138594D01*
X123808577Y-126169643D01*
X123808369Y-126170535D01*
X123793930Y-126224424D01*
X123793930Y-126241903D01*
X123793682Y-126244412D01*
X123793694Y-126244465D01*
X123793683Y-126244520D01*
X123791918Y-126253398D01*
X123488999Y-126253398D01*
X120574648Y-119727016D01*
X120573922Y-119723944D01*
X120573807Y-119723973D01*
X120573477Y-119722631D01*
X120556117Y-119685516D01*
X120539407Y-119648095D01*
X120539405Y-119648093D01*
X120539405Y-119648092D01*
X120538610Y-119646970D01*
X120538706Y-119646901D01*
X120536857Y-119644338D01*
X119852260Y-118180669D01*
X119849005Y-118173709D01*
X119849005Y-118173708D01*
X119830371Y-118133870D01*
X119830101Y-118133415D01*
X119829957Y-118133106D01*
X119802087Y-118073482D01*
X119802082Y-118073475D01*
X119802081Y-118073472D01*
X119679564Y-117889166D01*
X119679554Y-117889154D01*
X119531006Y-117725117D01*
X119530996Y-117725107D01*
X119520998Y-117716928D01*
X119359689Y-117584960D01*
X119359688Y-117584959D01*
X119359684Y-117584956D01*
X119169455Y-117471840D01*
X119169446Y-117471835D01*
X118964521Y-117388260D01*
X118964506Y-117388255D01*
X118896330Y-117371714D01*
X118887676Y-117365395D01*
X118886026Y-117354808D01*
X118892345Y-117346154D01*
X118895305Y-117344794D01*
X118949580Y-117327160D01*
X119110935Y-117244945D01*
X119257442Y-117138502D01*
X119385494Y-117010450D01*
X119491937Y-116863943D01*
X119574152Y-116702588D01*
X119630112Y-116530358D01*
X119658441Y-116351495D01*
X119658441Y-116170403D01*
X119630112Y-115991540D01*
X119574152Y-115819310D01*
X119574151Y-115819309D01*
X119574151Y-115819307D01*
X119509013Y-115691468D01*
X119491937Y-115657955D01*
X119474002Y-115633270D01*
X119385495Y-115511449D01*
X119385488Y-115511441D01*
X119257448Y-115383401D01*
X119257440Y-115383394D01*
X119110947Y-115276961D01*
X119110939Y-115276956D01*
X119110935Y-115276953D01*
X119102592Y-115272702D01*
X118949582Y-115194738D01*
X118777350Y-115138778D01*
X118598487Y-115110449D01*
X118417395Y-115110449D01*
X118238531Y-115138778D01*
X118066299Y-115194738D01*
X117904950Y-115276951D01*
X117904934Y-115276961D01*
X117758441Y-115383394D01*
X117758433Y-115383401D01*
X117630393Y-115511441D01*
X117630386Y-115511449D01*
X117523953Y-115657942D01*
X117523943Y-115657958D01*
X117441730Y-115819307D01*
X117424427Y-115872561D01*
X117417468Y-115880709D01*
X117406786Y-115881550D01*
X117398638Y-115874591D01*
X117397760Y-115872446D01*
X117356025Y-115739879D01*
X117291684Y-115593105D01*
X117257334Y-115533301D01*
X117249348Y-115519395D01*
X117249346Y-115519392D01*
X117249346Y-115519390D01*
X117229781Y-115485321D01*
X117229767Y-115485302D01*
X116724691Y-114605880D01*
X116723317Y-114595255D01*
X116726931Y-114589011D01*
X116845494Y-114470450D01*
X116951937Y-114323943D01*
X117034152Y-114162588D01*
X117090112Y-113990358D01*
X117118441Y-113811495D01*
X117118441Y-113630403D01*
X117090112Y-113451540D01*
X117034152Y-113279310D01*
X117034151Y-113279309D01*
X117034151Y-113279307D01*
X116993044Y-113198632D01*
X116951937Y-113117955D01*
X116845494Y-112971448D01*
X116845488Y-112971441D01*
X116717448Y-112843401D01*
X116717440Y-112843394D01*
X116570947Y-112736961D01*
X116570939Y-112736956D01*
X116570935Y-112736953D01*
X116556906Y-112729805D01*
X116409582Y-112654738D01*
X116237350Y-112598778D01*
X116058487Y-112570449D01*
X115877395Y-112570449D01*
X115698531Y-112598778D01*
X115526299Y-112654738D01*
X115364950Y-112736951D01*
X115364934Y-112736961D01*
X115218441Y-112843394D01*
X115218433Y-112843401D01*
X115090393Y-112971441D01*
X115090386Y-112971449D01*
X114983953Y-113117942D01*
X114983943Y-113117958D01*
X114901730Y-113279307D01*
X114845770Y-113451539D01*
X114817441Y-113630403D01*
X114817441Y-113811494D01*
X114845770Y-113990358D01*
X114901730Y-114162590D01*
X114983943Y-114323939D01*
X114983953Y-114323955D01*
X115090386Y-114470448D01*
X115090393Y-114470456D01*
X115218433Y-114598496D01*
X115218441Y-114598503D01*
X115364934Y-114704936D01*
X115364938Y-114704938D01*
X115364947Y-114704945D01*
X115445624Y-114746052D01*
X115526299Y-114787159D01*
X115526301Y-114787159D01*
X115526302Y-114787160D01*
X115698532Y-114843120D01*
X115877395Y-114871449D01*
X116058487Y-114871449D01*
X116237350Y-114843120D01*
X116333209Y-114811973D01*
X116343890Y-114812814D01*
X116349674Y-114818316D01*
X116454659Y-115001112D01*
X116564073Y-115191622D01*
X116610640Y-115272702D01*
X116612015Y-115283328D01*
X116605472Y-115291814D01*
X116594846Y-115293189D01*
X116590271Y-115291000D01*
X116570947Y-115276961D01*
X116570939Y-115276956D01*
X116570935Y-115276953D01*
X116562592Y-115272702D01*
X116409582Y-115194738D01*
X116237350Y-115138778D01*
X116058487Y-115110449D01*
X115877395Y-115110449D01*
X115698531Y-115138778D01*
X115526299Y-115194738D01*
X115364950Y-115276951D01*
X115364934Y-115276961D01*
X115218441Y-115383394D01*
X115218433Y-115383401D01*
X115090393Y-115511441D01*
X115090386Y-115511449D01*
X114983953Y-115657942D01*
X114983943Y-115657958D01*
X114901730Y-115819307D01*
X114845770Y-115991539D01*
X114820541Y-116150825D01*
X114814942Y-116159961D01*
X114804523Y-116162463D01*
X114795387Y-116156864D01*
X114792715Y-116148864D01*
X114598660Y-104201291D01*
X114602599Y-104191328D01*
X114612431Y-104187067D01*
X114622395Y-104191006D01*
X114625729Y-104196053D01*
X114626618Y-104198372D01*
X114626619Y-104198374D01*
X114684112Y-104298284D01*
X114684118Y-104298295D01*
X114705919Y-104336254D01*
X114705923Y-104336261D01*
X115211188Y-105216015D01*
X115212563Y-105226641D01*
X115208948Y-105232886D01*
X115090387Y-105351448D01*
X115090386Y-105351449D01*
X114983953Y-105497942D01*
X114983943Y-105497958D01*
X114901730Y-105659307D01*
X114845770Y-105831539D01*
X114817441Y-106010403D01*
X114817441Y-106191494D01*
X114845770Y-106370358D01*
X114901730Y-106542590D01*
X114983943Y-106703939D01*
X114983953Y-106703955D01*
X115090386Y-106850448D01*
X115090393Y-106850456D01*
X115218433Y-106978496D01*
X115218441Y-106978503D01*
X115364934Y-107084936D01*
X115364938Y-107084938D01*
X115364947Y-107084945D01*
X115445624Y-107126052D01*
X115526299Y-107167159D01*
X115526301Y-107167159D01*
X115526302Y-107167160D01*
X115698532Y-107223120D01*
X115877395Y-107251449D01*
X116058487Y-107251449D01*
X116237350Y-107223120D01*
X116409580Y-107167160D01*
X116570935Y-107084945D01*
X116717442Y-106978502D01*
X116845494Y-106850450D01*
X116951937Y-106703943D01*
X117034152Y-106542588D01*
X117051966Y-106487759D01*
X117058924Y-106479613D01*
X117069606Y-106478772D01*
X117077754Y-106485731D01*
X117078867Y-106488711D01*
X117098918Y-106569407D01*
X117187521Y-106779936D01*
X117188000Y-106781072D01*
X117188001Y-106781073D01*
X117308643Y-106976451D01*
X117308651Y-106976462D01*
X117457982Y-107150908D01*
X117632418Y-107300235D01*
X117632427Y-107300241D01*
X117632432Y-107300246D01*
X117827823Y-107420897D01*
X118039481Y-107509978D01*
X118120165Y-107530026D01*
X118128784Y-107536393D01*
X118130376Y-107546989D01*
X118124009Y-107555608D01*
X118121115Y-107556928D01*
X118066299Y-107574738D01*
X117904950Y-107656951D01*
X117904934Y-107656961D01*
X117758441Y-107763394D01*
X117758433Y-107763401D01*
X117630393Y-107891441D01*
X117630386Y-107891449D01*
X117523953Y-108037942D01*
X117523943Y-108037958D01*
X117441730Y-108199307D01*
X117385770Y-108371539D01*
X117357441Y-108550403D01*
X117357441Y-108731494D01*
X117385770Y-108910358D01*
X117441730Y-109082590D01*
X117523943Y-109243939D01*
X117523953Y-109243955D01*
X117537992Y-109263279D01*
X117540494Y-109273698D01*
X117534895Y-109282834D01*
X117524476Y-109285336D01*
X117519696Y-109283648D01*
X117169614Y-109082588D01*
X117065308Y-109022682D01*
X117058765Y-109014196D01*
X117058965Y-109006216D01*
X117090112Y-108910358D01*
X117118441Y-108731495D01*
X117118441Y-108550403D01*
X117090112Y-108371540D01*
X117034152Y-108199310D01*
X117034151Y-108199309D01*
X117034151Y-108199307D01*
X116993044Y-108118632D01*
X116951937Y-108037955D01*
X116845494Y-107891448D01*
X116845488Y-107891441D01*
X116717448Y-107763401D01*
X116717440Y-107763394D01*
X116570947Y-107656961D01*
X116570939Y-107656956D01*
X116570935Y-107656953D01*
X116565113Y-107653986D01*
X116409582Y-107574738D01*
X116237350Y-107518778D01*
X116058487Y-107490449D01*
X115877395Y-107490449D01*
X115698531Y-107518778D01*
X115526299Y-107574738D01*
X115364950Y-107656951D01*
X115364934Y-107656961D01*
X115218441Y-107763394D01*
X115218433Y-107763401D01*
X115090393Y-107891441D01*
X115090386Y-107891449D01*
X114983953Y-108037942D01*
X114983943Y-108037958D01*
X114901730Y-108199307D01*
X114845770Y-108371539D01*
X114817441Y-108550403D01*
X114817441Y-108731494D01*
X114845770Y-108910358D01*
X114901730Y-109082590D01*
X114983943Y-109243939D01*
X114983953Y-109243955D01*
X115090386Y-109390448D01*
X115090393Y-109390456D01*
X115218433Y-109518496D01*
X115218441Y-109518503D01*
X115364934Y-109624936D01*
X115364938Y-109624938D01*
X115364947Y-109624945D01*
X115445624Y-109666052D01*
X115526299Y-109707159D01*
X115526301Y-109707159D01*
X115526302Y-109707160D01*
X115698532Y-109763120D01*
X115877395Y-109791449D01*
X116058487Y-109791449D01*
X116237350Y-109763120D01*
X116409580Y-109707160D01*
X116570935Y-109624945D01*
X116717442Y-109518502D01*
X116836002Y-109399940D01*
X116845901Y-109395840D01*
X116852872Y-109397699D01*
X117538458Y-109791449D01*
X117732625Y-109902964D01*
X117732641Y-109902975D01*
X117765436Y-109921809D01*
X117765450Y-109921827D01*
X117770603Y-109924786D01*
X117770603Y-109924787D01*
X117840086Y-109964699D01*
X117986861Y-110029047D01*
X118119400Y-110070777D01*
X118127610Y-110077660D01*
X118128549Y-110088334D01*
X118121665Y-110096545D01*
X118119521Y-110097445D01*
X118066299Y-110114738D01*
X117904950Y-110196951D01*
X117904934Y-110196961D01*
X117758441Y-110303394D01*
X117758433Y-110303401D01*
X117630393Y-110431441D01*
X117630386Y-110431449D01*
X117523953Y-110577942D01*
X117523943Y-110577958D01*
X117441730Y-110739307D01*
X117385770Y-110911539D01*
X117357441Y-111090403D01*
X117357441Y-111271494D01*
X117385770Y-111450358D01*
X117441730Y-111622590D01*
X117523943Y-111783939D01*
X117523953Y-111783955D01*
X117537992Y-111803279D01*
X117540494Y-111813698D01*
X117534895Y-111822834D01*
X117524476Y-111825336D01*
X117519696Y-111823648D01*
X117169614Y-111622588D01*
X117065308Y-111562682D01*
X117058765Y-111554196D01*
X117058965Y-111546216D01*
X117090112Y-111450358D01*
X117118441Y-111271495D01*
X117118441Y-111090403D01*
X117090112Y-110911540D01*
X117034152Y-110739310D01*
X117034151Y-110739309D01*
X117034151Y-110739307D01*
X116993044Y-110658632D01*
X116951937Y-110577955D01*
X116845494Y-110431448D01*
X116845488Y-110431441D01*
X116717448Y-110303401D01*
X116717440Y-110303394D01*
X116570947Y-110196961D01*
X116570939Y-110196956D01*
X116570935Y-110196953D01*
X116515441Y-110168677D01*
X116409582Y-110114738D01*
X116237350Y-110058778D01*
X116058487Y-110030449D01*
X115877395Y-110030449D01*
X115698531Y-110058778D01*
X115526299Y-110114738D01*
X115364950Y-110196951D01*
X115364934Y-110196961D01*
X115218441Y-110303394D01*
X115218433Y-110303401D01*
X115090393Y-110431441D01*
X115090386Y-110431449D01*
X114983953Y-110577942D01*
X114983943Y-110577958D01*
X114901730Y-110739307D01*
X114845770Y-110911539D01*
X114817441Y-111090403D01*
X114817441Y-111271494D01*
X114845770Y-111450358D01*
X114901730Y-111622590D01*
X114983943Y-111783939D01*
X114983953Y-111783955D01*
X115090386Y-111930448D01*
X115090393Y-111930456D01*
X115218433Y-112058496D01*
X115218441Y-112058503D01*
X115364934Y-112164936D01*
X115364938Y-112164938D01*
X115364947Y-112164945D01*
X115445624Y-112206052D01*
X115526299Y-112247159D01*
X115526301Y-112247159D01*
X115526302Y-112247160D01*
X115698532Y-112303120D01*
X115877395Y-112331449D01*
X116058487Y-112331449D01*
X116237350Y-112303120D01*
X116409580Y-112247160D01*
X116570935Y-112164945D01*
X116717442Y-112058502D01*
X116836002Y-111939940D01*
X116845901Y-111935840D01*
X116852872Y-111937699D01*
X117391695Y-112247159D01*
X117732625Y-112442964D01*
X117732641Y-112442975D01*
X117765436Y-112461809D01*
X117765450Y-112461827D01*
X117770603Y-112464786D01*
X117770603Y-112464787D01*
X117840086Y-112504699D01*
X117986861Y-112569047D01*
X118119400Y-112610777D01*
X118127610Y-112617660D01*
X118128549Y-112628334D01*
X118121665Y-112636545D01*
X118119521Y-112637445D01*
X118066299Y-112654738D01*
X117904950Y-112736951D01*
X117904934Y-112736961D01*
X117758441Y-112843394D01*
X117758433Y-112843401D01*
X117630393Y-112971441D01*
X117630386Y-112971449D01*
X117523953Y-113117942D01*
X117523943Y-113117958D01*
X117441730Y-113279307D01*
X117385770Y-113451539D01*
X117357441Y-113630403D01*
X117357441Y-113811494D01*
X117385770Y-113990358D01*
X117441730Y-114162590D01*
X117523943Y-114323939D01*
X117523953Y-114323955D01*
X117630386Y-114470448D01*
X117630393Y-114470456D01*
X117758433Y-114598496D01*
X117758441Y-114598503D01*
X117904934Y-114704936D01*
X117904938Y-114704938D01*
X117904947Y-114704945D01*
X117985624Y-114746052D01*
X118066299Y-114787159D01*
X118066301Y-114787159D01*
X118066302Y-114787160D01*
X118238532Y-114843120D01*
X118417395Y-114871449D01*
X118598487Y-114871449D01*
X118777350Y-114843120D01*
X118949580Y-114787160D01*
X119110935Y-114704945D01*
X119257442Y-114598502D01*
X119385494Y-114470450D01*
X119491937Y-114323943D01*
X119574152Y-114162588D01*
X119630112Y-113990358D01*
X119658441Y-113811495D01*
X119658441Y-113663600D01*
X119662542Y-113653701D01*
X119672441Y-113649600D01*
X119682340Y-113653701D01*
X119684542Y-113656559D01*
X119774637Y-113811494D01*
X120127743Y-114418724D01*
X120129322Y-114422795D01*
X120130725Y-114429266D01*
X120130725Y-114429267D01*
X120149956Y-114457010D01*
X120150552Y-114457948D01*
X120167510Y-114487110D01*
X120172776Y-114491125D01*
X120175791Y-114494280D01*
X120179567Y-114499726D01*
X120207956Y-114518001D01*
X120208851Y-114518628D01*
X120235688Y-114539088D01*
X120242085Y-114540780D01*
X120246080Y-114542541D01*
X120318266Y-114589009D01*
X124722987Y-117424423D01*
X124724267Y-117424927D01*
X124724264Y-117424933D01*
X124727069Y-117425942D01*
X124756122Y-117442277D01*
X124768478Y-117449225D01*
X124814992Y-117471835D01*
X124825227Y-117476810D01*
X124833497Y-117480234D01*
X124835907Y-117481522D01*
X124852761Y-117492784D01*
X124870266Y-117496265D01*
X124872630Y-117496736D01*
X124875257Y-117497533D01*
X124881123Y-117499962D01*
X124893979Y-117505288D01*
X124914243Y-117505288D01*
X124916974Y-117505557D01*
X125202169Y-117562286D01*
X125203864Y-117562736D01*
X125230797Y-117571731D01*
X125242843Y-117570881D01*
X125246555Y-117571114D01*
X125258407Y-117573473D01*
X125286267Y-117567930D01*
X125287995Y-117567699D01*
X127569672Y-117406900D01*
X127579835Y-117410294D01*
X127582780Y-117413865D01*
X127597916Y-117440082D01*
X127597918Y-117440085D01*
X127681792Y-117523959D01*
X127681795Y-117523961D01*
X127681797Y-117523962D01*
X127784521Y-117583270D01*
X127899098Y-117613971D01*
X127899101Y-117613971D01*
X128017713Y-117613971D01*
X128017716Y-117613971D01*
X128132293Y-117583270D01*
X128235020Y-117523960D01*
X128318896Y-117440084D01*
X128378206Y-117337357D01*
X128408907Y-117222780D01*
X128408907Y-117104162D01*
X128378206Y-116989585D01*
X128345692Y-116933270D01*
X128318897Y-116886859D01*
X128318895Y-116886856D01*
X128235021Y-116802982D01*
X128235018Y-116802980D01*
X128132297Y-116743674D01*
X128132295Y-116743673D01*
X128132293Y-116743672D01*
X128017716Y-116712971D01*
X127899098Y-116712971D01*
X127899097Y-116712971D01*
X127784524Y-116743671D01*
X127784516Y-116743674D01*
X127681795Y-116802980D01*
X127681792Y-116802982D01*
X127597924Y-116886850D01*
X127597915Y-116886861D01*
X127549888Y-116970045D01*
X127541387Y-116976568D01*
X127538748Y-116977010D01*
X125273969Y-117136619D01*
X125270254Y-117136385D01*
X125004041Y-117083432D01*
X125001030Y-117082469D01*
X124985663Y-117075558D01*
X124984911Y-117075193D01*
X124952577Y-117058264D01*
X124951848Y-117057854D01*
X124920361Y-117038891D01*
X124920006Y-117038670D01*
X124907899Y-117030876D01*
X124884191Y-117015614D01*
X124884189Y-117015613D01*
X124883454Y-117015140D01*
X124883450Y-117015138D01*
X124843746Y-116989580D01*
X121040495Y-114541346D01*
X120495320Y-114190405D01*
X120490795Y-114185671D01*
X120477373Y-114162590D01*
X119792290Y-112984464D01*
X119787790Y-112976724D01*
X119787789Y-112976724D01*
X119785909Y-112973490D01*
X119785908Y-112973489D01*
X119783681Y-112969659D01*
X119766236Y-112939659D01*
X119766234Y-112939657D01*
X119765675Y-112938696D01*
X119765366Y-112938267D01*
X119736887Y-112889280D01*
X119612315Y-112729805D01*
X119467203Y-112588761D01*
X119467199Y-112588758D01*
X119467197Y-112588756D01*
X119304257Y-112468775D01*
X119304246Y-112468768D01*
X119152509Y-112386223D01*
X119126491Y-112372069D01*
X119126489Y-112372068D01*
X119126487Y-112372067D01*
X118944284Y-112303120D01*
X118937226Y-112300449D01*
X118921008Y-112296732D01*
X118897655Y-112291380D01*
X118888922Y-112285172D01*
X118887137Y-112274606D01*
X118893345Y-112265873D01*
X118896450Y-112264422D01*
X118949580Y-112247160D01*
X119110935Y-112164945D01*
X119257442Y-112058502D01*
X119385494Y-111930450D01*
X119491937Y-111783943D01*
X119574152Y-111622588D01*
X119630112Y-111450358D01*
X119658441Y-111271495D01*
X119658441Y-111090403D01*
X119630112Y-110911540D01*
X119610742Y-110851925D01*
X119611583Y-110841246D01*
X119619731Y-110834287D01*
X119630413Y-110835128D01*
X119634147Y-110837897D01*
X120157981Y-111382521D01*
X120158105Y-111382651D01*
X124811468Y-116351495D01*
X124824771Y-116365699D01*
X124828544Y-116375728D01*
X124828075Y-116378892D01*
X124807907Y-116454161D01*
X124807907Y-116572780D01*
X124838607Y-116687353D01*
X124838610Y-116687361D01*
X124897916Y-116790082D01*
X124897918Y-116790085D01*
X124981792Y-116873959D01*
X124981795Y-116873961D01*
X125062630Y-116920631D01*
X125084521Y-116933270D01*
X125199098Y-116963971D01*
X125199101Y-116963971D01*
X125317713Y-116963971D01*
X125317716Y-116963971D01*
X125432293Y-116933270D01*
X125535020Y-116873960D01*
X125618896Y-116790084D01*
X125678206Y-116687357D01*
X125708907Y-116572780D01*
X125708907Y-116454162D01*
X125708907Y-116454161D01*
X130407907Y-116454161D01*
X130407907Y-116572780D01*
X130438607Y-116687353D01*
X130438610Y-116687361D01*
X130497916Y-116790082D01*
X130497918Y-116790085D01*
X130581792Y-116873959D01*
X130581795Y-116873961D01*
X130662630Y-116920631D01*
X130684521Y-116933270D01*
X130799098Y-116963971D01*
X130799101Y-116963971D01*
X130917713Y-116963971D01*
X130917716Y-116963971D01*
X131032293Y-116933270D01*
X131135020Y-116873960D01*
X131218896Y-116790084D01*
X131242889Y-116748526D01*
X131244425Y-116747347D01*
X131245180Y-116745561D01*
X131248396Y-116744300D01*
X131251388Y-116742005D01*
X131255107Y-116741528D01*
X131255229Y-116741528D01*
X131268970Y-116741960D01*
X131269844Y-116741628D01*
X131272115Y-116741644D01*
X131272152Y-116741659D01*
X131272330Y-116741647D01*
X131288507Y-116742005D01*
X133265532Y-116785758D01*
X133275337Y-116790077D01*
X133279218Y-116800065D01*
X133275121Y-116809654D01*
X133197915Y-116886860D01*
X133138610Y-116989580D01*
X133138607Y-116989588D01*
X133113462Y-117083432D01*
X133107907Y-117104162D01*
X133107907Y-117222780D01*
X133135875Y-117327159D01*
X133138607Y-117337353D01*
X133138610Y-117337361D01*
X133197916Y-117440082D01*
X133197918Y-117440085D01*
X133281792Y-117523959D01*
X133281795Y-117523961D01*
X133281797Y-117523962D01*
X133384521Y-117583270D01*
X133499098Y-117613971D01*
X133499101Y-117613971D01*
X133617713Y-117613971D01*
X133617716Y-117613971D01*
X133732293Y-117583270D01*
X133835020Y-117523960D01*
X133873214Y-117485765D01*
X133881709Y-117481735D01*
X133892512Y-117480647D01*
X133895143Y-117480633D01*
X159615511Y-119761817D01*
X161475910Y-119926819D01*
X161485408Y-119931778D01*
X161488196Y-119937140D01*
X161497351Y-119971307D01*
X161503703Y-119995009D01*
X161503704Y-119995011D01*
X161503705Y-119995013D01*
X161563011Y-120097734D01*
X161563013Y-120097737D01*
X161646887Y-120181611D01*
X161646890Y-120181613D01*
X161696018Y-120209977D01*
X161749616Y-120240922D01*
X161864193Y-120271623D01*
X161864196Y-120271623D01*
X161982808Y-120271623D01*
X161982811Y-120271623D01*
X162097388Y-120240922D01*
X162200115Y-120181612D01*
X162283991Y-120097736D01*
X162343301Y-119995009D01*
X162374002Y-119880432D01*
X162374002Y-119761814D01*
X162343301Y-119647237D01*
X162287424Y-119550456D01*
X162283992Y-119544511D01*
X162283990Y-119544508D01*
X162200116Y-119460634D01*
X162200113Y-119460632D01*
X162097392Y-119401326D01*
X162097390Y-119401325D01*
X162097388Y-119401324D01*
X161982811Y-119370623D01*
X161864193Y-119370623D01*
X161864192Y-119370623D01*
X161749619Y-119401323D01*
X161749611Y-119401326D01*
X161646891Y-119460631D01*
X161608694Y-119498827D01*
X161600197Y-119502857D01*
X161589399Y-119503944D01*
X161586760Y-119503959D01*
X134005996Y-117057773D01*
X133996498Y-117052814D01*
X133993711Y-117047454D01*
X133978206Y-116989585D01*
X133945692Y-116933270D01*
X133918897Y-116886859D01*
X133918895Y-116886856D01*
X133854963Y-116822924D01*
X133850862Y-116813025D01*
X133854963Y-116803126D01*
X133864862Y-116799025D01*
X133865135Y-116799027D01*
X161481261Y-117410190D01*
X161491066Y-117414509D01*
X161494473Y-117420563D01*
X161503703Y-117455009D01*
X161503704Y-117455011D01*
X161503705Y-117455013D01*
X161563011Y-117557734D01*
X161563013Y-117557737D01*
X161646887Y-117641611D01*
X161646890Y-117641613D01*
X161696018Y-117669977D01*
X161749616Y-117700922D01*
X161864193Y-117731623D01*
X161864196Y-117731623D01*
X161982808Y-117731623D01*
X161982811Y-117731623D01*
X162097388Y-117700922D01*
X162200115Y-117641612D01*
X162283991Y-117557736D01*
X162343301Y-117455009D01*
X162374002Y-117340432D01*
X162374002Y-117221814D01*
X162343301Y-117107237D01*
X162325011Y-117075558D01*
X162283992Y-117004511D01*
X162283990Y-117004508D01*
X162200116Y-116920634D01*
X162200113Y-116920632D01*
X162097392Y-116861326D01*
X162097390Y-116861325D01*
X162097388Y-116861324D01*
X161982811Y-116830623D01*
X161864193Y-116830623D01*
X161864192Y-116830623D01*
X161749619Y-116861323D01*
X161749611Y-116861326D01*
X161646891Y-116920631D01*
X161591525Y-116975996D01*
X161581626Y-116980096D01*
X161578459Y-116979733D01*
X161565565Y-116976739D01*
X161565563Y-116976738D01*
X161544464Y-116980240D01*
X161541862Y-116980426D01*
X131269170Y-116310471D01*
X131259364Y-116306152D01*
X131257359Y-116303478D01*
X131218896Y-116236858D01*
X131218895Y-116236856D01*
X131135021Y-116152982D01*
X131135018Y-116152980D01*
X131032297Y-116093674D01*
X131032295Y-116093673D01*
X131032293Y-116093672D01*
X130917716Y-116062971D01*
X130799098Y-116062971D01*
X130799097Y-116062971D01*
X130684524Y-116093671D01*
X130684516Y-116093674D01*
X130581795Y-116152980D01*
X130581792Y-116152982D01*
X130497918Y-116236856D01*
X130497916Y-116236859D01*
X130438610Y-116339580D01*
X130438607Y-116339588D01*
X130407907Y-116454161D01*
X125708907Y-116454161D01*
X125678206Y-116339585D01*
X125645692Y-116283270D01*
X125618897Y-116236859D01*
X125618895Y-116236856D01*
X125535021Y-116152982D01*
X125535018Y-116152980D01*
X125432297Y-116093674D01*
X125432295Y-116093673D01*
X125432293Y-116093672D01*
X125317716Y-116062971D01*
X125199098Y-116062971D01*
X125199097Y-116062971D01*
X125153371Y-116075223D01*
X125142748Y-116073824D01*
X125139529Y-116071270D01*
X120501765Y-111119083D01*
X120500312Y-111116781D01*
X120500130Y-111116898D01*
X120499385Y-111115735D01*
X120470763Y-111085977D01*
X120470635Y-111085842D01*
X120442344Y-111055633D01*
X120441222Y-111054829D01*
X120441346Y-111054655D01*
X120439123Y-111053081D01*
X119606580Y-110187494D01*
X119588481Y-110168677D01*
X119544395Y-110122841D01*
X119544232Y-110122702D01*
X119501343Y-110078129D01*
X119501344Y-110078129D01*
X119355686Y-109964701D01*
X119333766Y-109947631D01*
X119333762Y-109947629D01*
X119333760Y-109947627D01*
X119149291Y-109842391D01*
X119149289Y-109842390D01*
X118951666Y-109764552D01*
X118896833Y-109751597D01*
X118888142Y-109745330D01*
X118886427Y-109734753D01*
X118892694Y-109726062D01*
X118895721Y-109724658D01*
X118949580Y-109707160D01*
X119110935Y-109624945D01*
X119257442Y-109518502D01*
X119385494Y-109390450D01*
X119491937Y-109243943D01*
X119574152Y-109082588D01*
X119630112Y-108910358D01*
X119658441Y-108731495D01*
X119658441Y-108550403D01*
X119635113Y-108403115D01*
X119637615Y-108392697D01*
X119646751Y-108387098D01*
X119657170Y-108389600D01*
X119659781Y-108392067D01*
X120083155Y-108910358D01*
X120301752Y-109177962D01*
X120301970Y-109178236D01*
X122601863Y-112141817D01*
X124823924Y-115005107D01*
X124837989Y-115023230D01*
X124840819Y-115033564D01*
X124839056Y-115038809D01*
X124838606Y-115039588D01*
X124807907Y-115154161D01*
X124807907Y-115272780D01*
X124838607Y-115387353D01*
X124838610Y-115387361D01*
X124897916Y-115490082D01*
X124897918Y-115490085D01*
X124981792Y-115573959D01*
X124981795Y-115573961D01*
X125062812Y-115620736D01*
X125084521Y-115633270D01*
X125199098Y-115663971D01*
X125199101Y-115663971D01*
X125317713Y-115663971D01*
X125317716Y-115663971D01*
X125432293Y-115633270D01*
X125535020Y-115573960D01*
X125618896Y-115490084D01*
X125678206Y-115387357D01*
X125708907Y-115272780D01*
X125708907Y-115154162D01*
X125678206Y-115039585D01*
X125618896Y-114936858D01*
X125618895Y-114936856D01*
X125535021Y-114852982D01*
X125535018Y-114852980D01*
X125432297Y-114793674D01*
X125432295Y-114793673D01*
X125432293Y-114793672D01*
X125317716Y-114762971D01*
X125199098Y-114762971D01*
X125199091Y-114762971D01*
X125193572Y-114764450D01*
X125182949Y-114763051D01*
X125178890Y-114759510D01*
X125136545Y-114704946D01*
X120666860Y-108945430D01*
X120664514Y-108940878D01*
X120664461Y-108940701D01*
X120639152Y-108909718D01*
X120638935Y-108909445D01*
X120614416Y-108877851D01*
X120614414Y-108877848D01*
X120614409Y-108877845D01*
X120614248Y-108877753D01*
X120610343Y-108874450D01*
X119626603Y-107670164D01*
X119626425Y-107669985D01*
X119592225Y-107628078D01*
X119448525Y-107493385D01*
X119448518Y-107493379D01*
X119448515Y-107493377D01*
X119448512Y-107493374D01*
X119288222Y-107378891D01*
X119288221Y-107378890D01*
X119288219Y-107378889D01*
X119114177Y-107286649D01*
X118929454Y-107218275D01*
X118929455Y-107218275D01*
X118898199Y-107211231D01*
X118889443Y-107205055D01*
X118887620Y-107194496D01*
X118893796Y-107185740D01*
X118896947Y-107184260D01*
X118949580Y-107167160D01*
X119110935Y-107084945D01*
X119257442Y-106978502D01*
X119385494Y-106850450D01*
X119491937Y-106703943D01*
X119574152Y-106542588D01*
X119630112Y-106370358D01*
X119658441Y-106191495D01*
X119658441Y-106010403D01*
X119634394Y-105858578D01*
X119636896Y-105848161D01*
X119646032Y-105842562D01*
X119656451Y-105845064D01*
X119659026Y-105847486D01*
X120179968Y-106479613D01*
X120565340Y-106947237D01*
X120580927Y-106966150D01*
X120581056Y-106966309D01*
X125001741Y-112504701D01*
X127535521Y-115679111D01*
X127538492Y-115689406D01*
X127538102Y-115691468D01*
X127507907Y-115804161D01*
X127507907Y-115922780D01*
X127538607Y-116037353D01*
X127538610Y-116037361D01*
X127597916Y-116140082D01*
X127597918Y-116140085D01*
X127681792Y-116223959D01*
X127681795Y-116223961D01*
X127762812Y-116270736D01*
X127784521Y-116283270D01*
X127899098Y-116313971D01*
X127899101Y-116313971D01*
X128017713Y-116313971D01*
X128017716Y-116313971D01*
X128132293Y-116283270D01*
X128235020Y-116223960D01*
X128318896Y-116140084D01*
X128378206Y-116037357D01*
X128408907Y-115922780D01*
X128408907Y-115804162D01*
X128408907Y-115804161D01*
X133107907Y-115804161D01*
X133107907Y-115922780D01*
X133138607Y-116037353D01*
X133138610Y-116037361D01*
X133197916Y-116140082D01*
X133197918Y-116140085D01*
X133281792Y-116223959D01*
X133281795Y-116223961D01*
X133362812Y-116270736D01*
X133384521Y-116283270D01*
X133499098Y-116313971D01*
X133499101Y-116313971D01*
X133617713Y-116313971D01*
X133617716Y-116313971D01*
X133732293Y-116283270D01*
X133835020Y-116223960D01*
X133918896Y-116140084D01*
X133918900Y-116140076D01*
X133919454Y-116139356D01*
X133919914Y-116139709D01*
X133926946Y-116134278D01*
X133929986Y-116133803D01*
X161489651Y-114904993D01*
X161499722Y-114908648D01*
X161503129Y-114914254D01*
X161503353Y-114914162D01*
X161503705Y-114915013D01*
X161563011Y-115017734D01*
X161563013Y-115017737D01*
X161646887Y-115101611D01*
X161646890Y-115101613D01*
X161711262Y-115138778D01*
X161749616Y-115160922D01*
X161864193Y-115191623D01*
X161864196Y-115191623D01*
X161982808Y-115191623D01*
X161982811Y-115191623D01*
X162097388Y-115160922D01*
X162200115Y-115101612D01*
X162283991Y-115017736D01*
X162343301Y-114915009D01*
X162374002Y-114800432D01*
X162374002Y-114681814D01*
X162343301Y-114567237D01*
X162315240Y-114518634D01*
X162283992Y-114464511D01*
X162283990Y-114464508D01*
X162200116Y-114380634D01*
X162200113Y-114380632D01*
X162097392Y-114321326D01*
X162097390Y-114321325D01*
X162097388Y-114321324D01*
X161982811Y-114290623D01*
X161864193Y-114290623D01*
X161864192Y-114290623D01*
X161749619Y-114321323D01*
X161749611Y-114321326D01*
X161646890Y-114380632D01*
X161646887Y-114380634D01*
X161563019Y-114464502D01*
X161562456Y-114465237D01*
X161562033Y-114464913D01*
X161554783Y-114470362D01*
X161551920Y-114470789D01*
X133992259Y-115699598D01*
X133982186Y-115695943D01*
X133978788Y-115690342D01*
X133978559Y-115690437D01*
X133978205Y-115689583D01*
X133918897Y-115586859D01*
X133918895Y-115586856D01*
X133835021Y-115502982D01*
X133835018Y-115502980D01*
X133732297Y-115443674D01*
X133732295Y-115443673D01*
X133732293Y-115443672D01*
X133617716Y-115412971D01*
X133499098Y-115412971D01*
X133499097Y-115412971D01*
X133384524Y-115443671D01*
X133384516Y-115443674D01*
X133281795Y-115502980D01*
X133281792Y-115502982D01*
X133197918Y-115586856D01*
X133197916Y-115586859D01*
X133138610Y-115689580D01*
X133138607Y-115689588D01*
X133107907Y-115804161D01*
X128408907Y-115804161D01*
X128378206Y-115689585D01*
X128345692Y-115633270D01*
X128318897Y-115586859D01*
X128318895Y-115586856D01*
X128235021Y-115502982D01*
X128235018Y-115502980D01*
X128132297Y-115443674D01*
X128132295Y-115443673D01*
X128132293Y-115443672D01*
X128017716Y-115412971D01*
X127899098Y-115412971D01*
X127899091Y-115412971D01*
X127887726Y-115416016D01*
X127877103Y-115414617D01*
X127873162Y-115411227D01*
X127667975Y-115154161D01*
X130407907Y-115154161D01*
X130407907Y-115272780D01*
X130438607Y-115387353D01*
X130438610Y-115387361D01*
X130497916Y-115490082D01*
X130497918Y-115490085D01*
X130581792Y-115573959D01*
X130581795Y-115573961D01*
X130662812Y-115620736D01*
X130684521Y-115633270D01*
X130799098Y-115663971D01*
X130799101Y-115663971D01*
X130917713Y-115663971D01*
X130917716Y-115663971D01*
X131032293Y-115633270D01*
X131135020Y-115573960D01*
X131218896Y-115490084D01*
X131242888Y-115448527D01*
X131251387Y-115442005D01*
X131251994Y-115441857D01*
X131253701Y-115441480D01*
X131261745Y-115441733D01*
X131274639Y-115436859D01*
X131275625Y-115436642D01*
X131275917Y-115436693D01*
X131277233Y-115436384D01*
X161501173Y-112387131D01*
X161511433Y-112390217D01*
X161514701Y-112394060D01*
X161563011Y-112477734D01*
X161563013Y-112477737D01*
X161646887Y-112561611D01*
X161646890Y-112561613D01*
X161693912Y-112588761D01*
X161749616Y-112620922D01*
X161864193Y-112651623D01*
X161864196Y-112651623D01*
X161982808Y-112651623D01*
X161982811Y-112651623D01*
X162097388Y-112620922D01*
X162200115Y-112561612D01*
X162283991Y-112477736D01*
X162343301Y-112375009D01*
X162374002Y-112260432D01*
X162374002Y-112141814D01*
X162343301Y-112027237D01*
X162330767Y-112005528D01*
X162283992Y-111924511D01*
X162283990Y-111924508D01*
X162200116Y-111840634D01*
X162200113Y-111840632D01*
X162097392Y-111781326D01*
X162097390Y-111781325D01*
X162097388Y-111781324D01*
X161982811Y-111750623D01*
X161864193Y-111750623D01*
X161864192Y-111750623D01*
X161749619Y-111781323D01*
X161749611Y-111781326D01*
X161646890Y-111840632D01*
X161646887Y-111840634D01*
X161563019Y-111924502D01*
X161563012Y-111924511D01*
X161554283Y-111939629D01*
X161545781Y-111946151D01*
X161540779Y-111946560D01*
X161536506Y-111946136D01*
X161536502Y-111946137D01*
X161516757Y-111952110D01*
X161514108Y-111952639D01*
X131267304Y-115004198D01*
X131257043Y-115001112D01*
X131253775Y-114997269D01*
X131218897Y-114936859D01*
X131218895Y-114936856D01*
X131135021Y-114852982D01*
X131135018Y-114852980D01*
X131032297Y-114793674D01*
X131032295Y-114793673D01*
X131032293Y-114793672D01*
X130917716Y-114762971D01*
X130799098Y-114762971D01*
X130799097Y-114762971D01*
X130684524Y-114793671D01*
X130684516Y-114793674D01*
X130581795Y-114852980D01*
X130581792Y-114852982D01*
X130497918Y-114936856D01*
X130497916Y-114936859D01*
X130438610Y-115039580D01*
X130438607Y-115039588D01*
X130407907Y-115154161D01*
X127667975Y-115154161D01*
X122821710Y-109082588D01*
X120944094Y-106730244D01*
X120942712Y-106727622D01*
X120942569Y-106727699D01*
X120941916Y-106726484D01*
X120915765Y-106694752D01*
X120915627Y-106694581D01*
X120890037Y-106662520D01*
X120888983Y-106661631D01*
X120889087Y-106661506D01*
X120886807Y-106659614D01*
X119677720Y-105192469D01*
X119677720Y-105192467D01*
X119650458Y-105159388D01*
X119623198Y-105126310D01*
X119623195Y-105126308D01*
X119622455Y-105125410D01*
X119622186Y-105125142D01*
X119588113Y-105083849D01*
X119535333Y-105034738D01*
X119444699Y-104950406D01*
X119444697Y-104950405D01*
X119284970Y-104837031D01*
X119284954Y-104837021D01*
X119111681Y-104745674D01*
X118927879Y-104677949D01*
X118927877Y-104677948D01*
X118898116Y-104671264D01*
X118889356Y-104665093D01*
X118887524Y-104654536D01*
X118893695Y-104645776D01*
X118896853Y-104644291D01*
X118949580Y-104627160D01*
X119110935Y-104544945D01*
X119257442Y-104438502D01*
X119385494Y-104310450D01*
X119491937Y-104163943D01*
X119574152Y-104002588D01*
X119630112Y-103830358D01*
X119658441Y-103651495D01*
X119658441Y-103470403D01*
X119630112Y-103291540D01*
X119574152Y-103119310D01*
X119574151Y-103119309D01*
X119574151Y-103119307D01*
X119502459Y-102978606D01*
X119491937Y-102957955D01*
X119447049Y-102896172D01*
X119385495Y-102811449D01*
X119385488Y-102811441D01*
X119264601Y-102690554D01*
X119260500Y-102680655D01*
X119264601Y-102670756D01*
X119274500Y-102666655D01*
X119277777Y-102667044D01*
X120892821Y-103056619D01*
X120894359Y-103057086D01*
X120922101Y-103067295D01*
X120932996Y-103066857D01*
X120936841Y-103067237D01*
X120938761Y-103067700D01*
X120947435Y-103069793D01*
X120976630Y-103065200D01*
X120978222Y-103065043D01*
X125227185Y-102894649D01*
X125231936Y-102895280D01*
X125234775Y-102896172D01*
X125271944Y-102892870D01*
X125272566Y-102892829D01*
X125309874Y-102891334D01*
X125312575Y-102890085D01*
X125317205Y-102888849D01*
X127573508Y-102688437D01*
X127583732Y-102691645D01*
X127586871Y-102695382D01*
X127597916Y-102714513D01*
X127597918Y-102714516D01*
X127681792Y-102798390D01*
X127681795Y-102798392D01*
X127762812Y-102845167D01*
X127784521Y-102857701D01*
X127899098Y-102888402D01*
X127899101Y-102888402D01*
X128017713Y-102888402D01*
X128017716Y-102888402D01*
X128132293Y-102857701D01*
X128235020Y-102798391D01*
X128318896Y-102714515D01*
X128378206Y-102611788D01*
X128408907Y-102497211D01*
X128408907Y-102378593D01*
X128378206Y-102264016D01*
X128363417Y-102238401D01*
X128318897Y-102161290D01*
X128318895Y-102161287D01*
X128235021Y-102077413D01*
X128235018Y-102077411D01*
X128132297Y-102018105D01*
X128132295Y-102018104D01*
X128132293Y-102018103D01*
X128017716Y-101987402D01*
X127899098Y-101987402D01*
X127899097Y-101987402D01*
X127784524Y-102018102D01*
X127784516Y-102018105D01*
X127681795Y-102077411D01*
X127681792Y-102077413D01*
X127597924Y-102161281D01*
X127597915Y-102161292D01*
X127545394Y-102252260D01*
X127536893Y-102258783D01*
X127534509Y-102259205D01*
X125244909Y-102462575D01*
X125244231Y-102462619D01*
X120979601Y-102633641D01*
X120975757Y-102633262D01*
X118896425Y-102131694D01*
X118887763Y-102125386D01*
X118886098Y-102114801D01*
X118892406Y-102106139D01*
X118895376Y-102104771D01*
X118949580Y-102087160D01*
X119110935Y-102004945D01*
X119257442Y-101898502D01*
X119385494Y-101770450D01*
X119491937Y-101623943D01*
X119574152Y-101462588D01*
X119630112Y-101290358D01*
X119658441Y-101111495D01*
X119658441Y-100930403D01*
X119630112Y-100751540D01*
X119574152Y-100579310D01*
X119574151Y-100579309D01*
X119574151Y-100579307D01*
X119525396Y-100483621D01*
X119491937Y-100417955D01*
X119466520Y-100382972D01*
X119385495Y-100271449D01*
X119385494Y-100271448D01*
X119372642Y-100258596D01*
X119351368Y-100237322D01*
X119347268Y-100227424D01*
X119351368Y-100217525D01*
X119361268Y-100213424D01*
X119366006Y-100214250D01*
X120114942Y-100483621D01*
X120119019Y-100485919D01*
X120122089Y-100488407D01*
X120122090Y-100488407D01*
X120122092Y-100488409D01*
X120153277Y-100497663D01*
X120156931Y-100498748D01*
X120157688Y-100498995D01*
X120191898Y-100511300D01*
X120195846Y-100511112D01*
X120200489Y-100511674D01*
X124809647Y-101879514D01*
X124817971Y-101886261D01*
X124819187Y-101889311D01*
X124829425Y-101927518D01*
X124838608Y-101961788D01*
X124838609Y-101961790D01*
X124838610Y-101961792D01*
X124897916Y-102064513D01*
X124897918Y-102064516D01*
X124981792Y-102148390D01*
X124981795Y-102148392D01*
X125031273Y-102176958D01*
X125084521Y-102207701D01*
X125199098Y-102238402D01*
X125199101Y-102238402D01*
X125317713Y-102238402D01*
X125317716Y-102238402D01*
X125432293Y-102207701D01*
X125535020Y-102148391D01*
X125618896Y-102064515D01*
X125678206Y-101961788D01*
X125708907Y-101847211D01*
X125708907Y-101728593D01*
X130407907Y-101728593D01*
X130407907Y-101847211D01*
X130438607Y-101961786D01*
X130438610Y-101961792D01*
X130497916Y-102064513D01*
X130497918Y-102064516D01*
X130581792Y-102148390D01*
X130581795Y-102148392D01*
X130631273Y-102176958D01*
X130684521Y-102207701D01*
X130799098Y-102238402D01*
X130799101Y-102238402D01*
X130917713Y-102238402D01*
X130917716Y-102238402D01*
X131032293Y-102207701D01*
X131135020Y-102148391D01*
X131218896Y-102064515D01*
X131242889Y-102022957D01*
X131244200Y-102021951D01*
X131244781Y-102020402D01*
X131247919Y-102019097D01*
X131251388Y-102016436D01*
X131254535Y-102015967D01*
X131254975Y-102015951D01*
X131267876Y-102016357D01*
X131270329Y-102015428D01*
X131272639Y-102015350D01*
X131272804Y-102015411D01*
X131273186Y-102015342D01*
X133318186Y-102026279D01*
X133328062Y-102030433D01*
X133332110Y-102040354D01*
X133327956Y-102050231D01*
X133325110Y-102052403D01*
X133281797Y-102077410D01*
X133281786Y-102077419D01*
X133197918Y-102161287D01*
X133197916Y-102161290D01*
X133138610Y-102264011D01*
X133138607Y-102264019D01*
X133107907Y-102378592D01*
X133107907Y-102497211D01*
X133138607Y-102611784D01*
X133138610Y-102611792D01*
X133197916Y-102714513D01*
X133197918Y-102714516D01*
X133281792Y-102798390D01*
X133281795Y-102798392D01*
X133362812Y-102845167D01*
X133384521Y-102857701D01*
X133499098Y-102888402D01*
X133499101Y-102888402D01*
X133617713Y-102888402D01*
X133617716Y-102888402D01*
X133732293Y-102857701D01*
X133835020Y-102798391D01*
X133849291Y-102784119D01*
X133858714Y-102780027D01*
X133877688Y-102779385D01*
X133880360Y-102779552D01*
X161468227Y-107194620D01*
X161477353Y-107200232D01*
X161479536Y-107204816D01*
X161503703Y-107295009D01*
X161503704Y-107295011D01*
X161503705Y-107295013D01*
X161563011Y-107397734D01*
X161563013Y-107397737D01*
X161646887Y-107481611D01*
X161646890Y-107481613D01*
X161667280Y-107493385D01*
X161749616Y-107540922D01*
X161864193Y-107571623D01*
X161864196Y-107571623D01*
X161982808Y-107571623D01*
X161982811Y-107571623D01*
X162097388Y-107540922D01*
X162200115Y-107481612D01*
X162283991Y-107397736D01*
X162343301Y-107295009D01*
X162374002Y-107180432D01*
X162374002Y-107061814D01*
X162343301Y-106947237D01*
X162287424Y-106850456D01*
X162283992Y-106844511D01*
X162283990Y-106844508D01*
X162200116Y-106760634D01*
X162200113Y-106760632D01*
X162097392Y-106701326D01*
X162097390Y-106701325D01*
X162097388Y-106701324D01*
X161982811Y-106670623D01*
X161864193Y-106670623D01*
X161864192Y-106670623D01*
X161749619Y-106701323D01*
X161749611Y-106701326D01*
X161646891Y-106760631D01*
X161632615Y-106774906D01*
X161623189Y-106778998D01*
X161604228Y-106779639D01*
X161601543Y-106779471D01*
X134013682Y-102364405D01*
X134004555Y-102358792D01*
X134002373Y-102354208D01*
X133978206Y-102264016D01*
X133963417Y-102238401D01*
X133918897Y-102161290D01*
X133918895Y-102161287D01*
X133835027Y-102077419D01*
X133835016Y-102077410D01*
X133796196Y-102054997D01*
X133789673Y-102046496D01*
X133791072Y-102035873D01*
X133799573Y-102029350D01*
X133803267Y-102028873D01*
X161482826Y-102176900D01*
X161492701Y-102181054D01*
X161496271Y-102187275D01*
X161503703Y-102215009D01*
X161503704Y-102215011D01*
X161503705Y-102215013D01*
X161563011Y-102317734D01*
X161563013Y-102317737D01*
X161646887Y-102401611D01*
X161646890Y-102401613D01*
X161727907Y-102448388D01*
X161749616Y-102460922D01*
X161864193Y-102491623D01*
X161864196Y-102491623D01*
X161982808Y-102491623D01*
X161982811Y-102491623D01*
X162097388Y-102460922D01*
X162200115Y-102401612D01*
X162283991Y-102317736D01*
X162343301Y-102215009D01*
X162374002Y-102100432D01*
X162374002Y-101981814D01*
X162343301Y-101867237D01*
X162330767Y-101845528D01*
X162283992Y-101764511D01*
X162283990Y-101764508D01*
X162200116Y-101680634D01*
X162200113Y-101680632D01*
X162097392Y-101621326D01*
X162097390Y-101621325D01*
X162097388Y-101621324D01*
X161982811Y-101590623D01*
X161864193Y-101590623D01*
X161864192Y-101590623D01*
X161749619Y-101621323D01*
X161749611Y-101621326D01*
X161646891Y-101680631D01*
X161586690Y-101740831D01*
X161576791Y-101744931D01*
X161573819Y-101744612D01*
X161562324Y-101742114D01*
X161562323Y-101742114D01*
X161540987Y-101745969D01*
X161538423Y-101746192D01*
X133690896Y-101597266D01*
X133681019Y-101593112D01*
X133676971Y-101583191D01*
X133681125Y-101573314D01*
X133687344Y-101569744D01*
X133732293Y-101557701D01*
X133835020Y-101498391D01*
X133918896Y-101414515D01*
X133921759Y-101409554D01*
X133930258Y-101403031D01*
X133933003Y-101402581D01*
X161492881Y-99671810D01*
X161503017Y-99675281D01*
X161505881Y-99678782D01*
X161563011Y-99777734D01*
X161563013Y-99777737D01*
X161646887Y-99861611D01*
X161646890Y-99861613D01*
X161711262Y-99898778D01*
X161749616Y-99920922D01*
X161864193Y-99951623D01*
X161864196Y-99951623D01*
X161982808Y-99951623D01*
X161982811Y-99951623D01*
X162097388Y-99920922D01*
X162200115Y-99861612D01*
X162283991Y-99777736D01*
X162343301Y-99675009D01*
X162374002Y-99560432D01*
X162374002Y-99441814D01*
X162343301Y-99327237D01*
X162330767Y-99305528D01*
X162283992Y-99224511D01*
X162283990Y-99224508D01*
X162200116Y-99140634D01*
X162200113Y-99140632D01*
X162097392Y-99081326D01*
X162097390Y-99081325D01*
X162097388Y-99081324D01*
X161982811Y-99050623D01*
X161864193Y-99050623D01*
X161864192Y-99050623D01*
X161749619Y-99081323D01*
X161749611Y-99081326D01*
X161646890Y-99140632D01*
X161646887Y-99140634D01*
X161563019Y-99224502D01*
X161563012Y-99224511D01*
X161560146Y-99229474D01*
X161551643Y-99235995D01*
X161548900Y-99236443D01*
X133989029Y-100967214D01*
X133978892Y-100963743D01*
X133976028Y-100960242D01*
X133918897Y-100861290D01*
X133918895Y-100861287D01*
X133835021Y-100777413D01*
X133835018Y-100777411D01*
X133732297Y-100718105D01*
X133732295Y-100718104D01*
X133732293Y-100718103D01*
X133617716Y-100687402D01*
X133499098Y-100687402D01*
X133499097Y-100687402D01*
X133384524Y-100718102D01*
X133384516Y-100718105D01*
X133281795Y-100777411D01*
X133281792Y-100777413D01*
X133197918Y-100861287D01*
X133197916Y-100861290D01*
X133138610Y-100964011D01*
X133138607Y-100964019D01*
X133107907Y-101078592D01*
X133107907Y-101197211D01*
X133138607Y-101311784D01*
X133138610Y-101311792D01*
X133197916Y-101414513D01*
X133197918Y-101414516D01*
X133281792Y-101498390D01*
X133281795Y-101498392D01*
X133362812Y-101545167D01*
X133384521Y-101557701D01*
X133424068Y-101568297D01*
X133432567Y-101574819D01*
X133433966Y-101585442D01*
X133427443Y-101593943D01*
X133420368Y-101595819D01*
X131269065Y-101584314D01*
X131259188Y-101580160D01*
X131257016Y-101577314D01*
X131218897Y-101511290D01*
X131218895Y-101511287D01*
X131135021Y-101427413D01*
X131135018Y-101427411D01*
X131032297Y-101368105D01*
X131032295Y-101368104D01*
X131032293Y-101368103D01*
X130917716Y-101337402D01*
X130799098Y-101337402D01*
X130799097Y-101337402D01*
X130684524Y-101368102D01*
X130684516Y-101368105D01*
X130581795Y-101427411D01*
X130581792Y-101427413D01*
X130497918Y-101511287D01*
X130497916Y-101511290D01*
X130438610Y-101614011D01*
X130438607Y-101614019D01*
X130416569Y-101696268D01*
X130407907Y-101728593D01*
X125708907Y-101728593D01*
X125678206Y-101614016D01*
X125655575Y-101574819D01*
X125618897Y-101511290D01*
X125618895Y-101511287D01*
X125535021Y-101427413D01*
X125535018Y-101427411D01*
X125432297Y-101368105D01*
X125432295Y-101368104D01*
X125432293Y-101368103D01*
X125317716Y-101337402D01*
X125199098Y-101337402D01*
X125199097Y-101337402D01*
X125084524Y-101368102D01*
X125084516Y-101368105D01*
X124981796Y-101427410D01*
X124946344Y-101462861D01*
X124936445Y-101466961D01*
X124932462Y-101466382D01*
X120292071Y-100089273D01*
X120291316Y-100089026D01*
X118982723Y-99618364D01*
X118982723Y-99618362D01*
X118982718Y-99618362D01*
X118949432Y-99606378D01*
X118949423Y-99606375D01*
X118895110Y-99591939D01*
X118886596Y-99585433D01*
X118885176Y-99574813D01*
X118891682Y-99566299D01*
X118894371Y-99565097D01*
X118949580Y-99547160D01*
X119110935Y-99464945D01*
X119257442Y-99358502D01*
X119385494Y-99230450D01*
X119491937Y-99083943D01*
X119574152Y-98922588D01*
X119630112Y-98750358D01*
X119658441Y-98571495D01*
X119658441Y-98390403D01*
X119630112Y-98211540D01*
X119574152Y-98039310D01*
X119574151Y-98039309D01*
X119574151Y-98039307D01*
X119500815Y-97895379D01*
X119499974Y-97884697D01*
X119506933Y-97876549D01*
X119517615Y-97875708D01*
X119520721Y-97877159D01*
X120250907Y-98334876D01*
X120252972Y-98336456D01*
X120253707Y-98337135D01*
X120253710Y-98337139D01*
X120289270Y-98358924D01*
X120289392Y-98359000D01*
X120324701Y-98381134D01*
X120325642Y-98381492D01*
X120327978Y-98382638D01*
X124782216Y-101111494D01*
X124812823Y-101130245D01*
X124812835Y-101130254D01*
X124814123Y-101131043D01*
X124814124Y-101131044D01*
X124846022Y-101150585D01*
X124846031Y-101150592D01*
X124846032Y-101150591D01*
X124846583Y-101150929D01*
X124850674Y-101153439D01*
X124850674Y-101153440D01*
X124908282Y-101188801D01*
X124908284Y-101188801D01*
X124908286Y-101188803D01*
X124908287Y-101188804D01*
X125010922Y-101229426D01*
X125033984Y-101238555D01*
X125100175Y-101252257D01*
X125166360Y-101265958D01*
X125166362Y-101265958D01*
X125166367Y-101265959D01*
X125232294Y-101267968D01*
X127547606Y-101340616D01*
X127557371Y-101345025D01*
X127559290Y-101347609D01*
X127597916Y-101414513D01*
X127597918Y-101414516D01*
X127681792Y-101498390D01*
X127681795Y-101498392D01*
X127762812Y-101545167D01*
X127784521Y-101557701D01*
X127899098Y-101588402D01*
X127899101Y-101588402D01*
X128017713Y-101588402D01*
X128017716Y-101588402D01*
X128132293Y-101557701D01*
X128235020Y-101498391D01*
X128318896Y-101414515D01*
X128378206Y-101311788D01*
X128408907Y-101197211D01*
X128408907Y-101078593D01*
X128378206Y-100964016D01*
X128345692Y-100907701D01*
X128318897Y-100861290D01*
X128318895Y-100861287D01*
X128235021Y-100777413D01*
X128235018Y-100777411D01*
X128132297Y-100718105D01*
X128132295Y-100718104D01*
X128132293Y-100718103D01*
X128017716Y-100687402D01*
X127899098Y-100687402D01*
X127899097Y-100687402D01*
X127784524Y-100718102D01*
X127784516Y-100718105D01*
X127681795Y-100777411D01*
X127681792Y-100777413D01*
X127597924Y-100861281D01*
X127597915Y-100861293D01*
X127573925Y-100902843D01*
X127565424Y-100909366D01*
X127561362Y-100909836D01*
X125569429Y-100847333D01*
X125559663Y-100842924D01*
X125555875Y-100832901D01*
X125559968Y-100823442D01*
X125618896Y-100764515D01*
X125678206Y-100661788D01*
X125708907Y-100547211D01*
X125708907Y-100428593D01*
X125708907Y-100428592D01*
X130407907Y-100428592D01*
X130407907Y-100547211D01*
X130438607Y-100661784D01*
X130438610Y-100661792D01*
X130497916Y-100764513D01*
X130497918Y-100764516D01*
X130581792Y-100848390D01*
X130581795Y-100848392D01*
X130662812Y-100895167D01*
X130684521Y-100907701D01*
X130799098Y-100938402D01*
X130799101Y-100938402D01*
X130917713Y-100938402D01*
X130917716Y-100938402D01*
X131032293Y-100907701D01*
X131135020Y-100848391D01*
X131218896Y-100764515D01*
X131250533Y-100709716D01*
X131259031Y-100703196D01*
X131262628Y-100702719D01*
X131267413Y-100702712D01*
X131286050Y-100694954D01*
X131288676Y-100694154D01*
X161523513Y-94648348D01*
X161534024Y-94650428D01*
X161538382Y-94655076D01*
X161563010Y-94697732D01*
X161563019Y-94697743D01*
X161646887Y-94781611D01*
X161646890Y-94781613D01*
X161701308Y-94813031D01*
X161749616Y-94840922D01*
X161864193Y-94871623D01*
X161864196Y-94871623D01*
X161982808Y-94871623D01*
X161982811Y-94871623D01*
X162097388Y-94840922D01*
X162200115Y-94781612D01*
X162283991Y-94697736D01*
X162343301Y-94595009D01*
X162374002Y-94480432D01*
X162374002Y-94361814D01*
X162343301Y-94247237D01*
X162315627Y-94199305D01*
X162283992Y-94144511D01*
X162283990Y-94144508D01*
X162200116Y-94060634D01*
X162200113Y-94060632D01*
X162097392Y-94001326D01*
X162097390Y-94001325D01*
X162097388Y-94001324D01*
X161982811Y-93970623D01*
X161864193Y-93970623D01*
X161864192Y-93970623D01*
X161749619Y-94001323D01*
X161749611Y-94001326D01*
X161646890Y-94060632D01*
X161646887Y-94060634D01*
X161563019Y-94144502D01*
X161563010Y-94144513D01*
X161531375Y-94199305D01*
X161522874Y-94205828D01*
X161519276Y-94206305D01*
X161514498Y-94206313D01*
X161514494Y-94206314D01*
X161495865Y-94214067D01*
X161493231Y-94214870D01*
X131258394Y-100260676D01*
X131247883Y-100258596D01*
X131243525Y-100253948D01*
X131218897Y-100211290D01*
X131218895Y-100211287D01*
X131135021Y-100127413D01*
X131135018Y-100127411D01*
X131032297Y-100068105D01*
X131032295Y-100068104D01*
X131032293Y-100068103D01*
X130917716Y-100037402D01*
X130799098Y-100037402D01*
X130799097Y-100037402D01*
X130684524Y-100068102D01*
X130684516Y-100068105D01*
X130581795Y-100127411D01*
X130581792Y-100127413D01*
X130497918Y-100211287D01*
X130497916Y-100211290D01*
X130438610Y-100314011D01*
X130438607Y-100314019D01*
X130407907Y-100428592D01*
X125708907Y-100428592D01*
X125678206Y-100314016D01*
X125646209Y-100258596D01*
X125618897Y-100211290D01*
X125618895Y-100211287D01*
X125535021Y-100127413D01*
X125535018Y-100127411D01*
X125432297Y-100068105D01*
X125432295Y-100068104D01*
X125432293Y-100068103D01*
X125317716Y-100037402D01*
X125199098Y-100037402D01*
X125199097Y-100037402D01*
X125123716Y-100057600D01*
X125113093Y-100056201D01*
X125110526Y-100054298D01*
X121187974Y-96382590D01*
X120748834Y-95971533D01*
X120746968Y-95968977D01*
X120746874Y-95969048D01*
X120746053Y-95967943D01*
X120731768Y-95955036D01*
X120715701Y-95940517D01*
X120715579Y-95940405D01*
X120685741Y-95912475D01*
X120685740Y-95912474D01*
X120685738Y-95912473D01*
X120684567Y-95911745D01*
X120684628Y-95911645D01*
X120681928Y-95910000D01*
X120239399Y-95510125D01*
X119467949Y-94813031D01*
X119467479Y-94812683D01*
X119439818Y-94787711D01*
X119429426Y-94778329D01*
X119313049Y-94697743D01*
X119271947Y-94669281D01*
X119101727Y-94581433D01*
X119101726Y-94581432D01*
X119101725Y-94581432D01*
X118921600Y-94516248D01*
X118898556Y-94511143D01*
X118889777Y-94504998D01*
X118887915Y-94494446D01*
X118894060Y-94485667D01*
X118897251Y-94484161D01*
X118949580Y-94467160D01*
X119110935Y-94384945D01*
X119257442Y-94278502D01*
X119385494Y-94150450D01*
X119491937Y-94003943D01*
X119574152Y-93842588D01*
X119630112Y-93670358D01*
X119658441Y-93491495D01*
X119658441Y-93310403D01*
X119630112Y-93131540D01*
X119574152Y-92959310D01*
X119574151Y-92959309D01*
X119574151Y-92959307D01*
X119533044Y-92878632D01*
X119491937Y-92797955D01*
X119385494Y-92651448D01*
X119385488Y-92651441D01*
X119257448Y-92523401D01*
X119257440Y-92523394D01*
X119110947Y-92416961D01*
X119110939Y-92416956D01*
X119110935Y-92416953D01*
X119105113Y-92413986D01*
X118949582Y-92334738D01*
X118777350Y-92278778D01*
X118598487Y-92250449D01*
X118417395Y-92250449D01*
X118238531Y-92278778D01*
X118066299Y-92334738D01*
X117904950Y-92416951D01*
X117904934Y-92416961D01*
X117758441Y-92523394D01*
X117758433Y-92523401D01*
X117630393Y-92651441D01*
X117630386Y-92651449D01*
X117523953Y-92797942D01*
X117523943Y-92797958D01*
X117441730Y-92959307D01*
X117385770Y-93131539D01*
X117357441Y-93310403D01*
X117357441Y-93491494D01*
X117385770Y-93670358D01*
X117441730Y-93842590D01*
X117523943Y-94003939D01*
X117523953Y-94003955D01*
X117537992Y-94023279D01*
X117540494Y-94033698D01*
X117534895Y-94042834D01*
X117524476Y-94045336D01*
X117519696Y-94043648D01*
X117169614Y-93842588D01*
X117065308Y-93782682D01*
X117058765Y-93774196D01*
X117058965Y-93766216D01*
X117090112Y-93670358D01*
X117118441Y-93491495D01*
X117118441Y-93310403D01*
X117090112Y-93131540D01*
X117034152Y-92959310D01*
X117034151Y-92959309D01*
X117034151Y-92959307D01*
X116993044Y-92878632D01*
X116951937Y-92797955D01*
X116845494Y-92651448D01*
X116845488Y-92651441D01*
X116717448Y-92523401D01*
X116717440Y-92523394D01*
X116570947Y-92416961D01*
X116570939Y-92416956D01*
X116570935Y-92416953D01*
X116565113Y-92413986D01*
X116409582Y-92334738D01*
X116237350Y-92278778D01*
X116058487Y-92250449D01*
X115877395Y-92250449D01*
X115698531Y-92278778D01*
X115553702Y-92325835D01*
X115543020Y-92324994D01*
X115536061Y-92316846D01*
X115536902Y-92306164D01*
X115538900Y-92303233D01*
X116603608Y-91103404D01*
X116603625Y-91103389D01*
X116604641Y-91102243D01*
X116604643Y-91102243D01*
X116642862Y-91059171D01*
X116646311Y-91055284D01*
X116660051Y-91039799D01*
X116662479Y-91038008D01*
X116669908Y-91028692D01*
X116677845Y-91019748D01*
X116678539Y-91018359D01*
X116680110Y-91015896D01*
X116770245Y-90902873D01*
X116771210Y-90900660D01*
X116772774Y-90897948D01*
X116789884Y-90874768D01*
X116806122Y-90850950D01*
X116808160Y-90848583D01*
X116809933Y-90846939D01*
X116837985Y-90802296D01*
X116868620Y-90753540D01*
X116871921Y-90748286D01*
X116871923Y-90748284D01*
X116873843Y-90745228D01*
X116873844Y-90745228D01*
X116889272Y-90720674D01*
X116889282Y-90720655D01*
X116901892Y-90700588D01*
X116903066Y-90696779D01*
X116918269Y-90670447D01*
X116931730Y-90644975D01*
X116933497Y-90642384D01*
X116935068Y-90640559D01*
X116958990Y-90590886D01*
X116962202Y-90584213D01*
X116962204Y-90584212D01*
X116987188Y-90532332D01*
X116987187Y-90532331D01*
X116989124Y-90528312D01*
X116989124Y-90528308D01*
X117010062Y-90484833D01*
X117010061Y-90484833D01*
X117010063Y-90484831D01*
X117010512Y-90482456D01*
X117011434Y-90479465D01*
X117022958Y-90453053D01*
X117033485Y-90426228D01*
X117034948Y-90423461D01*
X117036313Y-90421461D01*
X117069234Y-90327375D01*
X117072742Y-90317350D01*
X117072742Y-90317349D01*
X117093398Y-90258316D01*
X117093578Y-90255903D01*
X117094158Y-90252837D01*
X117102653Y-90225300D01*
X117110113Y-90197456D01*
X117111257Y-90194542D01*
X117112386Y-90192409D01*
X117124116Y-90141016D01*
X117136930Y-90084877D01*
X117136929Y-90084874D01*
X117137232Y-90083550D01*
X117137234Y-90083537D01*
X117137234Y-90083534D01*
X117138453Y-90078197D01*
X117139110Y-90075320D01*
X117139109Y-90075319D01*
X117150846Y-90023898D01*
X117150755Y-90021485D01*
X117150988Y-90018362D01*
X117156345Y-89990061D01*
X117160641Y-89961553D01*
X117161452Y-89958532D01*
X117162333Y-89956290D01*
X117169197Y-89895365D01*
X117169202Y-89895343D01*
X117169338Y-89894133D01*
X117169339Y-89894132D01*
X117175785Y-89836911D01*
X117175786Y-89836911D01*
X117178164Y-89815796D01*
X117181687Y-89784533D01*
X117181326Y-89782144D01*
X117181209Y-89779021D01*
X117183364Y-89750273D01*
X117184441Y-89721474D01*
X117184908Y-89718380D01*
X117185533Y-89716050D01*
X117185533Y-89654532D01*
X117185535Y-89654491D01*
X117185534Y-89653494D01*
X117185536Y-89653491D01*
X117185533Y-89601708D01*
X117185536Y-89601700D01*
X117185536Y-89595908D01*
X117185537Y-89595908D01*
X117185535Y-89566914D01*
X117185533Y-89566860D01*
X117185533Y-89543205D01*
X117184503Y-89539361D01*
X117183365Y-89508966D01*
X117181210Y-89480226D01*
X117181327Y-89477106D01*
X117181687Y-89474723D01*
X117178953Y-89450462D01*
X117175783Y-89422329D01*
X117162333Y-89302965D01*
X117161448Y-89300712D01*
X117160637Y-89297684D01*
X117156346Y-89269206D01*
X117150989Y-89240896D01*
X117150755Y-89237767D01*
X117150846Y-89235356D01*
X117138854Y-89182815D01*
X117126301Y-89127812D01*
X117126300Y-89127811D01*
X117125861Y-89125885D01*
X117125860Y-89125883D01*
X117124120Y-89118256D01*
X117112386Y-89066845D01*
X117111246Y-89064689D01*
X117110102Y-89061773D01*
X117102654Y-89033969D01*
X117094161Y-89006434D01*
X117093578Y-89003348D01*
X117093398Y-89000937D01*
X117065928Y-88922431D01*
X117065928Y-88922430D01*
X117056973Y-88896834D01*
X117056970Y-88896830D01*
X117036313Y-88837793D01*
X117034939Y-88835777D01*
X117033480Y-88833017D01*
X117022963Y-88806217D01*
X117011432Y-88779788D01*
X117010511Y-88776798D01*
X117010063Y-88774423D01*
X116984230Y-88720780D01*
X116962213Y-88675056D01*
X116962211Y-88675054D01*
X116961707Y-88674007D01*
X116961690Y-88673978D01*
X116946541Y-88642520D01*
X116945941Y-88631822D01*
X116953081Y-88623832D01*
X116961740Y-88622687D01*
X131028898Y-91265318D01*
X131087945Y-91265003D01*
X131470628Y-91188882D01*
X131501968Y-91179115D01*
X163882867Y-77187977D01*
X163907581Y-77174525D01*
X163933929Y-77156918D01*
X163934647Y-77156472D01*
X163982998Y-77128557D01*
X163995360Y-77116193D01*
X163997472Y-77114460D01*
X164004908Y-77109493D01*
X164047811Y-77066590D01*
X164052778Y-77059154D01*
X164054511Y-77057042D01*
X164066874Y-77044681D01*
X164094793Y-76996322D01*
X164095249Y-76995592D01*
X164112840Y-76969266D01*
X164112842Y-76969262D01*
X164118649Y-76955244D01*
X164119459Y-76953600D01*
X164126184Y-76941954D01*
X164129665Y-76928956D01*
X164130247Y-76927240D01*
X164136060Y-76913211D01*
X164142241Y-76882132D01*
X164142434Y-76881305D01*
X164156885Y-76827377D01*
X164156885Y-76809899D01*
X164157154Y-76807168D01*
X164158897Y-76798405D01*
X164158897Y-76737730D01*
X164157154Y-76728967D01*
X164156885Y-76726236D01*
X164156885Y-76708762D01*
X164156885Y-76708759D01*
X164142436Y-76654836D01*
X164142240Y-76653995D01*
X164136060Y-76622925D01*
X164130251Y-76608904D01*
X164129664Y-76607172D01*
X164126185Y-76594186D01*
X164126184Y-76594183D01*
X164126184Y-76594182D01*
X164119457Y-76582531D01*
X164118651Y-76580899D01*
X164112842Y-76566873D01*
X164095240Y-76540530D01*
X164094773Y-76539777D01*
X164083270Y-76519854D01*
X164066876Y-76491457D01*
X164066874Y-76491455D01*
X164054514Y-76479095D01*
X164052777Y-76476978D01*
X164047812Y-76469547D01*
X164047809Y-76469543D01*
X164004911Y-76426645D01*
X163997472Y-76421674D01*
X163995356Y-76419937D01*
X163982998Y-76407579D01*
X163982996Y-76407578D01*
X163982994Y-76407576D01*
X163934692Y-76379689D01*
X163933914Y-76379206D01*
X163907580Y-76361610D01*
X163893558Y-76355802D01*
X163891916Y-76354992D01*
X163880276Y-76348271D01*
X163880273Y-76348270D01*
X163880272Y-76348269D01*
X163880271Y-76348269D01*
X163867271Y-76344785D01*
X163865544Y-76344198D01*
X163857863Y-76341017D01*
X163851529Y-76338393D01*
X163851524Y-76338391D01*
X163820474Y-76332215D01*
X163819582Y-76332007D01*
X163765694Y-76317568D01*
X163748215Y-76317568D01*
X163745484Y-76317299D01*
X163736721Y-76315556D01*
X163676049Y-76315556D01*
X163667286Y-76317299D01*
X163664555Y-76317568D01*
X163647075Y-76317568D01*
X163593186Y-76332007D01*
X163592295Y-76332215D01*
X163561245Y-76338391D01*
X163529505Y-76348331D01*
X163529489Y-76348337D01*
X131498255Y-90296354D01*
X131487542Y-90296547D01*
X131479830Y-90289107D01*
X131479143Y-90279897D01*
X131508108Y-90171800D01*
X131508108Y-90053182D01*
X131477407Y-89938605D01*
X131453452Y-89897114D01*
X131418098Y-89835879D01*
X131418096Y-89835876D01*
X131334222Y-89752002D01*
X131334219Y-89752000D01*
X131231498Y-89692694D01*
X131231496Y-89692693D01*
X131231494Y-89692692D01*
X131116917Y-89661991D01*
X130998299Y-89661991D01*
X130998294Y-89661991D01*
X130974416Y-89668389D01*
X130966841Y-89668297D01*
X118706964Y-86060440D01*
X115584330Y-85141506D01*
X115575990Y-85134777D01*
X115574551Y-85130806D01*
X115556964Y-85042388D01*
X115552519Y-85020040D01*
X125764688Y-85020040D01*
X125764688Y-85209553D01*
X125794334Y-85396734D01*
X125852897Y-85576975D01*
X125938933Y-85745827D01*
X125938943Y-85745843D01*
X126031138Y-85872739D01*
X126031140Y-85872739D01*
X126500319Y-85403559D01*
X126528578Y-85452505D01*
X126630980Y-85554907D01*
X126679924Y-85583164D01*
X126210744Y-86052344D01*
X126210744Y-86052345D01*
X126337641Y-86144541D01*
X126337657Y-86144551D01*
X126506509Y-86230587D01*
X126686750Y-86289150D01*
X126873931Y-86318797D01*
X127063445Y-86318797D01*
X127250625Y-86289150D01*
X127430866Y-86230587D01*
X127599718Y-86144551D01*
X127599734Y-86144541D01*
X127726630Y-86052345D01*
X127726630Y-86052343D01*
X127257451Y-85583164D01*
X127306396Y-85554907D01*
X127408798Y-85452505D01*
X127437055Y-85403560D01*
X127906234Y-85872739D01*
X127906236Y-85872739D01*
X127998432Y-85745843D01*
X127998442Y-85745827D01*
X128084478Y-85576975D01*
X128143041Y-85396734D01*
X128172688Y-85209553D01*
X128172688Y-85028186D01*
X128408188Y-85028186D01*
X128408188Y-85201407D01*
X128435286Y-85372498D01*
X128488815Y-85537244D01*
X128567454Y-85691581D01*
X128567464Y-85691597D01*
X128669272Y-85831723D01*
X128669279Y-85831731D01*
X128791753Y-85954205D01*
X128791761Y-85954212D01*
X128931887Y-86056020D01*
X128931891Y-86056022D01*
X128931900Y-86056029D01*
X129009071Y-86095349D01*
X129086240Y-86134669D01*
X129086242Y-86134669D01*
X129086243Y-86134670D01*
X129250987Y-86188199D01*
X129422077Y-86215297D01*
X129595299Y-86215297D01*
X129766389Y-86188199D01*
X129931133Y-86134670D01*
X130085476Y-86056029D01*
X130225616Y-85954211D01*
X130348102Y-85831725D01*
X130449920Y-85691585D01*
X130528561Y-85537242D01*
X130582090Y-85372498D01*
X130609188Y-85201408D01*
X130609188Y-85028186D01*
X130948188Y-85028186D01*
X130948188Y-85201407D01*
X130975286Y-85372498D01*
X131028815Y-85537244D01*
X131107454Y-85691581D01*
X131107464Y-85691597D01*
X131209272Y-85831723D01*
X131209279Y-85831731D01*
X131331753Y-85954205D01*
X131331761Y-85954212D01*
X131471887Y-86056020D01*
X131471891Y-86056022D01*
X131471900Y-86056029D01*
X131549071Y-86095349D01*
X131626240Y-86134669D01*
X131626242Y-86134669D01*
X131626243Y-86134670D01*
X131790987Y-86188199D01*
X131962077Y-86215297D01*
X132135299Y-86215297D01*
X132306389Y-86188199D01*
X132471133Y-86134670D01*
X132625476Y-86056029D01*
X132765616Y-85954211D01*
X132888102Y-85831725D01*
X132989920Y-85691585D01*
X133068561Y-85537242D01*
X133122090Y-85372498D01*
X133149188Y-85201408D01*
X133149188Y-85028186D01*
X133122090Y-84857096D01*
X133068561Y-84692352D01*
X133068560Y-84692351D01*
X133068560Y-84692349D01*
X133003569Y-84564797D01*
X132989920Y-84538009D01*
X132950498Y-84483750D01*
X132888103Y-84397870D01*
X132888096Y-84397862D01*
X132765622Y-84275388D01*
X132765614Y-84275381D01*
X132625488Y-84173573D01*
X132625480Y-84173568D01*
X132625476Y-84173565D01*
X132617792Y-84169650D01*
X132471135Y-84094924D01*
X132306389Y-84041395D01*
X132135299Y-84014297D01*
X131962077Y-84014297D01*
X131790986Y-84041395D01*
X131626240Y-84094924D01*
X131471903Y-84173563D01*
X131471887Y-84173573D01*
X131331761Y-84275381D01*
X131331753Y-84275388D01*
X131209279Y-84397862D01*
X131209272Y-84397870D01*
X131107464Y-84537996D01*
X131107454Y-84538012D01*
X131028815Y-84692349D01*
X130975286Y-84857095D01*
X130948188Y-85028186D01*
X130609188Y-85028186D01*
X130582090Y-84857096D01*
X130528561Y-84692352D01*
X130528560Y-84692351D01*
X130528560Y-84692349D01*
X130463569Y-84564797D01*
X130449920Y-84538009D01*
X130410498Y-84483750D01*
X130348103Y-84397870D01*
X130348096Y-84397862D01*
X130225622Y-84275388D01*
X130225614Y-84275381D01*
X130085488Y-84173573D01*
X130085480Y-84173568D01*
X130085476Y-84173565D01*
X130077792Y-84169650D01*
X129931135Y-84094924D01*
X129766389Y-84041395D01*
X129595299Y-84014297D01*
X129422077Y-84014297D01*
X129250986Y-84041395D01*
X129086240Y-84094924D01*
X128931903Y-84173563D01*
X128931887Y-84173573D01*
X128791761Y-84275381D01*
X128791753Y-84275388D01*
X128669279Y-84397862D01*
X128669272Y-84397870D01*
X128567464Y-84537996D01*
X128567454Y-84538012D01*
X128488815Y-84692349D01*
X128435286Y-84857095D01*
X128408188Y-85028186D01*
X128172688Y-85028186D01*
X128172688Y-85020040D01*
X128143041Y-84832859D01*
X128084478Y-84652618D01*
X127998442Y-84483766D01*
X127998432Y-84483750D01*
X127906236Y-84356853D01*
X127906235Y-84356853D01*
X127437055Y-84826033D01*
X127408798Y-84777089D01*
X127306396Y-84674687D01*
X127257450Y-84646428D01*
X127726630Y-84177249D01*
X127726630Y-84177247D01*
X127599734Y-84085052D01*
X127599718Y-84085042D01*
X127430866Y-83999006D01*
X127250625Y-83940443D01*
X127063445Y-83910797D01*
X126873931Y-83910797D01*
X126686750Y-83940443D01*
X126506509Y-83999006D01*
X126337657Y-84085042D01*
X126337641Y-84085052D01*
X126210744Y-84177247D01*
X126210744Y-84177248D01*
X126679925Y-84646428D01*
X126630980Y-84674687D01*
X126528578Y-84777089D01*
X126500319Y-84826033D01*
X126031139Y-84356853D01*
X126031138Y-84356853D01*
X125938943Y-84483750D01*
X125938933Y-84483766D01*
X125852897Y-84652618D01*
X125794334Y-84832859D01*
X125764688Y-85020040D01*
X115552519Y-85020040D01*
X115549006Y-85002376D01*
X115477355Y-84829396D01*
X115373335Y-84673719D01*
X115373332Y-84673716D01*
X115373330Y-84673713D01*
X115240946Y-84541329D01*
X115240942Y-84541326D01*
X115240941Y-84541325D01*
X115085264Y-84437305D01*
X115085265Y-84437305D01*
X115085263Y-84437304D01*
X114912288Y-84365655D01*
X114912282Y-84365653D01*
X114728649Y-84329127D01*
X114541417Y-84329127D01*
X114357783Y-84365653D01*
X114357777Y-84365655D01*
X114184802Y-84437304D01*
X114029119Y-84541329D01*
X113896735Y-84673713D01*
X113816174Y-84794281D01*
X113807264Y-84800234D01*
X113796755Y-84798144D01*
X113790802Y-84789234D01*
X113790533Y-84786503D01*
X113790533Y-83772750D01*
X113794634Y-83762851D01*
X113804533Y-83758750D01*
X113814432Y-83762851D01*
X113816170Y-83764968D01*
X113896731Y-83885535D01*
X113896732Y-83885536D01*
X113896735Y-83885540D01*
X114029119Y-84017924D01*
X114029122Y-84017926D01*
X114029125Y-84017929D01*
X114184802Y-84121949D01*
X114318302Y-84177247D01*
X114357782Y-84193600D01*
X114541417Y-84230127D01*
X114728649Y-84230127D01*
X114912284Y-84193600D01*
X114951761Y-84177248D01*
X114970105Y-84169650D01*
X115023280Y-84147623D01*
X115085264Y-84121949D01*
X115240941Y-84017929D01*
X115373335Y-83885535D01*
X115477355Y-83729858D01*
X115549006Y-83556878D01*
X115585533Y-83373243D01*
X115585533Y-83186011D01*
X115549006Y-83002376D01*
X115477355Y-82829396D01*
X115373335Y-82673719D01*
X115373332Y-82673716D01*
X115373330Y-82673713D01*
X115240946Y-82541329D01*
X115240942Y-82541326D01*
X115240941Y-82541325D01*
X115085264Y-82437305D01*
X115085265Y-82437305D01*
X115085263Y-82437304D01*
X114912288Y-82365655D01*
X114912282Y-82365653D01*
X114728649Y-82329127D01*
X114541417Y-82329127D01*
X114357783Y-82365653D01*
X114357777Y-82365655D01*
X114184802Y-82437304D01*
X114121495Y-82479604D01*
X114110986Y-82481694D01*
X114102076Y-82475741D01*
X114099986Y-82465232D01*
X114101209Y-82461675D01*
X115410447Y-79859574D01*
X118499500Y-79859574D01*
X118499500Y-80140425D01*
X118530943Y-80419498D01*
X118530945Y-80419511D01*
X118593436Y-80693303D01*
X118593443Y-80693328D01*
X118686194Y-80958397D01*
X118686194Y-80958398D01*
X118808056Y-81211447D01*
X118808060Y-81211454D01*
X118957472Y-81449241D01*
X118957480Y-81449253D01*
X119132588Y-81668830D01*
X119331169Y-81867411D01*
X119550746Y-82042519D01*
X119550752Y-82042523D01*
X119788555Y-82191945D01*
X120041592Y-82313801D01*
X120041594Y-82313801D01*
X120041601Y-82313805D01*
X120266730Y-82392580D01*
X120306682Y-82406560D01*
X120580491Y-82469055D01*
X120674117Y-82479604D01*
X120859574Y-82500500D01*
X120859575Y-82500500D01*
X121140425Y-82500500D01*
X121419509Y-82469055D01*
X121693318Y-82406560D01*
X121958397Y-82313805D01*
X121958398Y-82313805D01*
X121958401Y-82313803D01*
X121958408Y-82313801D01*
X122211445Y-82191945D01*
X122449248Y-82042523D01*
X122668825Y-81867416D01*
X122867416Y-81668825D01*
X123042523Y-81449248D01*
X123191945Y-81211445D01*
X123313801Y-80958408D01*
X123313803Y-80958401D01*
X123313805Y-80958398D01*
X123313805Y-80958397D01*
X123335283Y-80897014D01*
X123406560Y-80693318D01*
X123469055Y-80419509D01*
X123500500Y-80140425D01*
X123500500Y-79859575D01*
X123469055Y-79580491D01*
X123406560Y-79306682D01*
X123382456Y-79237796D01*
X123313805Y-79041602D01*
X123313805Y-79041601D01*
X123294917Y-79002379D01*
X123191945Y-78788555D01*
X123095446Y-78634979D01*
X123042527Y-78550758D01*
X123042519Y-78550746D01*
X122867411Y-78331169D01*
X122668830Y-78132588D01*
X122449253Y-77957480D01*
X122449241Y-77957472D01*
X122211454Y-77808060D01*
X122211447Y-77808056D01*
X121958398Y-77686194D01*
X121693328Y-77593443D01*
X121693320Y-77593441D01*
X121693318Y-77593440D01*
X121693314Y-77593439D01*
X121693303Y-77593436D01*
X121419511Y-77530945D01*
X121419498Y-77530943D01*
X121140426Y-77499500D01*
X121140425Y-77499500D01*
X120859575Y-77499500D01*
X120859574Y-77499500D01*
X120580501Y-77530943D01*
X120580488Y-77530945D01*
X120306696Y-77593436D01*
X120306671Y-77593443D01*
X120041602Y-77686194D01*
X120041601Y-77686194D01*
X119788552Y-77808056D01*
X119788545Y-77808060D01*
X119550758Y-77957472D01*
X119550746Y-77957480D01*
X119331169Y-78132588D01*
X119132588Y-78331169D01*
X118957480Y-78550746D01*
X118957472Y-78550758D01*
X118808060Y-78788545D01*
X118808056Y-78788552D01*
X118686194Y-79041601D01*
X118686194Y-79041602D01*
X118593443Y-79306671D01*
X118593436Y-79306696D01*
X118530945Y-79580488D01*
X118530943Y-79580501D01*
X118499500Y-79859574D01*
X115410447Y-79859574D01*
X115470330Y-79740556D01*
X115471180Y-79739098D01*
X115477355Y-79729858D01*
X115484810Y-79711855D01*
X115485220Y-79710962D01*
X115513044Y-79655665D01*
X115526648Y-79616111D01*
X115528391Y-79607344D01*
X115529182Y-79604733D01*
X115549006Y-79556878D01*
X115585533Y-79373243D01*
X115585533Y-79321457D01*
X115585802Y-79318726D01*
X115587545Y-79309963D01*
X115587545Y-79249290D01*
X115585802Y-79240527D01*
X115585533Y-79237796D01*
X115585533Y-79186011D01*
X115549007Y-79002379D01*
X115549006Y-79002378D01*
X115549006Y-79002377D01*
X115549006Y-79002376D01*
X115529186Y-78954528D01*
X115528390Y-78951903D01*
X115526648Y-78943144D01*
X115526646Y-78943136D01*
X115503428Y-78887086D01*
X115503427Y-78887085D01*
X115498467Y-78879662D01*
X115497173Y-78877241D01*
X115477356Y-78829398D01*
X115477355Y-78829396D01*
X115373335Y-78673719D01*
X115336710Y-78637094D01*
X115334973Y-78634977D01*
X115330013Y-78627553D01*
X115287110Y-78584649D01*
X115287107Y-78584647D01*
X115283723Y-78582386D01*
X115279676Y-78579681D01*
X115277560Y-78577944D01*
X115240941Y-78541325D01*
X115085264Y-78437305D01*
X115085265Y-78437305D01*
X115085263Y-78437304D01*
X115037418Y-78417486D01*
X115034998Y-78416193D01*
X115027567Y-78411228D01*
X114971514Y-78388011D01*
X114962753Y-78386268D01*
X114960130Y-78385471D01*
X114943504Y-78378585D01*
X114912288Y-78365655D01*
X114912282Y-78365653D01*
X114728649Y-78329127D01*
X114676864Y-78329127D01*
X114674133Y-78328858D01*
X114665370Y-78327115D01*
X114604696Y-78327115D01*
X114595933Y-78328858D01*
X114593202Y-78329127D01*
X114541417Y-78329127D01*
X114357783Y-78365653D01*
X114357777Y-78365655D01*
X114309938Y-78385471D01*
X114307312Y-78386268D01*
X114298551Y-78388011D01*
X114298547Y-78388012D01*
X114242495Y-78411229D01*
X114242493Y-78411230D01*
X114235065Y-78416193D01*
X114232646Y-78417486D01*
X114184802Y-78437304D01*
X114029122Y-78541327D01*
X113992506Y-78577942D01*
X113990387Y-78579681D01*
X113982956Y-78584647D01*
X113940054Y-78627550D01*
X113935089Y-78634979D01*
X113933350Y-78637098D01*
X113896733Y-78673716D01*
X113792710Y-78829396D01*
X113772892Y-78877240D01*
X113771599Y-78879659D01*
X113766636Y-78887086D01*
X113743418Y-78943139D01*
X113743416Y-78943144D01*
X113741673Y-78951907D01*
X113740876Y-78954532D01*
X113721062Y-79002368D01*
X113721059Y-79002377D01*
X113684533Y-79186011D01*
X113684533Y-79237796D01*
X113684264Y-79240527D01*
X113682505Y-79249370D01*
X113681860Y-79252818D01*
X112981863Y-83252802D01*
X112981860Y-83252826D01*
X112979533Y-83279617D01*
X112131500Y-83279617D01*
X112131500Y-76855709D01*
X113484533Y-76855709D01*
X113484533Y-77003544D01*
X113513374Y-77148538D01*
X113513376Y-77148544D01*
X113569948Y-77285121D01*
X113569949Y-77285122D01*
X113652082Y-77408043D01*
X113652083Y-77408044D01*
X113652086Y-77408048D01*
X113756611Y-77512573D01*
X113756614Y-77512575D01*
X113756617Y-77512578D01*
X113879538Y-77594711D01*
X114016120Y-77651285D01*
X114161115Y-77680127D01*
X115108951Y-77680127D01*
X115253946Y-77651285D01*
X115390528Y-77594711D01*
X115513449Y-77512578D01*
X115617984Y-77408043D01*
X115700117Y-77285122D01*
X115756691Y-77148540D01*
X115785533Y-77003545D01*
X115785533Y-76855709D01*
X115756691Y-76710714D01*
X115755882Y-76708762D01*
X115700117Y-76574132D01*
X115644875Y-76491457D01*
X115617984Y-76451211D01*
X115617981Y-76451208D01*
X115617979Y-76451205D01*
X115513454Y-76346680D01*
X115513450Y-76346677D01*
X115513449Y-76346676D01*
X115390528Y-76264543D01*
X115390529Y-76264543D01*
X115390527Y-76264542D01*
X115253950Y-76207970D01*
X115253944Y-76207968D01*
X115108951Y-76179127D01*
X114161115Y-76179127D01*
X114016121Y-76207968D01*
X114016115Y-76207970D01*
X113879538Y-76264542D01*
X113756611Y-76346680D01*
X113652086Y-76451205D01*
X113569948Y-76574132D01*
X113513376Y-76710709D01*
X113513374Y-76710715D01*
X113484533Y-76855709D01*
X112131500Y-76855709D01*
X112131500Y-75895500D01*
X112135601Y-75885601D01*
X112145500Y-75881500D01*
X166854500Y-75881500D01*
X166864399Y-75885601D01*
G37*
G04 #@! TD.AperFunction*
M02*
