G04 #@! TF.GenerationSoftware,KiCad,Pcbnew,9.0.5*
G04 #@! TF.CreationDate,2026-03-01T18:05:01+05:30*
G04 #@! TF.ProjectId,jitx-design,6a697478-2d64-4657-9369-676e2e6b6963,rev?*
G04 #@! TF.SameCoordinates,Original*
G04 #@! TF.FileFunction,Legend,Bot*
G04 #@! TF.FilePolarity,Positive*
%FSLAX46Y46*%
G04 Gerber Fmt 4.6, Leading zero omitted, Abs format (unit mm)*
G04 Created by KiCad (PCBNEW 9.0.5) date 2026-03-01 18:05:01*
%MOMM*%
%LPD*%
G01*
G04 APERTURE LIST*
G04 Aperture macros list*
%AMRoundRect*
0 Rectangle with rounded corners*
0 $1 Rounding radius*
0 $2 $3 $4 $5 $6 $7 $8 $9 X,Y pos of 4 corners*
0 Add a 4 corners polygon primitive as box body*
4,1,4,$2,$3,$4,$5,$6,$7,$8,$9,$2,$3,0*
0 Add four circle primitives for the rounded corners*
1,1,$1+$1,$2,$3*
1,1,$1+$1,$4,$5*
1,1,$1+$1,$6,$7*
1,1,$1+$1,$8,$9*
0 Add four rect primitives between the rounded corners*
20,1,$1+$1,$2,$3,$4,$5,0*
20,1,$1+$1,$4,$5,$6,$7,0*
20,1,$1+$1,$6,$7,$8,$9,0*
20,1,$1+$1,$8,$9,$2,$3,0*%
G04 Aperture macros list end*
%ADD10C,0.150000*%
%ADD11C,0.000000*%
%ADD12C,0.500000*%
%ADD13RoundRect,0.051000X1.000000X-1.000000X1.000000X1.000000X-1.000000X1.000000X-1.000000X-1.000000X0*%
%ADD14C,2.102000*%
%ADD15C,4.700000*%
%ADD16C,2.000000*%
%ADD17RoundRect,0.051000X0.900000X0.900000X-0.900000X0.900000X-0.900000X-0.900000X0.900000X-0.900000X0*%
%ADD18C,1.902000*%
%ADD19C,1.700000*%
%ADD20O,2.100000X1.300000*%
G04 APERTURE END LIST*
D10*
G36*
X158170673Y-120753579D02*
G01*
X158116085Y-120878632D01*
X158148935Y-120930778D01*
X158181664Y-120987076D01*
X158224040Y-121029696D01*
X158284124Y-121059860D01*
X158377058Y-121097718D01*
X158456193Y-121133988D01*
X158541678Y-121159511D01*
X158629727Y-121171113D01*
X158689200Y-121181371D01*
X158743178Y-121183447D01*
X158777250Y-121181371D01*
X158800575Y-121173921D01*
X158824389Y-121157435D01*
X158846981Y-121142414D01*
X158882519Y-121121898D01*
X158895207Y-121106547D01*
X158906454Y-121067065D01*
X158913904Y-120935662D01*
X158907037Y-120867255D01*
X158879832Y-120744054D01*
X158851990Y-120622905D01*
X158845638Y-120568932D01*
X158848447Y-120542187D01*
X158851133Y-120514099D01*
X158824511Y-120339710D01*
X158802985Y-120213382D01*
X158797766Y-120150055D01*
X158802910Y-120127333D01*
X158817672Y-120112442D01*
X158832487Y-120097950D01*
X158837456Y-120077515D01*
X158831960Y-120003632D01*
X158812909Y-119913140D01*
X158792393Y-119832906D01*
X158773220Y-119754138D01*
X158753436Y-119662424D01*
X158736339Y-119571933D01*
X158710450Y-119497927D01*
X158668073Y-119397909D01*
X158646214Y-119346496D01*
X158625697Y-119295083D01*
X158594312Y-119256127D01*
X158543632Y-119225230D01*
X158500034Y-119210942D01*
X158474023Y-119206057D01*
X158441410Y-119212732D01*
X158420045Y-119231458D01*
X158407852Y-119260708D01*
X158402948Y-119308761D01*
X158405024Y-119346496D01*
X158415282Y-119395101D01*
X158425540Y-119444438D01*
X158432990Y-119477288D01*
X158437142Y-119537616D01*
X158443981Y-119588297D01*
X158465840Y-119627986D01*
X158481594Y-119735575D01*
X158487700Y-119796514D01*
X158494172Y-119856957D01*
X158517131Y-119941106D01*
X158540398Y-120023597D01*
X158546441Y-120073241D01*
X158553279Y-120123311D01*
X158573674Y-120196461D01*
X158597609Y-120285488D01*
X158609211Y-120323956D01*
X158615439Y-120371828D01*
X158625575Y-120436186D01*
X158672836Y-120683482D01*
X158688468Y-120830760D01*
X158678942Y-120900614D01*
X158666254Y-120919689D01*
X158650244Y-120925282D01*
X158564138Y-120920541D01*
X158476099Y-120906109D01*
X158387581Y-120882821D01*
X158292306Y-120849689D01*
X158271057Y-120844316D01*
X158249930Y-120836011D01*
X158225261Y-120800230D01*
X158193876Y-120777637D01*
X158170673Y-120753579D01*
G37*
G36*
X157610380Y-120225282D02*
G01*
X157655443Y-120255324D01*
X157693056Y-120295013D01*
X157732013Y-120336046D01*
X157767550Y-120366821D01*
X157805774Y-120400282D01*
X157843387Y-120439361D01*
X157865858Y-120474166D01*
X157964288Y-120562093D01*
X158023028Y-120621322D01*
X158128175Y-120693618D01*
X158152110Y-120728422D01*
X158171894Y-120753579D01*
X158141852Y-120815495D01*
X158117184Y-120878632D01*
X158099476Y-120854085D01*
X158089829Y-120837721D01*
X158016189Y-120778981D01*
X157983339Y-120758464D01*
X157966242Y-120764692D01*
X157960136Y-120780324D01*
X157975157Y-120843949D01*
X157990177Y-120930900D01*
X157983398Y-120982709D01*
X157962969Y-121031378D01*
X157927407Y-121078300D01*
X157882290Y-121115981D01*
X157835846Y-121137334D01*
X157786601Y-121144368D01*
X157754483Y-121138872D01*
X157727861Y-121133377D01*
X157676692Y-121124462D01*
X157614410Y-121098939D01*
X157558003Y-121070746D01*
X157507187Y-121036290D01*
X157461881Y-120996141D01*
X157424511Y-120953004D01*
X157391782Y-120995624D01*
X157369219Y-121006774D01*
X157339759Y-121010767D01*
X157284438Y-120999166D01*
X157224965Y-120961186D01*
X157175872Y-120921374D01*
X157128000Y-120878632D01*
X157154745Y-120815495D01*
X157181367Y-120753579D01*
X157209333Y-120774096D01*
X157231926Y-120780935D01*
X157249633Y-120773485D01*
X157261967Y-120749061D01*
X157232658Y-120709371D01*
X157203227Y-120640983D01*
X157197208Y-120617780D01*
X157372609Y-120617780D01*
X157397156Y-120695694D01*
X157410833Y-120741612D01*
X157428663Y-120768234D01*
X157469574Y-120817449D01*
X157519453Y-120880484D01*
X157568736Y-120922229D01*
X157623839Y-120948340D01*
X157684019Y-120957034D01*
X157720057Y-120951742D01*
X157742882Y-120937861D01*
X157756723Y-120915232D01*
X157761933Y-120880464D01*
X157755094Y-120829905D01*
X157733234Y-120757243D01*
X157703192Y-120684092D01*
X157686998Y-120663460D01*
X157674494Y-120657470D01*
X157635537Y-120644403D01*
X157603419Y-120619124D01*
X157559699Y-120550736D01*
X157534542Y-120518618D01*
X157514637Y-120504207D01*
X157447714Y-120514466D01*
X157417672Y-120523381D01*
X157395935Y-120552812D01*
X157372609Y-120617780D01*
X157197208Y-120617780D01*
X157185519Y-120572718D01*
X157180024Y-120517885D01*
X157186539Y-120437166D01*
X157203898Y-120377553D01*
X157229972Y-120334092D01*
X157267216Y-120301172D01*
X157315836Y-120280608D01*
X157379448Y-120273154D01*
X157423290Y-120284145D01*
X157517445Y-120318217D01*
X157525628Y-120306004D01*
X157496929Y-120242990D01*
X157514148Y-120221863D01*
X157559822Y-120214291D01*
X157610380Y-120225282D01*
G37*
G36*
X156549238Y-119971672D02*
G01*
X156601046Y-119994228D01*
X156647448Y-120030892D01*
X156693248Y-120087041D01*
X156850418Y-120264483D01*
X156933705Y-120370240D01*
X156959254Y-120416881D01*
X156971929Y-120454138D01*
X157008199Y-120520327D01*
X157034822Y-120571496D01*
X157086845Y-120635610D01*
X157127756Y-120676277D01*
X157161950Y-120722561D01*
X157185153Y-120753579D01*
X157149616Y-120828318D01*
X157130443Y-120878632D01*
X157069016Y-120817205D01*
X157058025Y-120843094D01*
X157043329Y-120906094D01*
X157017725Y-120968635D01*
X156983055Y-121028888D01*
X156937857Y-121091245D01*
X156844923Y-121213977D01*
X156859333Y-121254766D01*
X156899511Y-121303859D01*
X156977424Y-121388367D01*
X157015038Y-121442833D01*
X157053995Y-121498764D01*
X157090143Y-121562145D01*
X157116765Y-121618688D01*
X157142044Y-121683412D01*
X157149616Y-121715530D01*
X157145464Y-121853161D01*
X157134595Y-121922648D01*
X157110986Y-121954422D01*
X157073778Y-121977847D01*
X157026644Y-121991131D01*
X156958251Y-121996287D01*
X156858633Y-121981118D01*
X156748764Y-121931876D01*
X156624249Y-121839483D01*
X156539791Y-121754150D01*
X156482366Y-121674351D01*
X156447196Y-121598832D01*
X156430931Y-121525997D01*
X156430159Y-121518304D01*
X156638660Y-121518304D01*
X156649355Y-121584547D01*
X156684030Y-121656623D01*
X156749302Y-121737512D01*
X156828225Y-121804825D01*
X156899205Y-121840537D01*
X156965212Y-121851573D01*
X156992692Y-121848101D01*
X157009665Y-121839239D01*
X157020063Y-121824401D01*
X157023953Y-121801015D01*
X157003436Y-121729940D01*
X156971929Y-121658988D01*
X156911845Y-121567397D01*
X156854448Y-121475928D01*
X156774581Y-121362477D01*
X156736967Y-121324253D01*
X156720394Y-121328580D01*
X156702896Y-121343304D01*
X156668702Y-121402166D01*
X156646842Y-121467013D01*
X156638660Y-121518304D01*
X156430159Y-121518304D01*
X156427512Y-121491926D01*
X156424092Y-121470188D01*
X156441457Y-121380108D01*
X156463049Y-121310697D01*
X156491911Y-121249608D01*
X156523866Y-121204330D01*
X156555983Y-121164884D01*
X156568928Y-121133499D01*
X156480146Y-121010889D01*
X156415300Y-120922962D01*
X156379030Y-120878632D01*
X156430931Y-120753579D01*
X156589445Y-120935785D01*
X156645088Y-120991756D01*
X156668702Y-121008203D01*
X156700087Y-120980969D01*
X156723290Y-120953614D01*
X156784228Y-120867030D01*
X156813538Y-120823921D01*
X156834054Y-120757854D01*
X156840771Y-120665652D01*
X156823063Y-120601538D01*
X156774581Y-120551713D01*
X156731472Y-120510069D01*
X156640003Y-120408464D01*
X156551221Y-120308080D01*
X156449371Y-120175701D01*
X156422359Y-120126077D01*
X156415910Y-120099253D01*
X156421576Y-120037130D01*
X156435694Y-119998381D01*
X156460237Y-119972665D01*
X156493824Y-119964187D01*
X156549238Y-119971672D01*
G37*
G36*
X156434839Y-120753579D02*
G01*
X156426657Y-120744054D01*
X156422505Y-120730376D01*
X156377093Y-120677631D01*
X156292812Y-120598363D01*
X156208690Y-120518888D01*
X156164340Y-120466350D01*
X156132955Y-120434965D01*
X156097295Y-120425317D01*
X156052469Y-120431552D01*
X156016817Y-120449253D01*
X155989974Y-120478203D01*
X155972976Y-120520938D01*
X155955268Y-120606301D01*
X155941591Y-120693007D01*
X155918387Y-120776050D01*
X155897871Y-120839675D01*
X155877355Y-120859459D01*
X155843161Y-120865565D01*
X155792725Y-120856772D01*
X155739357Y-120825997D01*
X155696371Y-120789849D01*
X155651919Y-120753579D01*
X155597330Y-120878632D01*
X155655460Y-120928579D01*
X155742166Y-120993426D01*
X155837787Y-121054242D01*
X155897871Y-121074026D01*
X156010459Y-121064860D01*
X156059071Y-121045327D01*
X156092231Y-121001852D01*
X156141015Y-120885593D01*
X156157501Y-120859581D01*
X156182048Y-120824043D01*
X156210746Y-120776905D01*
X156231140Y-120761151D01*
X156253770Y-120767060D01*
X156290003Y-120790582D01*
X156380129Y-120878632D01*
X156397226Y-120836500D01*
X156418475Y-120779347D01*
X156425191Y-120764448D01*
X156434839Y-120753579D01*
G37*
G36*
X155863677Y-119675003D02*
G01*
X155832572Y-119678885D01*
X155813852Y-119688681D01*
X155802264Y-119704849D01*
X155798098Y-119728248D01*
X155811775Y-119792484D01*
X155835711Y-119873206D01*
X155851465Y-119918269D01*
X155884926Y-119970903D01*
X155936095Y-120011081D01*
X155988729Y-120041856D01*
X156018161Y-120049427D01*
X156062613Y-120044665D01*
X156104134Y-120042588D01*
X156119399Y-120029412D01*
X156132222Y-120005708D01*
X156142480Y-119931824D01*
X156132159Y-119890183D01*
X156092655Y-119828754D01*
X156041292Y-119777949D01*
X156004483Y-119762442D01*
X155949773Y-119696863D01*
X155914235Y-119681231D01*
X155863677Y-119675003D01*
G37*
G36*
X155653262Y-120753579D02*
G01*
X155640928Y-120742833D01*
X155621755Y-120707906D01*
X155571318Y-120660767D01*
X155528332Y-120632557D01*
X155485223Y-120603004D01*
X155318527Y-120460854D01*
X155225715Y-120390512D01*
X155138154Y-120343374D01*
X155101372Y-120309278D01*
X155030931Y-120268269D01*
X154954896Y-120238100D01*
X154903192Y-120229923D01*
X154872540Y-120240914D01*
X154858129Y-120268147D01*
X154858129Y-120343374D01*
X154863828Y-120380900D01*
X154880722Y-120413715D01*
X154907471Y-120442049D01*
X154948255Y-120470380D01*
X155008461Y-120500422D01*
X155068545Y-120530464D01*
X155126552Y-120581755D01*
X155254291Y-120682138D01*
X155315840Y-120733429D01*
X155349912Y-120769577D01*
X155371161Y-120827096D01*
X155378611Y-120899392D01*
X155369085Y-120953492D01*
X155340387Y-120989640D01*
X155302773Y-121008813D01*
X155243300Y-121027864D01*
X155189445Y-121011988D01*
X155114951Y-120992083D01*
X155019940Y-120934197D01*
X154923586Y-120872159D01*
X154906612Y-120863244D01*
X154885362Y-120848712D01*
X154847871Y-120807313D01*
X154789741Y-120753579D01*
X154735153Y-120878632D01*
X154837613Y-120963506D01*
X154892779Y-121002628D01*
X154956437Y-121034459D01*
X154993318Y-121067554D01*
X155067295Y-121128077D01*
X155152564Y-121171723D01*
X155247449Y-121197712D01*
X155359438Y-121206894D01*
X155405966Y-121202742D01*
X155440038Y-121191751D01*
X155509769Y-121143391D01*
X155560327Y-121101381D01*
X155590369Y-121063401D01*
X155607466Y-121016629D01*
X155612229Y-120948974D01*
X155605390Y-120913192D01*
X155598551Y-120878632D01*
X155621755Y-120817449D01*
X155653262Y-120753579D01*
G37*
G36*
X153269696Y-119177969D02*
G01*
X153318789Y-119212041D01*
X153372766Y-119252341D01*
X153403541Y-119269316D01*
X153441122Y-119312029D01*
X153462892Y-119347107D01*
X153482532Y-119376014D01*
X153500505Y-119385331D01*
X153568771Y-119398886D01*
X153622138Y-119460314D01*
X153579762Y-119527114D01*
X153579762Y-119533953D01*
X153621406Y-119593304D01*
X153648914Y-119640268D01*
X153693091Y-119745467D01*
X153716416Y-119808237D01*
X153743649Y-119895554D01*
X153820219Y-120147979D01*
X153852948Y-120242135D01*
X153881646Y-120295258D01*
X153898011Y-120338977D01*
X153903110Y-120361809D01*
X153915230Y-120380621D01*
X153956751Y-120409930D01*
X154016224Y-120435819D01*
X154044190Y-120452184D01*
X154076919Y-120506161D01*
X154087909Y-120583342D01*
X154087177Y-120599829D01*
X154082536Y-120624375D01*
X154090596Y-120652341D01*
X154093405Y-120673468D01*
X154086566Y-120702288D01*
X154064706Y-120714501D01*
X154020987Y-120707662D01*
X154014148Y-120718653D01*
X154037351Y-120796933D01*
X154056524Y-120857383D01*
X154068859Y-120891577D01*
X154083879Y-120958866D01*
X154116608Y-121076957D01*
X154142620Y-121177829D01*
X154150802Y-121259651D01*
X154147111Y-121289741D01*
X154137735Y-121308255D01*
X154122523Y-121320030D01*
X154101587Y-121324131D01*
X154048220Y-121313750D01*
X154016835Y-121281632D01*
X153987526Y-121216297D01*
X153968963Y-121167693D01*
X153958827Y-121112128D01*
X153955408Y-121071584D01*
X153930861Y-121009180D01*
X153911688Y-120964605D01*
X153889829Y-120886448D01*
X153874808Y-120839675D01*
X153833164Y-120743688D01*
X153813258Y-120683237D01*
X153795551Y-120647578D01*
X153768196Y-120635244D01*
X153717027Y-120624986D01*
X153649371Y-120596775D01*
X153538729Y-120555010D01*
X153459473Y-120530952D01*
X153413066Y-120508970D01*
X153320865Y-120501521D01*
X153269574Y-120489797D01*
X153230739Y-120469891D01*
X153206681Y-120463785D01*
X153197156Y-120467815D01*
X153179448Y-120595310D01*
X153199965Y-120632435D01*
X153198621Y-120682505D01*
X153203995Y-120735261D01*
X153190317Y-120783255D01*
X153197889Y-120910139D01*
X153205338Y-121032871D01*
X153202651Y-121061692D01*
X153199965Y-121087704D01*
X153204727Y-121127515D01*
X153209490Y-121167205D01*
X153200575Y-121214588D01*
X153189422Y-121226427D01*
X153173953Y-121230341D01*
X153143244Y-121224689D01*
X153116556Y-121207627D01*
X153095466Y-121180571D01*
X153076988Y-121137041D01*
X153059891Y-121064378D01*
X153042794Y-120990373D01*
X153055129Y-120941036D01*
X153048290Y-120908063D01*
X153027773Y-120846392D01*
X153015561Y-120757243D01*
X153011409Y-120694106D01*
X152986741Y-120499445D01*
X153004570Y-120414448D01*
X152990160Y-120400771D01*
X152962194Y-120381475D01*
X152941067Y-120358883D01*
X152933496Y-120319804D01*
X152945097Y-120289884D01*
X152979902Y-120277550D01*
X152990160Y-120270101D01*
X152993579Y-120255812D01*
X152977419Y-120106580D01*
X153190317Y-120106580D01*
X153200575Y-120172892D01*
X153203872Y-120230900D01*
X153201186Y-120286953D01*
X153208025Y-120306737D01*
X153228541Y-120316995D01*
X153295586Y-120332871D01*
X153362508Y-120348747D01*
X153400732Y-120341786D01*
X153493667Y-120357051D01*
X153586479Y-120372194D01*
X153630931Y-120375003D01*
X153675383Y-120377690D01*
X153689672Y-120372927D01*
X153694434Y-120358394D01*
X153693824Y-120343251D01*
X153686252Y-120326643D01*
X153598813Y-120145537D01*
X153572786Y-120070713D01*
X153561933Y-120016454D01*
X153509298Y-119927672D01*
X153486828Y-119882487D01*
X153459160Y-119800101D01*
X153433461Y-119749986D01*
X153402586Y-119715297D01*
X153377529Y-119706266D01*
X153332466Y-119718600D01*
X153291434Y-119756824D01*
X153263468Y-119799933D01*
X153235380Y-119844263D01*
X153220359Y-119870275D01*
X153210711Y-119887983D01*
X153210101Y-119932435D01*
X153201186Y-119989099D01*
X153206681Y-120045153D01*
X153190317Y-120106580D01*
X152977419Y-120106580D01*
X152975872Y-120092292D01*
X153005914Y-119931458D01*
X152986741Y-119812878D01*
X152991625Y-119754993D01*
X153004570Y-119664378D01*
X153022400Y-119561552D01*
X153035625Y-119529328D01*
X153046946Y-119518565D01*
X153210833Y-119430027D01*
X153225244Y-119418426D01*
X153231350Y-119395956D01*
X153225033Y-119363542D01*
X153199965Y-119308761D01*
X153174794Y-119253868D01*
X153168457Y-119221444D01*
X153172687Y-119199053D01*
X153184944Y-119181999D01*
X153204651Y-119171261D01*
X153238189Y-119166978D01*
X153269696Y-119177969D01*
G37*
G36*
X152859124Y-120753579D02*
G01*
X152844713Y-120732330D01*
X152823586Y-120704120D01*
X152788049Y-120672613D01*
X152738834Y-120624497D01*
X152678750Y-120556598D01*
X152592655Y-120458290D01*
X152538066Y-120398572D01*
X152460153Y-120311378D01*
X152419565Y-120271093D01*
X152378210Y-120244089D01*
X152333149Y-120227610D01*
X152285275Y-120222107D01*
X152241392Y-120230342D01*
X152212857Y-120253004D01*
X152196125Y-120288331D01*
X152189654Y-120342763D01*
X152212857Y-120463541D01*
X152285275Y-120699357D01*
X152308478Y-120751503D01*
X152319469Y-120782889D01*
X152322156Y-120803405D01*
X152312630Y-120823921D01*
X152299685Y-120812930D01*
X152285275Y-120796566D01*
X152251936Y-120753579D01*
X152197836Y-120703876D01*
X152165840Y-120658447D01*
X152121388Y-120616926D01*
X152107100Y-120599340D01*
X152085851Y-120573450D01*
X152043475Y-120536814D01*
X151986078Y-120497369D01*
X151919888Y-120467449D01*
X151868597Y-120456580D01*
X151828200Y-120461828D01*
X151793492Y-120477096D01*
X151763932Y-120502415D01*
X151737438Y-120541332D01*
X151685415Y-120698503D01*
X151651953Y-120761395D01*
X151631849Y-120777013D01*
X151610310Y-120781912D01*
X151578314Y-120774829D01*
X151551570Y-120753579D01*
X151496981Y-120878632D01*
X151544853Y-120918810D01*
X151592602Y-120958866D01*
X151651343Y-120999776D01*
X151705931Y-121011500D01*
X151766015Y-120997822D01*
X151792447Y-120980909D01*
X151815230Y-120956789D01*
X151842585Y-120916489D01*
X151880809Y-120843339D01*
X151921231Y-120796200D01*
X151973743Y-120727201D01*
X151986078Y-120723049D01*
X152037369Y-120747595D01*
X152091224Y-120789727D01*
X152180129Y-120857871D01*
X152217009Y-120889134D01*
X152282588Y-120973520D01*
X152398726Y-121096008D01*
X152434263Y-121130690D01*
X152469801Y-121164030D01*
X152510101Y-121185157D01*
X152559926Y-121191263D01*
X152603724Y-121180781D01*
X152619277Y-121153771D01*
X152628192Y-121077934D01*
X152581786Y-120934685D01*
X152521580Y-120733796D01*
X152516817Y-120715478D01*
X152505216Y-120684703D01*
X152495690Y-120653928D01*
X152492882Y-120631336D01*
X152499720Y-120616437D01*
X152521580Y-120610942D01*
X152557850Y-120627306D01*
X152611706Y-120679207D01*
X152673255Y-120743443D01*
X152704640Y-120770799D01*
X152736758Y-120798154D01*
X152778401Y-120837721D01*
X152786706Y-120854085D01*
X152804413Y-120878632D01*
X152823586Y-120828318D01*
X152859124Y-120753579D01*
G37*
G36*
X151510170Y-120692641D02*
G01*
X151385851Y-120609598D01*
X151369487Y-120591036D01*
X151347627Y-120557330D01*
X151322348Y-120527166D01*
X151286078Y-120505184D01*
X151254692Y-120470868D01*
X151202791Y-120422752D01*
X151164567Y-120398695D01*
X151113886Y-120356807D01*
X150991068Y-120248392D01*
X150896022Y-120179609D01*
X150804031Y-120133203D01*
X150738241Y-120120502D01*
X150705782Y-120124746D01*
X150685607Y-120135645D01*
X150672995Y-120153355D01*
X150668510Y-120178265D01*
X150678768Y-120229190D01*
X150710886Y-120266315D01*
X150784647Y-120321392D01*
X150837892Y-120382575D01*
X150911653Y-120446566D01*
X150934856Y-120478196D01*
X150960868Y-120502986D01*
X151011427Y-120544263D01*
X151030502Y-120575426D01*
X151070900Y-120622665D01*
X151193143Y-120738192D01*
X151227337Y-120781912D01*
X151291573Y-120872037D01*
X151281926Y-120884371D01*
X151219155Y-120851399D01*
X151146737Y-120789605D01*
X151071022Y-120720240D01*
X151029256Y-120685191D01*
X151010205Y-120674200D01*
X150988224Y-120660401D01*
X150924362Y-120591638D01*
X150870865Y-120548415D01*
X150815929Y-120520322D01*
X150769626Y-120512023D01*
X150744192Y-120517783D01*
X150725907Y-120534738D01*
X150714590Y-120560712D01*
X150708199Y-120602637D01*
X150710886Y-120734528D01*
X150705575Y-120776359D01*
X150687072Y-120813541D01*
X150657624Y-120839949D01*
X150620760Y-120848590D01*
X150596824Y-120841873D01*
X150572889Y-120824166D01*
X150554448Y-120801085D01*
X150536008Y-120779347D01*
X150520254Y-120769944D01*
X150500471Y-120753579D01*
X150468353Y-120825020D01*
X150448569Y-120878632D01*
X150510729Y-120938471D01*
X150575697Y-120996967D01*
X150654954Y-121044473D01*
X150731402Y-121060226D01*
X150812131Y-121046766D01*
X150868056Y-121009668D01*
X150904476Y-120950038D01*
X150924110Y-120856650D01*
X150927529Y-120831371D01*
X150941817Y-120804748D01*
X150956838Y-120819159D01*
X150976011Y-120838942D01*
X151020341Y-120873136D01*
X151082501Y-120922229D01*
X151163224Y-121002951D01*
X151209630Y-121047892D01*
X151273133Y-121094542D01*
X151354466Y-121142658D01*
X151403558Y-121166716D01*
X151433600Y-121175631D01*
X151493041Y-121166742D01*
X151530565Y-121143391D01*
X151553334Y-121104899D01*
X151562072Y-121043618D01*
X151558136Y-121007357D01*
X151546318Y-120972787D01*
X151499180Y-120907452D01*
X151496493Y-120878632D01*
X151499912Y-120864344D01*
X151508827Y-120847369D01*
X151527145Y-120804626D01*
X151549738Y-120753579D01*
X151533984Y-120732208D01*
X151510170Y-120692641D01*
G37*
G36*
X149827827Y-119233148D02*
G01*
X149878995Y-119276521D01*
X149928559Y-119339237D01*
X149993056Y-119439675D01*
X150079152Y-119600020D01*
X150140579Y-119749497D01*
X150174773Y-119825579D01*
X150203471Y-119881022D01*
X150276622Y-120117571D01*
X150326448Y-120318339D01*
X150318265Y-120344351D01*
X150340125Y-120433499D01*
X150352337Y-120539012D01*
X150348307Y-120567833D01*
X150349040Y-120587006D01*
X150355146Y-120597875D01*
X150445272Y-120677131D01*
X150478000Y-120720118D01*
X150502669Y-120753579D01*
X150447958Y-120878632D01*
X150389951Y-120822700D01*
X150348185Y-120780324D01*
X150331210Y-120802184D01*
X150323639Y-120824043D01*
X150293663Y-120937907D01*
X150253297Y-121010034D01*
X150216466Y-121044980D01*
X150174930Y-121065285D01*
X150126901Y-121072194D01*
X150058635Y-121077079D01*
X149991591Y-121081842D01*
X149949595Y-121077306D01*
X149905617Y-121063157D01*
X149863073Y-121040699D01*
X149819521Y-121008569D01*
X149747103Y-120943600D01*
X149676029Y-120878632D01*
X149729396Y-120753579D01*
X149785450Y-120801207D01*
X149827704Y-120832226D01*
X149922103Y-120862512D01*
X149963014Y-120872159D01*
X150029920Y-120863948D01*
X150081299Y-120841177D01*
X150120917Y-120804382D01*
X150148361Y-120756192D01*
X150166606Y-120690910D01*
X150173429Y-120603492D01*
X150085990Y-120459511D01*
X150030059Y-120378667D01*
X149990369Y-120321147D01*
X149968510Y-120274497D01*
X149950680Y-120240181D01*
X149917951Y-120190844D01*
X149896092Y-120155184D01*
X149870080Y-120100474D01*
X149856402Y-120059319D01*
X149828436Y-120014745D01*
X149807187Y-119981161D01*
X149771772Y-119882487D01*
X149747103Y-119802864D01*
X149718527Y-119737163D01*
X149702041Y-119690512D01*
X149702905Y-119678178D01*
X149850907Y-119678178D01*
X149862508Y-119730935D01*
X149870080Y-119785157D01*
X149921981Y-119944159D01*
X149968462Y-120056571D01*
X149991591Y-120099009D01*
X150038119Y-120177166D01*
X150069504Y-120234685D01*
X150110537Y-120303318D01*
X150140579Y-120327986D01*
X150148761Y-120316995D01*
X150135083Y-120248485D01*
X150095516Y-120123677D01*
X150050331Y-120030498D01*
X150023831Y-119972247D01*
X150014916Y-119940006D01*
X150005701Y-119879036D01*
X149975959Y-119812512D01*
X149930111Y-119747701D01*
X149860432Y-119672683D01*
X149850907Y-119678178D01*
X149702905Y-119678178D01*
X149703384Y-119671339D01*
X149696545Y-119649357D01*
X149681524Y-119571200D01*
X149666503Y-119505498D01*
X149659054Y-119436256D01*
X149651482Y-119368356D01*
X149660285Y-119291607D01*
X149680914Y-119252585D01*
X149718214Y-119230772D01*
X149789480Y-119221688D01*
X149827827Y-119233148D01*
G37*
G36*
X149732815Y-120753579D02*
G01*
X149636461Y-120673590D01*
X149540108Y-120596287D01*
X149486863Y-120536692D01*
X149408949Y-120453893D01*
X149355826Y-120415547D01*
X149303803Y-120401870D01*
X149273717Y-120406298D01*
X149252634Y-120418356D01*
X149239177Y-120438283D01*
X149234071Y-120470380D01*
X149242203Y-120530939D01*
X149275104Y-120642937D01*
X149307697Y-120755894D01*
X149316137Y-120823555D01*
X149310031Y-120842850D01*
X149295621Y-120848224D01*
X149288782Y-120846880D01*
X149227965Y-120805481D01*
X149149441Y-120743688D01*
X149061392Y-120658203D01*
X148937683Y-120535959D01*
X148875523Y-120480272D01*
X148796999Y-120398817D01*
X148776030Y-120377350D01*
X148747051Y-120360715D01*
X148712809Y-120350804D01*
X148668527Y-120347159D01*
X148639497Y-120350443D01*
X148621388Y-120358761D01*
X148609750Y-120372849D01*
X148605635Y-120393443D01*
X148607711Y-120411884D01*
X148611130Y-120428859D01*
X148639829Y-120528998D01*
X148686235Y-120668583D01*
X148734717Y-120789117D01*
X148788695Y-120943600D01*
X148779169Y-120955935D01*
X148693806Y-120890966D01*
X148551046Y-120753579D01*
X148496336Y-120878632D01*
X148522958Y-120905254D01*
X148564602Y-120938593D01*
X148703781Y-121044461D01*
X148815317Y-121143757D01*
X148911484Y-121247701D01*
X148981402Y-121344769D01*
X149133688Y-121588768D01*
X149221859Y-121721025D01*
X149318569Y-121833981D01*
X149400889Y-121905062D01*
X149487184Y-121950988D01*
X149566120Y-121965024D01*
X149593484Y-121961524D01*
X149609839Y-121952690D01*
X149619775Y-121937928D01*
X149623517Y-121914588D01*
X149616678Y-121880516D01*
X149592009Y-121837041D01*
X149544260Y-121760715D01*
X149503227Y-121725300D01*
X149497732Y-121700875D01*
X149482100Y-121684511D01*
X149458164Y-121662651D01*
X149406995Y-121581685D01*
X149290125Y-121436605D01*
X149187665Y-121320223D01*
X149108408Y-121233761D01*
X149096807Y-121207749D01*
X149086549Y-121177951D01*
X149047714Y-121092100D01*
X148996423Y-120973642D01*
X148973220Y-120883028D01*
X148955390Y-120772020D01*
X148958810Y-120757854D01*
X148964916Y-120732575D01*
X149019016Y-120769333D01*
X149082397Y-120826486D01*
X149129090Y-120881434D01*
X149173988Y-120923939D01*
X149221253Y-120958821D01*
X149265579Y-120983046D01*
X149300792Y-121035001D01*
X149342759Y-121069630D01*
X149392694Y-121090312D01*
X149451325Y-121097473D01*
X149492560Y-121091680D01*
X149519713Y-121076346D01*
X149536592Y-121050875D01*
X149542916Y-121011256D01*
X149540840Y-120990861D01*
X149534612Y-120962041D01*
X149548290Y-120923817D01*
X149538764Y-120871793D01*
X149544993Y-120810366D01*
X149553637Y-120794306D01*
X149564654Y-120789849D01*
X149570150Y-120792658D01*
X149612526Y-120825387D01*
X149678105Y-120878632D01*
X149695202Y-120836500D01*
X149716451Y-120779347D01*
X149723168Y-120764448D01*
X149732815Y-120753579D01*
G37*
G36*
X148122278Y-120338367D02*
G01*
X148150976Y-120358639D01*
X148312177Y-120535104D01*
X148411950Y-120625963D01*
X148508914Y-120693862D01*
X148530774Y-120725858D01*
X148552634Y-120753579D01*
X148497923Y-120878632D01*
X148443335Y-120820502D01*
X148417323Y-120794734D01*
X148361392Y-120752847D01*
X148332693Y-120725736D01*
X148303995Y-120692641D01*
X148258810Y-120650020D01*
X148202145Y-120612163D01*
X148167341Y-120599951D01*
X148133879Y-120614972D01*
X148101762Y-120664064D01*
X148082588Y-120716454D01*
X148074406Y-120755289D01*
X148090611Y-120812777D01*
X148163921Y-120936639D01*
X148218014Y-121027488D01*
X148245480Y-121098100D01*
X148253436Y-121153283D01*
X148237683Y-121234982D01*
X148221929Y-121297752D01*
X148247941Y-121337930D01*
X148329884Y-121427201D01*
X148448709Y-121556650D01*
X148532117Y-121658866D01*
X148612718Y-121793077D01*
X148633890Y-121851381D01*
X148640073Y-121897369D01*
X148629466Y-121963976D01*
X148601116Y-122007034D01*
X148555355Y-122033206D01*
X148484246Y-122043182D01*
X148417036Y-122036178D01*
X148342951Y-122013872D01*
X148269004Y-121978285D01*
X148186392Y-121924602D01*
X148068154Y-121823447D01*
X147989654Y-121724933D01*
X147952672Y-121653299D01*
X147931171Y-121581717D01*
X147927520Y-121544316D01*
X148139986Y-121544316D01*
X148146824Y-121609773D01*
X148156880Y-121664959D01*
X148190227Y-121726822D01*
X148254780Y-121798572D01*
X148330992Y-121858231D01*
X148395950Y-121889325D01*
X148452861Y-121898712D01*
X148481559Y-121887110D01*
X148491085Y-121850963D01*
X148468672Y-121794902D01*
X148348325Y-121626748D01*
X148213499Y-121471744D01*
X148174180Y-121446252D01*
X148166287Y-121452827D01*
X148152320Y-121489117D01*
X148139986Y-121544316D01*
X147927520Y-121544316D01*
X147924075Y-121509023D01*
X147931393Y-121447578D01*
X147956193Y-121370659D01*
X147988311Y-121273206D01*
X147974633Y-121239012D01*
X147944591Y-121210802D01*
X147918579Y-121189675D01*
X147861304Y-121139605D01*
X147822958Y-121101992D01*
X147672016Y-120973154D01*
X147566137Y-120878632D01*
X147620847Y-120753579D01*
X147731489Y-120878265D01*
X147802564Y-120947997D01*
X147885466Y-121019621D01*
X147924197Y-121065722D01*
X147977442Y-121104190D01*
X148018475Y-121134232D01*
X148028000Y-121135575D01*
X148040938Y-121131599D01*
X148051203Y-121118600D01*
X148059385Y-121066088D01*
X148041689Y-121012421D01*
X147959734Y-120894996D01*
X147902590Y-120808824D01*
X147870385Y-120725248D01*
X147859961Y-120642205D01*
X147867230Y-120540509D01*
X147886552Y-120465069D01*
X147915282Y-120409930D01*
X147957533Y-120367039D01*
X148012015Y-120340889D01*
X148082711Y-120331528D01*
X148122278Y-120338367D01*
G37*
G36*
X147151168Y-120046496D02*
G01*
X147188049Y-120056022D01*
X147223586Y-120080690D01*
X147256315Y-120103771D01*
X147319207Y-120179609D01*
X147379291Y-120248607D01*
X147434734Y-120349602D01*
X147468196Y-120424706D01*
X147487979Y-120480760D01*
X147500924Y-120525823D01*
X147506420Y-120579678D01*
X147514602Y-120633656D01*
X147580181Y-120695083D01*
X147622557Y-120753579D01*
X147587020Y-120828318D01*
X147567847Y-120878632D01*
X147537805Y-120847979D01*
X147513258Y-120837721D01*
X147488712Y-120852131D01*
X147465387Y-120896339D01*
X147436688Y-120959720D01*
X147409333Y-120999776D01*
X147380484Y-121024848D01*
X147344487Y-121043496D01*
X147303715Y-121054487D01*
X147254972Y-121058394D01*
X147188782Y-121052288D01*
X147138834Y-121032505D01*
X147085560Y-121023623D01*
X147022086Y-120993670D01*
X146958530Y-120948364D01*
X146880669Y-120878632D01*
X146902529Y-120824288D01*
X146933914Y-120753579D01*
X146963956Y-120773119D01*
X146985816Y-120784354D01*
X147063729Y-120816838D01*
X147160694Y-120834424D01*
X147217480Y-120819403D01*
X147252285Y-120803039D01*
X147281594Y-120770310D01*
X147291852Y-120719752D01*
X147285013Y-120689099D01*
X147268649Y-120665041D01*
X147162535Y-120555963D01*
X147088276Y-120468548D01*
X147030665Y-120382894D01*
X147010294Y-120335680D01*
X147166189Y-120335680D01*
X147174371Y-120374270D01*
X147199040Y-120412861D01*
X147227006Y-120444002D01*
X147256437Y-120473555D01*
X147274145Y-120503230D01*
X147285417Y-120515354D01*
X147298813Y-120519106D01*
X147313101Y-120515687D01*
X147316521Y-120503963D01*
X147306784Y-120463182D01*
X147265963Y-120387459D01*
X147214310Y-120322163D01*
X147185362Y-120308080D01*
X147170952Y-120315652D01*
X147166189Y-120335680D01*
X147010294Y-120335680D01*
X147002180Y-120316873D01*
X146989968Y-120273154D01*
X146975558Y-120225404D01*
X146970795Y-120218565D01*
X146980321Y-120158482D01*
X146997418Y-120105115D01*
X147015858Y-120072386D01*
X147050785Y-120049183D01*
X147106106Y-120042344D01*
X147151168Y-120046496D01*
G37*
G36*
X146936723Y-120750893D02*
G01*
X146893004Y-120690809D01*
X146799429Y-120607611D01*
X146729727Y-120533028D01*
X146672966Y-120456636D01*
X146637526Y-120391489D01*
X146651203Y-120325788D01*
X146624690Y-120292761D01*
X146563032Y-120245188D01*
X146494379Y-120208335D01*
X146448970Y-120198660D01*
X146405555Y-120205670D01*
X146370324Y-120226015D01*
X146308164Y-120283412D01*
X146286304Y-120298433D01*
X146239176Y-120346444D01*
X146204361Y-120412006D01*
X146184379Y-120488932D01*
X146177006Y-120588349D01*
X146185736Y-120647725D01*
X146219382Y-120744909D01*
X146253146Y-120841749D01*
X146261758Y-120898782D01*
X146256995Y-120909773D01*
X146244050Y-120913803D01*
X146201674Y-120898171D01*
X146148429Y-120855062D01*
X146060868Y-120776660D01*
X146023988Y-120751259D01*
X145998098Y-120810000D01*
X145969399Y-120876922D01*
X145997487Y-120902934D01*
X146034979Y-120937006D01*
X146155879Y-121019804D01*
X146334176Y-121131301D01*
X146396946Y-121160000D01*
X146450236Y-121155086D01*
X146483042Y-121142903D01*
X146504298Y-121121034D01*
X146511741Y-121087581D01*
X146505635Y-121052655D01*
X146488538Y-121009546D01*
X146470830Y-120973398D01*
X146454344Y-120935785D01*
X146408670Y-120775806D01*
X146392916Y-120643060D01*
X146399322Y-120575634D01*
X146415509Y-120532418D01*
X146443532Y-120502346D01*
X146483042Y-120488576D01*
X146548621Y-120535104D01*
X146621039Y-120610209D01*
X146692114Y-120690809D01*
X146744016Y-120733185D01*
X146783705Y-120779591D01*
X146856001Y-120835645D01*
X146864305Y-120852009D01*
X146882013Y-120876556D01*
X146906681Y-120814518D01*
X146936723Y-120750893D01*
G37*
G36*
X158233565Y-123257103D02*
G01*
X158260799Y-123256371D01*
X158288154Y-123252951D01*
X158417969Y-123261866D01*
X158564148Y-123289832D01*
X158639986Y-123311692D01*
X158831960Y-123366402D01*
X158877756Y-123385575D01*
X158892044Y-123403283D01*
X158905111Y-123436011D01*
X158941259Y-123470205D01*
X158948098Y-123498904D01*
X158950785Y-123546653D01*
X158943335Y-123560331D01*
X158919399Y-123564483D01*
X158864859Y-123557917D01*
X158771877Y-123532365D01*
X158678614Y-123506857D01*
X158622889Y-123500247D01*
X158597609Y-123507086D01*
X158588695Y-123524916D01*
X158599685Y-123550195D01*
X158632414Y-123586343D01*
X158678942Y-123636290D01*
X158710327Y-123678056D01*
X158740491Y-123753283D01*
X158751360Y-123840722D01*
X158748674Y-123861971D01*
X158740369Y-123891402D01*
X158766381Y-124066524D01*
X158786775Y-124212704D01*
X158898883Y-124280481D01*
X158929793Y-124309163D01*
X158937107Y-124327620D01*
X158929792Y-124364684D01*
X158908733Y-124391703D01*
X158870917Y-124410907D01*
X158834041Y-124430681D01*
X158812451Y-124461320D01*
X158804605Y-124506528D01*
X158805338Y-124526311D01*
X158805949Y-124552934D01*
X158797766Y-124562459D01*
X158795080Y-124603370D01*
X158803510Y-124628266D01*
X158812787Y-124694961D01*
X158819626Y-124899759D01*
X158819016Y-124927114D01*
X158818283Y-125008935D01*
X158830617Y-125043129D01*
X158870184Y-125077201D01*
X158928314Y-125121653D01*
X158963119Y-125150963D01*
X158989741Y-125169403D01*
X158998656Y-125189187D01*
X158990474Y-125214466D01*
X158968614Y-125234249D01*
X158941992Y-125247194D01*
X158913904Y-125261605D01*
X158835990Y-125241088D01*
X158818283Y-125249270D01*
X158809687Y-125285532D01*
X158797766Y-125307278D01*
X158780240Y-125320998D01*
X158756734Y-125325718D01*
X158715823Y-125316803D01*
X158688468Y-125292990D01*
X158672836Y-125256109D01*
X158657083Y-125217885D01*
X158364820Y-125144057D01*
X158151248Y-125074714D01*
X158000680Y-125010401D01*
X157891268Y-124945512D01*
X157825752Y-124886464D01*
X157791786Y-124832023D01*
X157781350Y-124779591D01*
X157787512Y-124745397D01*
X158050505Y-124745397D01*
X158059339Y-124768881D01*
X158095568Y-124803405D01*
X158147109Y-124835479D01*
X158230879Y-124875090D01*
X158451552Y-124978283D01*
X158465249Y-124984050D01*
X158506751Y-124987076D01*
X158628384Y-125018461D01*
X158639253Y-125012965D01*
X158642062Y-124999288D01*
X158628384Y-124926992D01*
X158617515Y-124789849D01*
X158606524Y-124652585D01*
X158581245Y-124541332D01*
X158562256Y-124511502D01*
X158543632Y-124503719D01*
X158521161Y-124511901D01*
X158475366Y-124533761D01*
X158440561Y-124544019D01*
X158412473Y-124552812D01*
X158241748Y-124613628D01*
X158099720Y-124688000D01*
X158062840Y-124716699D01*
X158050505Y-124745397D01*
X157787512Y-124745397D01*
X157795447Y-124701368D01*
X157838014Y-124632801D01*
X157905514Y-124576988D01*
X158012281Y-124525579D01*
X158044399Y-124507749D01*
X158068213Y-124496880D01*
X158255425Y-124421775D01*
X158412473Y-124365722D01*
X158456407Y-124346973D01*
X158483548Y-124328230D01*
X158501157Y-124305110D01*
X158506751Y-124279748D01*
X158499317Y-124265495D01*
X158461688Y-124233342D01*
X158329187Y-124152620D01*
X158113276Y-124024026D01*
X158073709Y-123992641D01*
X158045010Y-123969438D01*
X157872208Y-123845607D01*
X157805896Y-123797124D01*
X157751229Y-123737732D01*
X157713695Y-123676102D01*
X157703485Y-123646549D01*
X157954884Y-123646549D01*
X157965875Y-123686971D01*
X157999947Y-123738140D01*
X158033408Y-123779905D01*
X158068213Y-123823014D01*
X158129152Y-123861971D01*
X158281437Y-123962477D01*
X158422854Y-124052725D01*
X158487700Y-124082766D01*
X158510903Y-124074584D01*
X158519085Y-124045886D01*
X158512247Y-123991175D01*
X158489043Y-123881755D01*
X158495882Y-123846217D01*
X158464497Y-123786011D01*
X158463764Y-123705411D01*
X158456193Y-123638367D01*
X158431036Y-123552271D01*
X158408443Y-123509895D01*
X158391446Y-123496357D01*
X158362648Y-123485959D01*
X158278628Y-123478387D01*
X158245900Y-123485226D01*
X158174825Y-123504399D01*
X158085432Y-123526259D01*
X158036828Y-123542623D01*
X157999790Y-123564416D01*
X157975401Y-123587808D01*
X157960006Y-123615459D01*
X157954884Y-123646549D01*
X157703485Y-123646549D01*
X157690627Y-123609332D01*
X157682920Y-123538715D01*
X157693911Y-123467030D01*
X157723953Y-123396566D01*
X157748326Y-123363184D01*
X157775244Y-123339780D01*
X157806090Y-123324948D01*
X157840090Y-123319996D01*
X157876971Y-123315844D01*
X157918614Y-123281650D01*
X157984804Y-123269316D01*
X158017655Y-123276154D01*
X158128419Y-123255027D01*
X158176168Y-123247456D01*
X158233565Y-123257103D01*
G37*
G36*
X157727616Y-124692641D02*
G01*
X157603297Y-124609598D01*
X157586933Y-124591036D01*
X157565073Y-124557330D01*
X157539794Y-124527166D01*
X157503524Y-124505184D01*
X157472138Y-124470868D01*
X157420237Y-124422752D01*
X157382013Y-124398695D01*
X157331332Y-124356807D01*
X157208514Y-124248392D01*
X157113468Y-124179609D01*
X157021477Y-124133203D01*
X156955687Y-124120502D01*
X156923228Y-124124746D01*
X156903053Y-124135645D01*
X156890440Y-124153355D01*
X156885956Y-124178265D01*
X156896214Y-124229190D01*
X156928332Y-124266315D01*
X157002093Y-124321392D01*
X157055338Y-124382575D01*
X157129099Y-124446566D01*
X157152302Y-124478196D01*
X157178314Y-124502986D01*
X157228872Y-124544263D01*
X157247947Y-124575426D01*
X157288346Y-124622665D01*
X157410589Y-124738192D01*
X157444783Y-124781912D01*
X157509019Y-124872037D01*
X157499371Y-124884371D01*
X157436601Y-124851399D01*
X157364183Y-124789605D01*
X157288468Y-124720240D01*
X157246702Y-124685191D01*
X157227651Y-124674200D01*
X157205669Y-124660401D01*
X157141808Y-124591638D01*
X157088311Y-124548415D01*
X157033375Y-124520322D01*
X156987072Y-124512023D01*
X156961638Y-124517783D01*
X156943353Y-124534738D01*
X156932036Y-124560712D01*
X156925645Y-124602637D01*
X156928332Y-124734528D01*
X156923021Y-124776359D01*
X156904518Y-124813541D01*
X156875070Y-124839949D01*
X156838206Y-124848590D01*
X156814270Y-124841873D01*
X156790334Y-124824166D01*
X156771894Y-124801085D01*
X156753454Y-124779347D01*
X156737700Y-124769944D01*
X156717916Y-124753579D01*
X156685799Y-124825020D01*
X156666015Y-124878632D01*
X156728175Y-124938471D01*
X156793143Y-124996967D01*
X156872400Y-125044473D01*
X156948848Y-125060226D01*
X157029576Y-125046766D01*
X157085502Y-125009668D01*
X157121922Y-124950038D01*
X157141556Y-124856650D01*
X157144975Y-124831371D01*
X157159263Y-124804748D01*
X157174284Y-124819159D01*
X157193457Y-124838942D01*
X157237787Y-124873136D01*
X157299947Y-124922229D01*
X157380669Y-125002951D01*
X157427076Y-125047892D01*
X157490579Y-125094542D01*
X157571912Y-125142658D01*
X157621004Y-125166716D01*
X157651046Y-125175631D01*
X157710487Y-125166742D01*
X157748011Y-125143391D01*
X157770780Y-125104899D01*
X157779518Y-125043618D01*
X157775582Y-125007357D01*
X157763764Y-124972787D01*
X157716625Y-124907452D01*
X157713939Y-124878632D01*
X157717358Y-124864344D01*
X157726273Y-124847369D01*
X157744591Y-124804626D01*
X157767184Y-124753579D01*
X157751430Y-124732208D01*
X157727616Y-124692641D01*
G37*
G36*
X156720115Y-124753579D02*
G01*
X156711933Y-124744054D01*
X156687997Y-124703021D01*
X156635362Y-124659302D01*
X156565020Y-124613018D01*
X156534246Y-124587006D01*
X156517882Y-124563803D01*
X156481001Y-124533761D01*
X156431786Y-124487355D01*
X156411392Y-124465495D01*
X156389410Y-124431301D01*
X156349110Y-124399916D01*
X156296475Y-124350701D01*
X156219417Y-124269612D01*
X156123063Y-124177288D01*
X156089602Y-124164344D01*
X156058827Y-124159581D01*
X156002746Y-124167649D01*
X155966625Y-124188890D01*
X155944054Y-124223011D01*
X155935851Y-124272421D01*
X155940614Y-124317362D01*
X155950872Y-124396252D01*
X155978227Y-124563558D01*
X156035624Y-124751259D01*
X156058217Y-124815251D01*
X156086182Y-124907697D01*
X156072505Y-124918565D01*
X156038433Y-124900491D01*
X155972732Y-124846147D01*
X155897627Y-124780446D01*
X155863433Y-124753579D01*
X155833391Y-124820868D01*
X155810188Y-124878632D01*
X155842306Y-124903056D01*
X155868928Y-124932732D01*
X155935240Y-124975963D01*
X156017794Y-125028719D01*
X156073237Y-125078056D01*
X156151762Y-125143513D01*
X156177651Y-125149009D01*
X156213921Y-125188087D01*
X156244574Y-125207016D01*
X156288293Y-125222648D01*
X156334822Y-125238157D01*
X156356681Y-125220450D01*
X156362055Y-125185157D01*
X156394905Y-125100771D01*
X156407240Y-124994647D01*
X156405896Y-124971566D01*
X156403087Y-124949829D01*
X156412735Y-124907697D01*
X156404897Y-124870406D01*
X156381350Y-124840286D01*
X156347632Y-124820349D01*
X156310153Y-124813785D01*
X156292875Y-124818892D01*
X156280844Y-124834912D01*
X156262404Y-124855917D01*
X156254670Y-124849944D01*
X156242620Y-124818548D01*
X156222714Y-124709005D01*
X156210502Y-124600317D01*
X156207693Y-124529609D01*
X156215265Y-124503108D01*
X156240544Y-124494193D01*
X156265501Y-124506068D01*
X156355338Y-124576259D01*
X156625837Y-124821113D01*
X156641468Y-124844438D01*
X156665404Y-124878632D01*
X156684577Y-124828318D01*
X156720115Y-124753579D01*
G37*
G36*
X155392899Y-124046496D02*
G01*
X155429780Y-124056022D01*
X155465317Y-124080690D01*
X155498046Y-124103771D01*
X155560938Y-124179609D01*
X155621022Y-124248607D01*
X155676465Y-124349602D01*
X155709926Y-124424706D01*
X155729710Y-124480760D01*
X155742655Y-124525823D01*
X155748150Y-124579678D01*
X155756332Y-124633656D01*
X155821912Y-124695083D01*
X155864288Y-124753579D01*
X155828750Y-124828318D01*
X155809577Y-124878632D01*
X155779535Y-124847979D01*
X155754989Y-124837721D01*
X155730443Y-124852131D01*
X155707117Y-124896339D01*
X155678419Y-124959720D01*
X155651064Y-124999776D01*
X155622214Y-125024848D01*
X155586217Y-125043496D01*
X155545446Y-125054487D01*
X155496702Y-125058394D01*
X155430512Y-125052288D01*
X155380565Y-125032505D01*
X155327291Y-125023623D01*
X155263817Y-124993670D01*
X155200260Y-124948364D01*
X155122400Y-124878632D01*
X155144260Y-124824288D01*
X155175645Y-124753579D01*
X155205687Y-124773119D01*
X155227547Y-124784354D01*
X155305460Y-124816838D01*
X155402424Y-124834424D01*
X155459211Y-124819403D01*
X155494016Y-124803039D01*
X155523325Y-124770310D01*
X155533583Y-124719752D01*
X155526744Y-124689099D01*
X155510380Y-124665041D01*
X155404265Y-124555963D01*
X155330006Y-124468548D01*
X155272395Y-124382894D01*
X155252025Y-124335680D01*
X155407920Y-124335680D01*
X155416102Y-124374270D01*
X155440771Y-124412861D01*
X155468736Y-124444002D01*
X155498168Y-124473555D01*
X155515875Y-124503230D01*
X155527147Y-124515354D01*
X155540544Y-124519106D01*
X155554832Y-124515687D01*
X155558251Y-124503963D01*
X155548515Y-124463182D01*
X155507693Y-124387459D01*
X155456040Y-124322163D01*
X155427093Y-124308080D01*
X155412683Y-124315652D01*
X155407920Y-124335680D01*
X155252025Y-124335680D01*
X155243911Y-124316873D01*
X155231699Y-124273154D01*
X155217288Y-124225404D01*
X155212526Y-124218565D01*
X155222051Y-124158482D01*
X155239148Y-124105115D01*
X155257588Y-124072386D01*
X155292515Y-124049183D01*
X155347836Y-124042344D01*
X155392899Y-124046496D01*
G37*
G36*
X154051713Y-123327502D02*
G01*
X154081315Y-123340390D01*
X154107932Y-123361095D01*
X154133217Y-123391803D01*
X154197452Y-123516367D01*
X154291730Y-123706022D01*
X154354501Y-123850491D01*
X154366224Y-123886884D01*
X154387351Y-123955882D01*
X154407135Y-124015600D01*
X154428262Y-124058586D01*
X154437177Y-124105969D01*
X154463799Y-124132592D01*
X154528157Y-124163489D01*
X154562229Y-124183272D01*
X154666032Y-124272909D01*
X154716591Y-124317362D01*
X154778140Y-124383796D01*
X154843719Y-124448764D01*
X154872418Y-124473433D01*
X154892812Y-124491140D01*
X154951674Y-124556964D01*
X154985746Y-124600683D01*
X155003576Y-124611552D01*
X155066468Y-124638907D01*
X155096510Y-124656615D01*
X155123866Y-124683360D01*
X155166120Y-124730376D01*
X155170272Y-124744054D01*
X155178454Y-124753579D01*
X155123743Y-124878632D01*
X155115561Y-124900614D01*
X155120210Y-124931131D01*
X155138764Y-124985122D01*
X155157236Y-125039543D01*
X155162090Y-125073660D01*
X155152978Y-125135856D01*
X155129239Y-125174532D01*
X155090250Y-125197933D01*
X155028244Y-125206894D01*
X154989281Y-125199798D01*
X154937997Y-125174654D01*
X154886761Y-125136175D01*
X154824546Y-125074148D01*
X154734420Y-124973642D01*
X154645638Y-124871671D01*
X154615596Y-124824532D01*
X154600575Y-124790949D01*
X154560275Y-124738925D01*
X154524005Y-124707418D01*
X154508984Y-124686901D01*
X154476133Y-124742711D01*
X154468073Y-124772630D01*
X154458426Y-124810610D01*
X154421290Y-124906491D01*
X154368300Y-124970223D01*
X154322795Y-124999074D01*
X154268027Y-125017074D01*
X154201605Y-125023468D01*
X154122958Y-125011866D01*
X154093388Y-124996650D01*
X154068981Y-124974253D01*
X154009630Y-124906720D01*
X153980198Y-124878632D01*
X154004134Y-124820136D01*
X154034909Y-124753579D01*
X154088886Y-124798032D01*
X154141399Y-124812320D01*
X154185240Y-124800718D01*
X154220655Y-124763105D01*
X154261078Y-124691420D01*
X154283548Y-124634633D01*
X154291730Y-124575893D01*
X154293073Y-124486988D01*
X154258512Y-124362547D01*
X154491154Y-124362547D01*
X154499793Y-124412981D01*
X154532187Y-124489187D01*
X154580389Y-124570627D01*
X154657850Y-124680062D01*
X154799267Y-124844926D01*
X154858586Y-124895756D01*
X154899651Y-124916734D01*
X154910642Y-124898904D01*
X154879256Y-124829173D01*
X154805495Y-124706685D01*
X154757623Y-124636221D01*
X154662002Y-124519228D01*
X154618283Y-124450108D01*
X154547208Y-124389902D01*
X154496650Y-124342030D01*
X154491154Y-124362547D01*
X154258512Y-124362547D01*
X154205635Y-124172159D01*
X154209787Y-124141995D01*
X154188538Y-124107801D01*
X154174249Y-124085819D01*
X154159839Y-124051625D01*
X154125034Y-123977742D01*
X154096336Y-123909965D01*
X154086810Y-123877725D01*
X154086810Y-123853789D01*
X154084002Y-123834005D01*
X154064951Y-123809337D01*
X154059455Y-123778562D01*
X154056646Y-123755969D01*
X154034176Y-123723119D01*
X154023918Y-123686116D01*
X154018545Y-123639588D01*
X154011584Y-123610767D01*
X153981542Y-123510872D01*
X153973360Y-123398642D01*
X153976659Y-123364245D01*
X153984961Y-123342466D01*
X153999592Y-123328213D01*
X154021231Y-123323293D01*
X154051713Y-123327502D01*
G37*
G36*
X152373203Y-123319874D02*
G01*
X152401901Y-123339047D01*
X152463450Y-123356755D01*
X152508513Y-123368967D01*
X152566643Y-123396933D01*
X152635519Y-123454818D01*
X152710746Y-123528335D01*
X152750314Y-123561064D01*
X152762648Y-123540669D01*
X152757041Y-123516592D01*
X152731873Y-123463611D01*
X152707542Y-123408884D01*
X152701099Y-123372997D01*
X152713433Y-123344420D01*
X152748970Y-123314501D01*
X152801457Y-123344186D01*
X152839218Y-123385331D01*
X152899302Y-123482051D01*
X152937526Y-123576085D01*
X152958042Y-123649602D01*
X152988084Y-123722508D01*
X153011287Y-123774898D01*
X153052320Y-123906423D01*
X153083705Y-123971147D01*
X153110327Y-124026957D01*
X153128768Y-124066402D01*
X153144521Y-124096444D01*
X153187508Y-124160436D01*
X153218283Y-124216367D01*
X153228541Y-124258499D01*
X153236113Y-124308935D01*
X153243562Y-124358028D01*
X153234647Y-124394787D01*
X153210711Y-124406999D01*
X153190317Y-124400282D01*
X153171144Y-124379766D01*
X153139759Y-124334825D01*
X153131577Y-124355219D01*
X153146598Y-124439727D01*
X153161618Y-124517397D01*
X153158810Y-124571863D01*
X153164305Y-124619612D01*
X153171144Y-124664431D01*
X153165038Y-124762006D01*
X153147941Y-124870205D01*
X153111060Y-124992083D01*
X153088225Y-125034163D01*
X153067341Y-125056807D01*
X153029117Y-125088192D01*
X153000418Y-125112739D01*
X152975589Y-125128492D01*
X152932152Y-125142048D01*
X152807711Y-125152184D01*
X152719661Y-125140582D01*
X152658845Y-125107243D01*
X152601750Y-125089020D01*
X152540020Y-125059616D01*
X152478900Y-125020907D01*
X152410205Y-124966926D01*
X152303593Y-124874968D01*
X152201133Y-124781667D01*
X152164986Y-124745519D01*
X152149232Y-124716210D01*
X152149232Y-124701311D01*
X152110275Y-124663820D01*
X152083653Y-124637198D01*
X152013803Y-124560191D01*
X151955976Y-124469133D01*
X151910118Y-124362058D01*
X151879314Y-124248939D01*
X151859675Y-124118115D01*
X151857689Y-124074951D01*
X152076814Y-124074951D01*
X152081642Y-124158440D01*
X152095987Y-124238960D01*
X152149232Y-124396130D01*
X152230565Y-124563558D01*
X152273551Y-124643792D01*
X152352808Y-124739780D01*
X152463450Y-124832958D01*
X152537146Y-124881935D01*
X152600104Y-124913925D01*
X152662011Y-124934303D01*
X152713433Y-124940425D01*
X152780633Y-124930544D01*
X152833151Y-124902532D01*
X152874633Y-124855429D01*
X152901957Y-124795959D01*
X152920726Y-124712393D01*
X152927878Y-124597508D01*
X152922505Y-124413105D01*
X152903332Y-124197438D01*
X152862299Y-123952463D01*
X152834785Y-123867035D01*
X152809054Y-123823136D01*
X152746161Y-123745589D01*
X152708670Y-123704801D01*
X152677896Y-123682941D01*
X152545394Y-123624445D01*
X152475785Y-123601364D01*
X152408740Y-123593182D01*
X152340869Y-123601605D01*
X152281975Y-123626135D01*
X152229832Y-123667431D01*
X152187631Y-123720674D01*
X152149103Y-123792899D01*
X152115038Y-123888471D01*
X152108199Y-123906179D01*
X152084996Y-123936099D01*
X152094521Y-123994595D01*
X152076814Y-124074951D01*
X151857689Y-124074951D01*
X151852721Y-123966995D01*
X151857217Y-123894381D01*
X151871161Y-123817152D01*
X151925139Y-123653632D01*
X151966991Y-123564787D01*
X152010502Y-123496339D01*
X152060926Y-123439347D01*
X152112351Y-123400352D01*
X152154727Y-123367623D01*
X152183304Y-123345764D01*
X152254378Y-123332819D01*
X152304507Y-123318125D01*
X152322766Y-123307662D01*
X152343161Y-123303632D01*
X152373203Y-123319874D01*
G37*
G36*
X151854797Y-124753579D02*
G01*
X151840387Y-124732330D01*
X151819260Y-124704120D01*
X151783722Y-124672613D01*
X151734508Y-124624497D01*
X151674424Y-124556598D01*
X151588328Y-124458290D01*
X151533740Y-124398572D01*
X151455826Y-124311378D01*
X151415239Y-124271093D01*
X151373883Y-124244089D01*
X151328822Y-124227610D01*
X151280949Y-124222107D01*
X151237065Y-124230342D01*
X151208531Y-124253004D01*
X151191799Y-124288331D01*
X151185327Y-124342763D01*
X151208531Y-124463541D01*
X151280949Y-124699357D01*
X151304152Y-124751503D01*
X151315143Y-124782889D01*
X151317829Y-124803405D01*
X151308304Y-124823921D01*
X151295359Y-124812930D01*
X151280949Y-124796566D01*
X151247609Y-124753579D01*
X151193510Y-124703876D01*
X151161514Y-124658447D01*
X151117062Y-124616926D01*
X151102773Y-124599340D01*
X151081524Y-124573450D01*
X151039148Y-124536814D01*
X150981751Y-124497369D01*
X150915561Y-124467449D01*
X150864270Y-124456580D01*
X150823874Y-124461828D01*
X150789166Y-124477096D01*
X150759606Y-124502415D01*
X150733112Y-124541332D01*
X150681088Y-124698503D01*
X150647627Y-124761395D01*
X150627522Y-124777013D01*
X150605983Y-124781912D01*
X150573988Y-124774829D01*
X150547243Y-124753579D01*
X150492655Y-124878632D01*
X150540526Y-124918810D01*
X150588276Y-124958866D01*
X150647016Y-124999776D01*
X150701605Y-125011500D01*
X150761688Y-124997822D01*
X150788121Y-124980909D01*
X150810903Y-124956789D01*
X150838258Y-124916489D01*
X150876482Y-124843339D01*
X150916905Y-124796200D01*
X150969417Y-124727201D01*
X150981751Y-124723049D01*
X151033042Y-124747595D01*
X151086898Y-124789727D01*
X151175802Y-124857871D01*
X151212683Y-124889134D01*
X151278262Y-124973520D01*
X151394399Y-125096008D01*
X151429937Y-125130690D01*
X151465474Y-125164030D01*
X151505774Y-125185157D01*
X151555600Y-125191263D01*
X151599397Y-125180781D01*
X151614951Y-125153771D01*
X151623866Y-125077934D01*
X151577459Y-124934685D01*
X151517254Y-124733796D01*
X151512491Y-124715478D01*
X151500889Y-124684703D01*
X151491364Y-124653928D01*
X151488555Y-124631336D01*
X151495394Y-124616437D01*
X151517254Y-124610942D01*
X151553524Y-124627306D01*
X151607379Y-124679207D01*
X151668928Y-124743443D01*
X151700314Y-124770799D01*
X151732431Y-124798154D01*
X151774075Y-124837721D01*
X151782379Y-124854085D01*
X151800087Y-124878632D01*
X151819260Y-124828318D01*
X151854797Y-124753579D01*
G37*
G36*
X149568562Y-123231336D02*
G01*
X149446318Y-123206545D01*
X149299406Y-123198241D01*
X149255076Y-123203004D01*
X149207937Y-123207766D01*
X149168248Y-123215949D01*
X149127337Y-123225596D01*
X149088991Y-123214605D01*
X149062491Y-123224863D01*
X149027564Y-123244647D01*
X148996179Y-123228283D01*
X148977542Y-123232228D01*
X148962718Y-123244036D01*
X148945621Y-123288367D01*
X148945621Y-123331475D01*
X148948307Y-123375806D01*
X148946964Y-123410000D01*
X148944155Y-123445537D01*
X148950994Y-123467397D01*
X148968824Y-123474235D01*
X149071284Y-123465443D01*
X149172400Y-123438698D01*
X149248848Y-123450910D01*
X149287194Y-123459214D01*
X149299406Y-123472770D01*
X149284385Y-123493164D01*
X149261182Y-123513681D01*
X149239323Y-123542868D01*
X149213311Y-123603562D01*
X149205861Y-123632260D01*
X149203785Y-123658028D01*
X149209281Y-123729591D01*
X149221493Y-123799689D01*
X149240666Y-123887616D01*
X149251535Y-123940006D01*
X149255687Y-123972735D01*
X149258374Y-124016332D01*
X149269364Y-124067379D01*
X149288415Y-124137599D01*
X149292568Y-124178510D01*
X149303436Y-124231510D01*
X149316503Y-124271810D01*
X149333600Y-124324200D01*
X149329448Y-124366454D01*
X149340317Y-124445467D01*
X149356803Y-124563925D01*
X149371824Y-124679696D01*
X149389532Y-124716577D01*
X149386113Y-124745886D01*
X149382693Y-124777882D01*
X149388189Y-124822090D01*
X149393684Y-124865076D01*
X149395027Y-124945432D01*
X149396371Y-125027131D01*
X149384159Y-125072072D01*
X149392951Y-125102725D01*
X149405896Y-125121165D01*
X149451081Y-125145711D01*
X149473674Y-125167449D01*
X149489305Y-125175631D01*
X149531681Y-125167449D01*
X149544016Y-125145711D01*
X149534368Y-125058639D01*
X149540596Y-125042274D01*
X149550854Y-125015041D01*
X149568562Y-124797421D01*
X149564410Y-124635488D01*
X149561113Y-124539623D01*
X149548046Y-124405655D01*
X149534490Y-124272299D01*
X149530338Y-124178387D01*
X149526919Y-124136988D01*
X149519347Y-124075073D01*
X149511287Y-124018531D01*
X149507135Y-123972979D01*
X149508478Y-123949898D01*
X149511165Y-123928039D01*
X149490771Y-123873084D01*
X149483932Y-123845118D01*
X149496144Y-123809703D01*
X149478436Y-123741071D01*
X149457920Y-123611133D01*
X149457920Y-123571688D01*
X149456577Y-123515879D01*
X149464759Y-123491332D01*
X149484665Y-123484616D01*
X149520812Y-123477777D01*
X149538520Y-123490111D01*
X149574668Y-123498415D01*
X149613625Y-123507941D01*
X149895115Y-123585732D01*
X149912822Y-123576939D01*
X149919661Y-123553004D01*
X149912822Y-123524305D01*
X149890963Y-123470938D01*
X149884124Y-123391071D01*
X149874598Y-123342833D01*
X149841015Y-123291908D01*
X149787159Y-123260157D01*
X149669678Y-123232679D01*
X149568562Y-123231336D01*
G37*
G36*
X148173447Y-123255882D02*
G01*
X148253925Y-123313890D01*
X148354431Y-123409023D01*
X148453471Y-123519176D01*
X148523203Y-123613576D01*
X148621510Y-123754504D01*
X148660467Y-123823625D01*
X148687090Y-123874916D01*
X148706263Y-123918025D01*
X148725314Y-123948799D01*
X148780024Y-124050038D01*
X148820935Y-124174480D01*
X148851831Y-124268269D01*
X148878332Y-124337390D01*
X148920708Y-124498834D01*
X148949406Y-124615094D01*
X148964427Y-124648677D01*
X148999965Y-124687756D01*
X149025854Y-124713279D01*
X149072383Y-124753579D01*
X149036845Y-124829661D01*
X149017672Y-124878632D01*
X148998499Y-124863611D01*
X148987630Y-124851399D01*
X148976029Y-124854818D01*
X148972609Y-124864954D01*
X148982135Y-124903545D01*
X148984944Y-124921496D01*
X148986287Y-124943600D01*
X148977372Y-125040931D01*
X148952093Y-125175509D01*
X148941264Y-125195477D01*
X148917288Y-125210802D01*
X148884882Y-125219198D01*
X148835956Y-125222526D01*
X148811278Y-125216662D01*
X148777215Y-125194926D01*
X148697958Y-125112006D01*
X148632379Y-125020903D01*
X148590003Y-124947630D01*
X148542864Y-124887058D01*
X148497069Y-124830882D01*
X148488886Y-124830882D01*
X148477432Y-124840218D01*
X148433565Y-124908674D01*
X148397799Y-124953528D01*
X148355552Y-124979015D01*
X148304483Y-124987686D01*
X148208862Y-124981580D01*
X148145969Y-124962896D01*
X148079780Y-124921496D01*
X148013468Y-124878632D01*
X148042899Y-124812076D01*
X148068178Y-124753579D01*
X148167951Y-124772752D01*
X148201368Y-124767850D01*
X148228768Y-124753702D01*
X148251215Y-124730447D01*
X148271755Y-124693862D01*
X148284089Y-124649776D01*
X148312665Y-124543286D01*
X148337334Y-124483569D01*
X148353927Y-124466685D01*
X148370062Y-124461831D01*
X148387892Y-124465983D01*
X148412438Y-124475509D01*
X148460310Y-124495903D01*
X148480386Y-124511824D01*
X148512212Y-124554033D01*
X148583286Y-124692641D01*
X148663154Y-124855307D01*
X148698582Y-124912152D01*
X148723970Y-124941402D01*
X148750593Y-124970101D01*
X148770376Y-124991960D01*
X148783443Y-124980359D01*
X148786863Y-124945432D01*
X148773918Y-124806824D01*
X148734839Y-124624375D01*
X148614672Y-124475509D01*
X148529919Y-124370118D01*
X148425505Y-124231999D01*
X148379710Y-124156772D01*
X148332571Y-124104016D01*
X148304483Y-124062372D01*
X148250628Y-123972735D01*
X148215701Y-123907766D01*
X148166608Y-123822892D01*
X148132414Y-123761343D01*
X148088695Y-123651189D01*
X148050348Y-123571200D01*
X148043632Y-123546531D01*
X148039480Y-123513681D01*
X148166486Y-123513681D01*
X148183583Y-123571078D01*
X148234752Y-123680376D01*
X148346859Y-123902393D01*
X148400177Y-123993563D01*
X148447976Y-124061517D01*
X148536147Y-124178387D01*
X148602459Y-124259598D01*
X148648866Y-124311500D01*
X148655704Y-124304661D01*
X148637264Y-124258255D01*
X148596964Y-124146270D01*
X148543597Y-124002777D01*
X148536147Y-123968705D01*
X148512212Y-123935854D01*
X148437107Y-123821793D01*
X148359193Y-123704923D01*
X148244399Y-123545799D01*
X148201085Y-123500449D01*
X148184193Y-123491821D01*
X148169905Y-123498049D01*
X148166486Y-123513681D01*
X148039480Y-123513681D01*
X148032641Y-123483639D01*
X148018963Y-123458970D01*
X148008094Y-123410488D01*
X148003942Y-123378248D01*
X148008662Y-123326095D01*
X148020429Y-123293496D01*
X148041319Y-123272013D01*
X148072208Y-123264675D01*
X148091381Y-123267362D01*
X148118736Y-123237320D01*
X148173447Y-123255882D01*
G37*
G36*
X147598621Y-124046496D02*
G01*
X147635502Y-124056022D01*
X147671039Y-124080690D01*
X147703768Y-124103771D01*
X147766660Y-124179609D01*
X147826744Y-124248607D01*
X147882187Y-124349602D01*
X147915648Y-124424706D01*
X147935432Y-124480760D01*
X147948377Y-124525823D01*
X147953872Y-124579678D01*
X147962055Y-124633656D01*
X148027634Y-124695083D01*
X148070010Y-124753579D01*
X148034473Y-124828318D01*
X148015300Y-124878632D01*
X147985258Y-124847979D01*
X147960711Y-124837721D01*
X147936165Y-124852131D01*
X147912840Y-124896339D01*
X147884141Y-124959720D01*
X147856786Y-124999776D01*
X147827937Y-125024848D01*
X147791939Y-125043496D01*
X147751168Y-125054487D01*
X147702424Y-125058394D01*
X147636235Y-125052288D01*
X147586287Y-125032505D01*
X147533013Y-125023623D01*
X147469539Y-124993670D01*
X147405983Y-124948364D01*
X147328122Y-124878632D01*
X147349982Y-124824288D01*
X147381367Y-124753579D01*
X147411409Y-124773119D01*
X147433269Y-124784354D01*
X147511182Y-124816838D01*
X147608147Y-124834424D01*
X147664933Y-124819403D01*
X147699738Y-124803039D01*
X147729047Y-124770310D01*
X147739305Y-124719752D01*
X147732466Y-124689099D01*
X147716102Y-124665041D01*
X147609988Y-124555963D01*
X147535729Y-124468548D01*
X147478118Y-124382894D01*
X147457747Y-124335680D01*
X147613642Y-124335680D01*
X147621824Y-124374270D01*
X147646493Y-124412861D01*
X147674459Y-124444002D01*
X147703890Y-124473555D01*
X147721598Y-124503230D01*
X147732870Y-124515354D01*
X147746266Y-124519106D01*
X147760554Y-124515687D01*
X147763974Y-124503963D01*
X147754237Y-124463182D01*
X147713415Y-124387459D01*
X147661762Y-124322163D01*
X147632815Y-124308080D01*
X147618405Y-124315652D01*
X147613642Y-124335680D01*
X147457747Y-124335680D01*
X147449633Y-124316873D01*
X147437421Y-124273154D01*
X147423011Y-124225404D01*
X147418248Y-124218565D01*
X147427773Y-124158482D01*
X147444870Y-124105115D01*
X147463311Y-124072386D01*
X147498237Y-124049183D01*
X147553558Y-124042344D01*
X147598621Y-124046496D01*
G37*
G36*
X146354082Y-123143531D02*
G01*
X146302913Y-123152445D01*
X146267986Y-123174916D01*
X146244050Y-123206912D01*
X146214741Y-123255272D01*
X146183356Y-123315844D01*
X146173709Y-123343810D01*
X146191416Y-123494996D01*
X146209124Y-123651800D01*
X146218771Y-123693932D01*
X146209856Y-123766228D01*
X146205094Y-123842431D01*
X146202407Y-123909965D01*
X146205094Y-123995083D01*
X146207780Y-124092536D01*
X146209124Y-124143583D01*
X146207780Y-124165443D01*
X146202407Y-124192676D01*
X146192759Y-124240303D01*
X146192759Y-124326154D01*
X146160031Y-124566001D01*
X146128824Y-124734671D01*
X146118998Y-124767623D01*
X146102634Y-124759441D01*
X145996022Y-124568199D01*
X145974895Y-124508726D01*
X145944120Y-124424706D01*
X145887260Y-124294266D01*
X145827372Y-124111099D01*
X145775780Y-123908355D01*
X145724180Y-123652655D01*
X145704100Y-123580843D01*
X145681193Y-123531144D01*
X145651236Y-123493329D01*
X145621720Y-123476434D01*
X145500087Y-123432714D01*
X145472295Y-123447906D01*
X145455024Y-123466297D01*
X145445039Y-123489586D01*
X145441346Y-123521496D01*
X145456367Y-123658883D01*
X145502773Y-123897264D01*
X145510345Y-123975177D01*
X145524755Y-124084476D01*
X145541852Y-124162390D01*
X145547958Y-124197927D01*
X145546615Y-124279260D01*
X145543806Y-124382330D01*
X145541120Y-124498590D01*
X145541120Y-124564047D01*
X145535013Y-124702777D01*
X145527620Y-124743284D01*
X145521946Y-124749916D01*
X145508733Y-124740825D01*
X145478960Y-124691420D01*
X145407152Y-124514221D01*
X145345115Y-124343984D01*
X145295167Y-124192676D01*
X145273307Y-124150422D01*
X145262438Y-124080935D01*
X145220062Y-123957714D01*
X145176343Y-123823503D01*
X145147034Y-123721287D01*
X145109420Y-123575596D01*
X145127128Y-123518321D01*
X145114916Y-123477411D01*
X145099773Y-123418914D01*
X145033583Y-123330376D01*
X145004351Y-123306182D01*
X144986444Y-123300334D01*
X144974968Y-123303791D01*
X144967271Y-123314623D01*
X144961775Y-123360296D01*
X144965195Y-123489012D01*
X144974110Y-123548241D01*
X144990474Y-123584389D01*
X145001465Y-123612355D01*
X144983635Y-123679033D01*
X145002930Y-123747909D01*
X145027477Y-123877969D01*
X145052023Y-123999235D01*
X145072540Y-124059197D01*
X145090247Y-124121845D01*
X145123098Y-124209040D01*
X145140806Y-124264239D01*
X145164009Y-124353387D01*
X145188677Y-124427759D01*
X145222749Y-124531929D01*
X145249494Y-124579678D01*
X145273307Y-124654539D01*
X145298586Y-124717920D01*
X145344382Y-124824776D01*
X145393597Y-124929678D01*
X145422173Y-124970589D01*
X145455024Y-124989640D01*
X145482379Y-125008080D01*
X145524633Y-125011378D01*
X145567742Y-125034581D01*
X145597051Y-125042763D01*
X145643882Y-125032521D01*
X145680460Y-125001852D01*
X145705875Y-124954204D01*
X145725523Y-124876311D01*
X145734316Y-124758342D01*
X145744574Y-124637564D01*
X145754954Y-124557819D01*
X145778768Y-124438384D01*
X145838241Y-124551224D01*
X145901744Y-124673590D01*
X145920917Y-124733796D01*
X145978192Y-124866420D01*
X146060258Y-125045572D01*
X146094258Y-125093826D01*
X146127913Y-125125561D01*
X146166270Y-125145522D01*
X146209124Y-125152184D01*
X146228867Y-125145036D01*
X146251500Y-125118112D01*
X146292533Y-125014431D01*
X146316468Y-124929312D01*
X146340282Y-124841263D01*
X146330757Y-124809877D01*
X146350540Y-124758098D01*
X146373133Y-124678963D01*
X146384124Y-124605446D01*
X146399145Y-124498956D01*
X146401831Y-124460122D01*
X146404518Y-124421287D01*
X146412090Y-124388558D01*
X146430530Y-124347648D01*
X146435293Y-124307470D01*
X146440055Y-124218077D01*
X146448360Y-124141018D01*
X146457702Y-124113968D01*
X146468754Y-124100840D01*
X146505757Y-124073485D01*
X146518702Y-124014256D01*
X146523464Y-123915338D01*
X146518961Y-123759704D01*
X146505024Y-123593548D01*
X146482386Y-123423995D01*
X146449703Y-123240373D01*
X146435665Y-123196845D01*
X146415631Y-123168077D01*
X146388140Y-123149759D01*
X146354082Y-123143531D01*
G37*
G36*
X144448621Y-124225282D02*
G01*
X144493684Y-124255324D01*
X144531297Y-124295013D01*
X144570254Y-124336046D01*
X144605792Y-124366821D01*
X144644016Y-124400282D01*
X144681629Y-124439361D01*
X144704099Y-124474166D01*
X144802529Y-124562093D01*
X144861270Y-124621322D01*
X144966416Y-124693618D01*
X144990352Y-124728422D01*
X145010136Y-124753579D01*
X144980094Y-124815495D01*
X144955425Y-124878632D01*
X144937718Y-124854085D01*
X144928070Y-124837721D01*
X144854431Y-124778981D01*
X144821580Y-124758464D01*
X144804483Y-124764692D01*
X144798377Y-124780324D01*
X144813398Y-124843949D01*
X144828419Y-124930900D01*
X144821640Y-124982709D01*
X144801210Y-125031378D01*
X144765648Y-125078300D01*
X144720532Y-125115981D01*
X144674088Y-125137334D01*
X144624842Y-125144368D01*
X144592725Y-125138872D01*
X144566102Y-125133377D01*
X144514933Y-125124462D01*
X144452651Y-125098939D01*
X144396244Y-125070746D01*
X144345429Y-125036290D01*
X144300123Y-124996141D01*
X144262752Y-124953004D01*
X144230024Y-124995624D01*
X144207460Y-125006774D01*
X144178000Y-125010767D01*
X144122679Y-124999166D01*
X144063206Y-124961186D01*
X144014113Y-124921374D01*
X143966242Y-124878632D01*
X143992986Y-124815495D01*
X144019609Y-124753579D01*
X144047575Y-124774096D01*
X144070167Y-124780935D01*
X144087875Y-124773485D01*
X144100209Y-124749061D01*
X144070900Y-124709371D01*
X144041468Y-124640983D01*
X144035449Y-124617780D01*
X144210851Y-124617780D01*
X144235397Y-124695694D01*
X144249075Y-124741612D01*
X144266905Y-124768234D01*
X144307815Y-124817449D01*
X144357694Y-124880484D01*
X144406978Y-124922229D01*
X144462081Y-124948340D01*
X144522260Y-124957034D01*
X144558299Y-124951742D01*
X144581123Y-124937861D01*
X144594964Y-124915232D01*
X144600174Y-124880464D01*
X144593335Y-124829905D01*
X144571475Y-124757243D01*
X144541434Y-124684092D01*
X144525240Y-124663460D01*
X144512735Y-124657470D01*
X144473778Y-124644403D01*
X144441660Y-124619124D01*
X144397941Y-124550736D01*
X144372784Y-124518618D01*
X144352878Y-124504207D01*
X144285956Y-124514466D01*
X144255914Y-124523381D01*
X144234176Y-124552812D01*
X144210851Y-124617780D01*
X144035449Y-124617780D01*
X144023761Y-124572718D01*
X144018265Y-124517885D01*
X144024780Y-124437166D01*
X144042140Y-124377553D01*
X144068213Y-124334092D01*
X144105458Y-124301172D01*
X144154077Y-124280608D01*
X144217690Y-124273154D01*
X144261531Y-124284145D01*
X144355687Y-124318217D01*
X144363869Y-124306004D01*
X144335170Y-124242990D01*
X144352390Y-124221863D01*
X144398063Y-124214291D01*
X144448621Y-124225282D01*
G37*
G36*
X144023394Y-124750893D02*
G01*
X143979675Y-124690809D01*
X143886101Y-124607611D01*
X143816399Y-124533028D01*
X143759637Y-124456636D01*
X143724197Y-124391489D01*
X143737875Y-124325788D01*
X143711362Y-124292761D01*
X143649703Y-124245188D01*
X143581050Y-124208335D01*
X143535642Y-124198660D01*
X143492226Y-124205670D01*
X143456995Y-124226015D01*
X143394836Y-124283412D01*
X143372976Y-124298433D01*
X143325848Y-124346444D01*
X143291032Y-124412006D01*
X143271050Y-124488932D01*
X143263677Y-124588349D01*
X143272407Y-124647725D01*
X143306053Y-124744909D01*
X143339817Y-124841749D01*
X143348429Y-124898782D01*
X143343667Y-124909773D01*
X143330722Y-124913803D01*
X143288346Y-124898171D01*
X143235101Y-124855062D01*
X143147540Y-124776660D01*
X143110659Y-124751259D01*
X143084769Y-124810000D01*
X143056071Y-124876922D01*
X143084159Y-124902934D01*
X143121650Y-124937006D01*
X143242550Y-125019804D01*
X143420847Y-125131301D01*
X143483618Y-125160000D01*
X143536908Y-125155086D01*
X143569713Y-125142903D01*
X143590969Y-125121034D01*
X143598412Y-125087581D01*
X143592306Y-125052655D01*
X143575209Y-125009546D01*
X143557501Y-124973398D01*
X143541015Y-124935785D01*
X143495341Y-124775806D01*
X143479588Y-124643060D01*
X143485993Y-124575634D01*
X143502180Y-124532418D01*
X143530204Y-124502346D01*
X143569713Y-124488576D01*
X143635293Y-124535104D01*
X143707711Y-124610209D01*
X143778785Y-124690809D01*
X143830687Y-124733185D01*
X143870376Y-124779591D01*
X143942672Y-124835645D01*
X143950976Y-124852009D01*
X143968684Y-124876556D01*
X143993353Y-124814518D01*
X144023394Y-124750893D01*
G37*
G36*
X143112857Y-124753579D02*
G01*
X143101866Y-124741978D01*
X143089654Y-124717920D01*
X143066451Y-124688489D01*
X143030914Y-124653562D01*
X142995100Y-124618769D01*
X142961915Y-124574916D01*
X142901099Y-124465983D01*
X142828803Y-124319438D01*
X142768597Y-124227602D01*
X142735868Y-124127585D01*
X142670167Y-123949410D01*
X142603244Y-123780150D01*
X142562212Y-123690390D01*
X142547923Y-123665844D01*
X142533635Y-123628719D01*
X142488572Y-123508918D01*
X142435205Y-123404016D01*
X142418108Y-123384842D01*
X142396981Y-123378004D01*
X142348811Y-123388882D01*
X142315648Y-123420502D01*
X142296584Y-123468875D01*
X142289026Y-123545188D01*
X142301370Y-123644133D01*
X142347766Y-123799323D01*
X142417511Y-123968609D01*
X142528140Y-124193286D01*
X142581385Y-124320659D01*
X142638782Y-124493339D01*
X142683845Y-124646845D01*
X142728907Y-124800230D01*
X142761758Y-124914658D01*
X142772627Y-124970101D01*
X142769207Y-124983778D01*
X142758949Y-124987808D01*
X142735013Y-124979626D01*
X142719382Y-124956423D01*
X142665404Y-124866664D01*
X142611427Y-124756388D01*
X142607274Y-124716577D01*
X142590457Y-124634525D01*
X142566364Y-124590669D01*
X142526023Y-124561128D01*
X142448883Y-124534371D01*
X142435623Y-124521690D01*
X142393562Y-124460488D01*
X142275348Y-124253492D01*
X142207083Y-124144682D01*
X142179889Y-124114660D01*
X142166050Y-124108290D01*
X142138368Y-124113788D01*
X142120987Y-124128928D01*
X142111208Y-124152512D01*
X142107309Y-124190478D01*
X142117670Y-124257983D01*
X142153591Y-124344530D01*
X142224790Y-124456336D01*
X142322271Y-124606870D01*
X142342271Y-124667362D01*
X142330478Y-124705340D01*
X142279501Y-124776294D01*
X142216052Y-124835295D01*
X142175575Y-124849567D01*
X142144801Y-124840652D01*
X142104501Y-124812564D01*
X142069696Y-124783133D01*
X142032083Y-124753579D01*
X141977494Y-124878632D01*
X142045150Y-124942013D01*
X142112683Y-125004050D01*
X142153551Y-125038417D01*
X142192062Y-125061203D01*
X142232113Y-125075238D01*
X142271196Y-125079766D01*
X142316213Y-125064599D01*
X142409926Y-124995502D01*
X142514462Y-124911238D01*
X142603244Y-125004417D01*
X142651727Y-125062669D01*
X142700209Y-125120921D01*
X142722069Y-125144246D01*
X142756263Y-125175631D01*
X142799371Y-125228387D01*
X142826037Y-125247405D01*
X142858722Y-125253789D01*
X142908051Y-125245306D01*
X142940788Y-125222159D01*
X142960400Y-125185050D01*
X142968021Y-125125928D01*
X142956420Y-124985854D01*
X142920150Y-124830882D01*
X142905129Y-124763227D01*
X142899633Y-124711936D01*
X142909281Y-124698381D01*
X142954344Y-124750282D01*
X143018579Y-124824043D01*
X143030181Y-124838332D01*
X143058147Y-124878632D01*
X143075244Y-124836500D01*
X143096493Y-124779347D01*
X143103210Y-124764448D01*
X143112857Y-124753579D01*
G37*
G36*
X140370132Y-123319874D02*
G01*
X140398831Y-123339047D01*
X140460380Y-123356755D01*
X140505443Y-123368967D01*
X140563572Y-123396933D01*
X140632449Y-123454818D01*
X140707676Y-123528335D01*
X140747243Y-123561064D01*
X140759577Y-123540669D01*
X140753971Y-123516592D01*
X140728803Y-123463611D01*
X140704472Y-123408884D01*
X140698028Y-123372997D01*
X140710362Y-123344420D01*
X140745900Y-123314501D01*
X140798387Y-123344186D01*
X140836147Y-123385331D01*
X140896231Y-123482051D01*
X140934455Y-123576085D01*
X140954972Y-123649602D01*
X140985013Y-123722508D01*
X141008217Y-123774898D01*
X141049249Y-123906423D01*
X141080635Y-123971147D01*
X141107257Y-124026957D01*
X141125697Y-124066402D01*
X141141451Y-124096444D01*
X141184438Y-124160436D01*
X141215212Y-124216367D01*
X141225471Y-124258499D01*
X141233042Y-124308935D01*
X141240491Y-124358028D01*
X141231577Y-124394787D01*
X141207641Y-124406999D01*
X141187247Y-124400282D01*
X141168073Y-124379766D01*
X141136688Y-124334825D01*
X141128506Y-124355219D01*
X141143527Y-124439727D01*
X141158548Y-124517397D01*
X141155739Y-124571863D01*
X141161235Y-124619612D01*
X141168073Y-124664431D01*
X141161967Y-124762006D01*
X141144870Y-124870205D01*
X141107990Y-124992083D01*
X141085155Y-125034163D01*
X141064270Y-125056807D01*
X141026046Y-125088192D01*
X140997348Y-125112739D01*
X140972518Y-125128492D01*
X140929082Y-125142048D01*
X140804640Y-125152184D01*
X140716591Y-125140582D01*
X140655774Y-125107243D01*
X140598680Y-125089020D01*
X140536950Y-125059616D01*
X140475830Y-125020907D01*
X140407135Y-124966926D01*
X140300523Y-124874968D01*
X140198063Y-124781667D01*
X140161915Y-124745519D01*
X140146161Y-124716210D01*
X140146161Y-124701311D01*
X140107205Y-124663820D01*
X140080582Y-124637198D01*
X140010733Y-124560191D01*
X139952906Y-124469133D01*
X139907048Y-124362058D01*
X139876244Y-124248939D01*
X139856605Y-124118115D01*
X139854619Y-124074951D01*
X140073743Y-124074951D01*
X140078571Y-124158440D01*
X140092916Y-124238960D01*
X140146161Y-124396130D01*
X140227494Y-124563558D01*
X140270481Y-124643792D01*
X140349738Y-124739780D01*
X140460380Y-124832958D01*
X140534076Y-124881935D01*
X140597034Y-124913925D01*
X140658940Y-124934303D01*
X140710362Y-124940425D01*
X140777563Y-124930544D01*
X140830080Y-124902532D01*
X140871563Y-124855429D01*
X140898887Y-124795959D01*
X140917656Y-124712393D01*
X140924808Y-124597508D01*
X140919434Y-124413105D01*
X140900261Y-124197438D01*
X140859228Y-123952463D01*
X140831715Y-123867035D01*
X140805983Y-123823136D01*
X140743091Y-123745589D01*
X140705600Y-123704801D01*
X140674825Y-123682941D01*
X140542323Y-123624445D01*
X140472714Y-123601364D01*
X140405669Y-123593182D01*
X140337798Y-123601605D01*
X140278904Y-123626135D01*
X140226762Y-123667431D01*
X140184561Y-123720674D01*
X140146032Y-123792899D01*
X140111967Y-123888471D01*
X140105129Y-123906179D01*
X140081926Y-123936099D01*
X140091451Y-123994595D01*
X140073743Y-124074951D01*
X139854619Y-124074951D01*
X139849651Y-123966995D01*
X139854147Y-123894381D01*
X139868091Y-123817152D01*
X139922069Y-123653632D01*
X139963921Y-123564787D01*
X140007431Y-123496339D01*
X140057856Y-123439347D01*
X140109281Y-123400352D01*
X140151657Y-123367623D01*
X140180233Y-123345764D01*
X140251308Y-123332819D01*
X140301437Y-123318125D01*
X140319696Y-123307662D01*
X140340090Y-123303632D01*
X140370132Y-123319874D01*
G37*
G36*
X139283534Y-123341636D02*
G01*
X139329780Y-123376905D01*
X139369746Y-123429908D01*
X139411723Y-123512948D01*
X139509754Y-123768327D01*
X139585380Y-123995572D01*
X139644460Y-124217345D01*
X139680879Y-124415303D01*
X139699319Y-124494682D01*
X139730094Y-124568443D01*
X139761479Y-124622299D01*
X139816189Y-124704609D01*
X139837316Y-124732452D01*
X139851727Y-124753579D01*
X139816189Y-124829661D01*
X139797016Y-124878632D01*
X139761479Y-124910139D01*
X139786758Y-125075736D01*
X139801168Y-125196270D01*
X139784804Y-125279801D01*
X139790910Y-125327672D01*
X139797016Y-125374200D01*
X139797016Y-125582295D01*
X139792986Y-125647264D01*
X139780652Y-125704173D01*
X139770394Y-125789658D01*
X139758792Y-125876608D01*
X139739165Y-125923192D01*
X139710310Y-125954644D01*
X139671325Y-125973630D01*
X139616643Y-125980655D01*
X139579884Y-125970397D01*
X139545690Y-125942309D01*
X139521755Y-125908115D01*
X139499162Y-125872456D01*
X139443389Y-125775111D01*
X139374842Y-125614413D01*
X139311768Y-125429441D01*
X139240997Y-125179783D01*
X139222557Y-125102480D01*
X139201308Y-125023712D01*
X139172732Y-124940914D01*
X139135729Y-124878632D01*
X139157588Y-124825631D01*
X139190439Y-124753579D01*
X139259438Y-124852131D01*
X139309263Y-124958866D01*
X139329780Y-125027986D01*
X139380338Y-125198224D01*
X139397435Y-125247561D01*
X139413066Y-125279068D01*
X139409036Y-125306423D01*
X139513572Y-125558848D01*
X139554692Y-125630023D01*
X139572923Y-125642990D01*
X139585990Y-125620397D01*
X139594783Y-125555551D01*
X139600279Y-125487163D01*
X139590753Y-125284075D01*
X139562055Y-125018217D01*
X139520411Y-124743443D01*
X139473272Y-124550614D01*
X139446650Y-124495903D01*
X139425401Y-124464518D01*
X139412456Y-124429713D01*
X139403541Y-124404312D01*
X139359944Y-124312843D01*
X139328436Y-124249829D01*
X139230129Y-123934755D01*
X139211440Y-123865635D01*
X139295586Y-123865635D01*
X139302424Y-123899829D01*
X139322941Y-123949043D01*
X139348953Y-124005219D01*
X139359822Y-124050282D01*
X139380338Y-124070799D01*
X139389863Y-124059808D01*
X139383757Y-124023660D01*
X139366660Y-123971025D01*
X139344801Y-123912163D01*
X139335275Y-123875282D01*
X139325017Y-123845851D01*
X139313415Y-123835593D01*
X139299738Y-123842431D01*
X139295586Y-123865635D01*
X139211440Y-123865635D01*
X139168579Y-123707121D01*
X139146720Y-123511605D01*
X139148796Y-123433691D01*
X139153558Y-123391315D01*
X139164549Y-123363487D01*
X139182257Y-123345519D01*
X139206408Y-123335002D01*
X139239654Y-123331109D01*
X139283534Y-123341636D01*
G37*
G36*
X137299633Y-124753579D02*
G01*
X137247732Y-124878632D01*
X137284002Y-124907697D01*
X137333827Y-124940792D01*
X137402826Y-124967780D01*
X137495027Y-125008203D01*
X137559874Y-125044717D01*
X137594801Y-125056807D01*
X137659647Y-125071706D01*
X137783234Y-125116280D01*
X137870062Y-125146566D01*
X137964951Y-125174288D01*
X138049703Y-125156702D01*
X138101605Y-125179661D01*
X138154239Y-125178928D01*
X138205408Y-125175631D01*
X138264881Y-125164762D01*
X138280014Y-125152776D01*
X138284665Y-125137529D01*
X138276482Y-125085750D01*
X138284665Y-125076224D01*
X138326941Y-125072437D01*
X138346946Y-125064012D01*
X138357743Y-125046638D01*
X138362578Y-125006737D01*
X138360502Y-124938715D01*
X138354396Y-124814640D01*
X138345481Y-124786186D01*
X138336566Y-124754801D01*
X138344870Y-124732941D01*
X138346214Y-124717920D01*
X138334612Y-124587250D01*
X138312020Y-124403335D01*
X138284665Y-124258988D01*
X138290160Y-124136378D01*
X138186357Y-123681475D01*
X138155582Y-123603806D01*
X138101605Y-123532976D01*
X138083897Y-123517955D01*
X138066189Y-123487424D01*
X138040177Y-123445781D01*
X138013433Y-123429417D01*
X137963607Y-123399497D01*
X137932222Y-123373607D01*
X137891189Y-123338192D01*
X137794958Y-123272124D01*
X137746138Y-123244553D01*
X137683583Y-123229260D01*
X137620690Y-123225840D01*
X137560607Y-123221078D01*
X137512735Y-123214239D01*
X137488799Y-123208866D01*
X137470359Y-123206057D01*
X137447889Y-123208133D01*
X137408932Y-123214239D01*
X137376081Y-123215582D01*
X137350191Y-123214239D01*
X137300935Y-123235444D01*
X137269591Y-123262110D01*
X137250198Y-123296246D01*
X137243579Y-123337215D01*
X137249010Y-123425261D01*
X137262020Y-123477288D01*
X137286660Y-123512251D01*
X137320027Y-123522962D01*
X137350006Y-123516257D01*
X137388415Y-123492309D01*
X137443358Y-123471900D01*
X137594678Y-123461535D01*
X137732676Y-123488768D01*
X137748429Y-123505132D01*
X137764061Y-123513192D01*
X137811933Y-123495484D01*
X137832956Y-123508841D01*
X137861147Y-123540425D01*
X137918545Y-123641053D01*
X137928803Y-123675125D01*
X137932100Y-123722752D01*
X137981315Y-123911796D01*
X138018928Y-124060174D01*
X138036025Y-124121479D01*
X138042864Y-124147491D01*
X138045551Y-124172037D01*
X138038712Y-124199392D01*
X138018196Y-124208918D01*
X138003144Y-124201918D01*
X137958845Y-124163855D01*
X137913156Y-124125549D01*
X137888381Y-124113297D01*
X137830373Y-124095589D01*
X137769556Y-124072386D01*
X137704710Y-124061395D01*
X137557798Y-124045031D01*
X137519574Y-124055900D01*
X137447156Y-124042344D01*
X137408810Y-124060052D01*
X137383653Y-124093635D01*
X137362404Y-124136622D01*
X137367571Y-124213383D01*
X137380233Y-124260942D01*
X137403384Y-124293489D01*
X137433478Y-124303318D01*
X137508583Y-124273276D01*
X137692376Y-124291716D01*
X137877512Y-124308569D01*
X137983312Y-124340749D01*
X138053855Y-124383429D01*
X138101401Y-124442683D01*
X138122121Y-124519228D01*
X138131646Y-124573695D01*
X138150819Y-124664675D01*
X138141172Y-124705464D01*
X138160345Y-124815495D01*
X138167184Y-124907941D01*
X138163154Y-124927602D01*
X138153506Y-124931022D01*
X138048360Y-124923084D01*
X137992306Y-124921741D01*
X137919888Y-124926992D01*
X137833792Y-124920397D01*
X137774441Y-124899026D01*
X137729303Y-124884664D01*
X137691765Y-124880341D01*
X137611775Y-124872404D01*
X137534595Y-124851032D01*
X137461566Y-124823677D01*
X137388415Y-124796322D01*
X137352267Y-124781667D01*
X137299633Y-124753579D01*
G37*
G36*
X136632851Y-123233148D02*
G01*
X136684019Y-123276521D01*
X136733583Y-123339237D01*
X136798080Y-123439675D01*
X136884176Y-123600020D01*
X136945603Y-123749497D01*
X136979797Y-123825579D01*
X137008496Y-123881022D01*
X137081646Y-124117571D01*
X137131472Y-124318339D01*
X137123290Y-124344351D01*
X137145150Y-124433499D01*
X137157362Y-124539012D01*
X137153332Y-124567833D01*
X137154064Y-124587006D01*
X137160170Y-124597875D01*
X137250296Y-124677131D01*
X137283025Y-124720118D01*
X137307693Y-124753579D01*
X137252983Y-124878632D01*
X137194975Y-124822700D01*
X137153210Y-124780324D01*
X137136235Y-124802184D01*
X137128663Y-124824043D01*
X137098688Y-124937907D01*
X137058321Y-125010034D01*
X137021491Y-125044980D01*
X136979954Y-125065285D01*
X136931926Y-125072194D01*
X136863660Y-125077079D01*
X136796615Y-125081842D01*
X136754620Y-125077306D01*
X136710642Y-125063157D01*
X136668098Y-125040699D01*
X136624546Y-125008569D01*
X136552128Y-124943600D01*
X136481053Y-124878632D01*
X136534420Y-124753579D01*
X136590474Y-124801207D01*
X136632728Y-124832226D01*
X136727128Y-124862512D01*
X136768039Y-124872159D01*
X136834945Y-124863948D01*
X136886323Y-124841177D01*
X136925942Y-124804382D01*
X136953386Y-124756192D01*
X136971631Y-124690910D01*
X136978454Y-124603492D01*
X136891015Y-124459511D01*
X136835083Y-124378667D01*
X136795394Y-124321147D01*
X136773534Y-124274497D01*
X136755704Y-124240181D01*
X136722976Y-124190844D01*
X136701116Y-124155184D01*
X136675104Y-124100474D01*
X136661427Y-124059319D01*
X136633461Y-124014745D01*
X136612212Y-123981161D01*
X136576796Y-123882487D01*
X136552128Y-123802864D01*
X136523551Y-123737163D01*
X136507065Y-123690512D01*
X136507929Y-123678178D01*
X136655931Y-123678178D01*
X136667533Y-123730935D01*
X136675104Y-123785157D01*
X136727006Y-123944159D01*
X136773487Y-124056571D01*
X136796615Y-124099009D01*
X136843143Y-124177166D01*
X136874528Y-124234685D01*
X136915561Y-124303318D01*
X136945603Y-124327986D01*
X136953785Y-124316995D01*
X136940108Y-124248485D01*
X136900540Y-124123677D01*
X136855355Y-124030498D01*
X136828855Y-123972247D01*
X136819940Y-123940006D01*
X136810725Y-123879036D01*
X136780983Y-123812512D01*
X136735135Y-123747701D01*
X136665457Y-123672683D01*
X136655931Y-123678178D01*
X136507929Y-123678178D01*
X136508408Y-123671339D01*
X136501570Y-123649357D01*
X136486549Y-123571200D01*
X136471528Y-123505498D01*
X136464078Y-123436256D01*
X136456507Y-123368356D01*
X136465309Y-123291607D01*
X136485938Y-123252585D01*
X136523238Y-123230772D01*
X136594504Y-123221688D01*
X136632851Y-123233148D01*
G37*
G36*
X134477529Y-124753579D02*
G01*
X134425628Y-124878632D01*
X134498046Y-124928579D01*
X134603192Y-124968757D01*
X134642271Y-124979626D01*
X134693440Y-124993304D01*
X134788328Y-125001608D01*
X134918876Y-125016507D01*
X135023637Y-125093859D01*
X135108042Y-125147665D01*
X135188616Y-125188904D01*
X135246650Y-125209092D01*
X135267166Y-125226800D01*
X135380006Y-125260261D01*
X135536322Y-125282854D01*
X135569783Y-125262948D01*
X135608740Y-125218618D01*
X135574668Y-125180638D01*
X135529483Y-125125561D01*
X135481001Y-125077934D01*
X135450416Y-125062643D01*
X135409316Y-125051434D01*
X135309542Y-125024078D01*
X135276081Y-125001486D01*
X135231629Y-124973520D01*
X135166172Y-124931144D01*
X135090945Y-124864221D01*
X135003628Y-124778859D01*
X134963939Y-124738558D01*
X134940736Y-124703754D01*
X134910694Y-124674323D01*
X134862822Y-124591646D01*
X134794556Y-124476242D01*
X134777459Y-124456458D01*
X134753524Y-124428370D01*
X134731149Y-124391597D01*
X134713956Y-124332749D01*
X134704984Y-124265132D01*
X134701622Y-124177044D01*
X134709289Y-124114305D01*
X134733740Y-124045886D01*
X134772641Y-123978305D01*
X134832780Y-123901050D01*
X134951727Y-123788332D01*
X135015778Y-123742440D01*
X135078733Y-123706999D01*
X135170935Y-123658517D01*
X135249459Y-123615530D01*
X135298063Y-123804085D01*
X135364253Y-124096444D01*
X135425680Y-124409319D01*
X135446196Y-124569054D01*
X135459874Y-124637442D01*
X135514462Y-124906598D01*
X135596528Y-125044595D01*
X135630731Y-125081478D01*
X135649773Y-125089658D01*
X135667602Y-125073904D01*
X135683967Y-125023956D01*
X135667480Y-124945921D01*
X135675785Y-124922718D01*
X135660764Y-124742833D01*
X135645621Y-124561482D01*
X135625226Y-124371339D01*
X135595062Y-124207086D01*
X135611549Y-124137233D01*
X135594452Y-124072997D01*
X135581385Y-123985436D01*
X135571981Y-123883464D01*
X135562334Y-123829364D01*
X135550732Y-123784302D01*
X135536322Y-123718600D01*
X135488572Y-123660471D01*
X135432519Y-123595380D01*
X135390143Y-123583778D01*
X135376465Y-123563995D01*
X135392219Y-123547508D01*
X135439357Y-123536639D01*
X135474162Y-123533220D01*
X135514462Y-123521496D01*
X135626570Y-123466786D01*
X135680547Y-123434057D01*
X135694771Y-123416486D01*
X135698988Y-123399741D01*
X135685310Y-123345031D01*
X135701064Y-123299846D01*
X135707170Y-123272491D01*
X135701064Y-123253318D01*
X135683967Y-123246479D01*
X135617044Y-123258813D01*
X135589689Y-123249898D01*
X135562334Y-123239640D01*
X135503593Y-123244525D01*
X135463904Y-123254661D01*
X135424337Y-123275300D01*
X135384769Y-123294351D01*
X135341050Y-123287512D01*
X135325907Y-123290198D01*
X135286339Y-123310104D01*
X135233094Y-123325736D01*
X135177041Y-123337459D01*
X135140160Y-123350282D01*
X134886758Y-123491699D01*
X134784004Y-123559564D01*
X134706995Y-123620781D01*
X134607754Y-123723616D01*
X134541765Y-123828387D01*
X134501671Y-123941616D01*
X134488398Y-124059075D01*
X134500063Y-124184107D01*
X134536696Y-124318512D01*
X134601849Y-124464762D01*
X134684625Y-124602547D01*
X134795652Y-124752272D01*
X134939270Y-124915390D01*
X134888712Y-124897683D01*
X134816294Y-124874602D01*
X134638729Y-124833813D01*
X134541765Y-124798520D01*
X134477529Y-124753579D01*
G37*
G36*
X134486200Y-124750893D02*
G01*
X134442480Y-124690809D01*
X134348906Y-124607611D01*
X134279204Y-124533028D01*
X134222442Y-124456636D01*
X134187002Y-124391489D01*
X134200680Y-124325788D01*
X134174167Y-124292761D01*
X134112508Y-124245188D01*
X134043856Y-124208335D01*
X133998447Y-124198660D01*
X133955031Y-124205670D01*
X133919801Y-124226015D01*
X133857641Y-124283412D01*
X133835781Y-124298433D01*
X133788653Y-124346444D01*
X133753838Y-124412006D01*
X133733856Y-124488932D01*
X133726482Y-124588349D01*
X133735213Y-124647725D01*
X133768859Y-124744909D01*
X133802622Y-124841749D01*
X133811235Y-124898782D01*
X133806472Y-124909773D01*
X133793527Y-124913803D01*
X133751151Y-124898171D01*
X133697906Y-124855062D01*
X133610345Y-124776660D01*
X133573464Y-124751259D01*
X133547575Y-124810000D01*
X133518876Y-124876922D01*
X133546964Y-124902934D01*
X133584455Y-124937006D01*
X133705355Y-125019804D01*
X133883653Y-125131301D01*
X133946423Y-125160000D01*
X133999713Y-125155086D01*
X134032519Y-125142903D01*
X134053775Y-125121034D01*
X134061217Y-125087581D01*
X134055111Y-125052655D01*
X134038014Y-125009546D01*
X134020307Y-124973398D01*
X134003820Y-124935785D01*
X133958147Y-124775806D01*
X133942393Y-124643060D01*
X133948799Y-124575634D01*
X133964986Y-124532418D01*
X133993009Y-124502346D01*
X134032519Y-124488576D01*
X134098098Y-124535104D01*
X134170516Y-124610209D01*
X134241591Y-124690809D01*
X134293492Y-124733185D01*
X134333182Y-124779591D01*
X134405478Y-124835645D01*
X134413782Y-124852009D01*
X134431489Y-124876556D01*
X134456158Y-124814518D01*
X134486200Y-124750893D01*
G37*
G36*
X133128820Y-125070973D02*
G01*
X133139078Y-125107976D01*
X133169853Y-125142292D01*
X133186950Y-125173189D01*
X133213572Y-125183447D01*
X133265422Y-125173533D01*
X133309193Y-125143757D01*
X133343120Y-125097203D01*
X133371964Y-125025666D01*
X133362438Y-125016140D01*
X133376116Y-124980481D01*
X133363904Y-124937983D01*
X133352913Y-124896706D01*
X133330443Y-124859092D01*
X133294173Y-124847369D01*
X133259916Y-124852166D01*
X133227861Y-124866664D01*
X133199536Y-124890023D01*
X133172540Y-124925526D01*
X133139078Y-124997578D01*
X133128820Y-125070973D01*
G37*
G36*
X131171092Y-123280429D02*
G01*
X131106978Y-123301556D01*
X131042742Y-123325369D01*
X131009281Y-123355289D01*
X130951151Y-123424654D01*
X130904134Y-123487913D01*
X130874703Y-123564727D01*
X130835746Y-123648381D01*
X130816529Y-123705334D01*
X130811810Y-123736064D01*
X130826755Y-123784430D01*
X130885572Y-123855132D01*
X130958257Y-123911514D01*
X131001709Y-123925108D01*
X131026152Y-123920581D01*
X131042131Y-123908133D01*
X131051468Y-123888625D01*
X131055076Y-123858551D01*
X131074127Y-123764884D01*
X131121711Y-123628851D01*
X131175976Y-123542379D01*
X131222358Y-123500229D01*
X131273397Y-123475865D01*
X131331071Y-123467641D01*
X131376900Y-123471564D01*
X131421929Y-123483394D01*
X131464250Y-123502880D01*
X131503140Y-123530411D01*
X131553820Y-123580969D01*
X131628925Y-123669752D01*
X131643946Y-123691612D01*
X131667149Y-123724340D01*
X131699267Y-123779661D01*
X131747749Y-123852690D01*
X131772418Y-123918269D01*
X131802459Y-123974323D01*
X131810642Y-123995450D01*
X131820167Y-124037093D01*
X131841294Y-124105359D01*
X131866573Y-124185959D01*
X131898080Y-124421531D01*
X131907606Y-124534127D01*
X131897348Y-124651608D01*
X131865230Y-124769089D01*
X131833845Y-124841507D01*
X131805146Y-124885104D01*
X131753244Y-124916612D01*
X131683513Y-124927480D01*
X131630061Y-124922649D01*
X131579710Y-124908307D01*
X131532376Y-124885357D01*
X131488119Y-124854696D01*
X131439026Y-124804626D01*
X131339253Y-124698136D01*
X131305792Y-124667240D01*
X131262683Y-124622543D01*
X131214323Y-124551224D01*
X131168405Y-124482470D01*
X131137453Y-124449543D01*
X131104902Y-124427515D01*
X131068764Y-124414196D01*
X131029064Y-124409685D01*
X130977990Y-124416556D01*
X130945778Y-124434354D01*
X130925807Y-124463780D01*
X130918422Y-124508482D01*
X130928070Y-124554521D01*
X130940282Y-124600439D01*
X130948464Y-124661500D01*
X130960799Y-124747229D01*
X130973743Y-124857016D01*
X131001709Y-124940669D01*
X131020328Y-124994742D01*
X131039323Y-125090268D01*
X131058639Y-125185814D01*
X131078279Y-125241088D01*
X131093300Y-125284319D01*
X131108321Y-125359180D01*
X131121388Y-125408517D01*
X131142515Y-125441489D01*
X131172557Y-125459197D01*
X131225802Y-125479836D01*
X131244975Y-125527219D01*
X131260777Y-125538923D01*
X131281856Y-125542972D01*
X131298670Y-125538872D01*
X131311165Y-125526486D01*
X131321423Y-125472997D01*
X131316660Y-125429644D01*
X131299563Y-125354905D01*
X131290038Y-125295799D01*
X131284542Y-125205184D01*
X131270254Y-125118845D01*
X131236671Y-124973886D01*
X131254501Y-124885104D01*
X131244975Y-124848224D01*
X131249738Y-124833935D01*
X131264026Y-124829173D01*
X131343283Y-124891943D01*
X131460764Y-124990373D01*
X131534525Y-125046304D01*
X131645289Y-125105167D01*
X131759961Y-125136552D01*
X131820167Y-125124218D01*
X131866573Y-125132400D01*
X131930809Y-125117379D01*
X132004570Y-125073782D01*
X132068196Y-125008203D01*
X132119364Y-124916612D01*
X132139881Y-124851154D01*
X132172609Y-124725491D01*
X132157588Y-124654417D01*
X132160275Y-124572473D01*
X132133042Y-124367676D01*
X132103116Y-124198552D01*
X132059807Y-124047148D01*
X132003960Y-123911552D01*
X131932783Y-123783460D01*
X131849291Y-123667680D01*
X131753122Y-123563262D01*
X131665683Y-123479975D01*
X131620621Y-123436133D01*
X131554431Y-123389727D01*
X131475785Y-123343321D01*
X131425959Y-123318042D01*
X131359647Y-123291420D01*
X131232641Y-123276399D01*
X131190265Y-123287267D01*
X131171092Y-123280429D01*
G37*
G36*
X130867498Y-124753579D02*
G01*
X130858583Y-124743932D01*
X130855163Y-124730132D01*
X130802651Y-124676887D01*
X130736339Y-124597386D01*
X130674180Y-124515565D01*
X130605181Y-124433743D01*
X130545708Y-124348625D01*
X130483548Y-124262041D01*
X130398918Y-124225282D01*
X130357885Y-124214291D01*
X130326500Y-124227236D01*
X130315509Y-124264727D01*
X130319661Y-124287930D01*
X130329187Y-124320659D01*
X130351046Y-124376591D01*
X130376936Y-124471967D01*
X130405635Y-124566001D01*
X130426884Y-124673834D01*
X130434333Y-124763715D01*
X130426884Y-124876922D01*
X130416068Y-124905816D01*
X130405635Y-124909651D01*
X130371563Y-124889867D01*
X130323691Y-124863244D01*
X130268370Y-124799253D01*
X130193876Y-124709249D01*
X130143318Y-124634267D01*
X130120847Y-124608377D01*
X130096912Y-124578335D01*
X130067671Y-124518427D01*
X130038782Y-124480882D01*
X130004160Y-124456509D01*
X129967096Y-124448764D01*
X129910432Y-124457679D01*
X129881001Y-124484180D01*
X129874284Y-124516908D01*
X129871475Y-124578335D01*
X129865369Y-124621933D01*
X129859141Y-124664187D01*
X129854118Y-124710778D01*
X129841434Y-124739902D01*
X129819499Y-124758462D01*
X129786723Y-124765059D01*
X129760833Y-124761639D01*
X129730792Y-124753579D01*
X129676081Y-124878632D01*
X129810659Y-124951660D01*
X129860609Y-124971491D01*
X129889183Y-124976451D01*
X129952695Y-124967153D01*
X130001168Y-124941036D01*
X130038046Y-124898695D01*
X130065404Y-124836011D01*
X130077128Y-124803283D01*
X130099598Y-124770554D01*
X130127686Y-124803283D01*
X130161025Y-124841385D01*
X130234909Y-124929434D01*
X130310013Y-125014553D01*
X130359900Y-125064380D01*
X130406367Y-125095764D01*
X130454794Y-125115033D01*
X130497226Y-125120921D01*
X130554919Y-125111162D01*
X130598342Y-125083429D01*
X130628688Y-125039271D01*
X130647557Y-124972299D01*
X130663921Y-124861901D01*
X130665265Y-124814152D01*
X130672836Y-124754190D01*
X130679660Y-124737650D01*
X130687124Y-124733674D01*
X130695307Y-124737826D01*
X130773220Y-124819281D01*
X130786898Y-124843461D01*
X130812787Y-124878632D01*
X130831960Y-124828318D01*
X130867498Y-124753579D01*
G37*
G36*
X129730303Y-124753579D02*
G01*
X129722121Y-124744054D01*
X129698185Y-124703021D01*
X129645551Y-124659302D01*
X129575209Y-124613018D01*
X129544434Y-124587006D01*
X129528070Y-124563803D01*
X129491189Y-124533761D01*
X129441974Y-124487355D01*
X129421580Y-124465495D01*
X129399598Y-124431301D01*
X129359298Y-124399916D01*
X129306664Y-124350701D01*
X129229605Y-124269612D01*
X129133251Y-124177288D01*
X129099790Y-124164344D01*
X129069016Y-124159581D01*
X129012935Y-124167649D01*
X128976814Y-124188890D01*
X128954243Y-124223011D01*
X128946039Y-124272421D01*
X128950802Y-124317362D01*
X128961060Y-124396252D01*
X128988415Y-124563558D01*
X129045812Y-124751259D01*
X129068405Y-124815251D01*
X129096371Y-124907697D01*
X129082693Y-124918565D01*
X129048621Y-124900491D01*
X128982920Y-124846147D01*
X128907815Y-124780446D01*
X128873621Y-124753579D01*
X128843579Y-124820868D01*
X128820376Y-124878632D01*
X128852494Y-124903056D01*
X128879117Y-124932732D01*
X128945429Y-124975963D01*
X129027983Y-125028719D01*
X129083426Y-125078056D01*
X129161950Y-125143513D01*
X129187840Y-125149009D01*
X129224110Y-125188087D01*
X129254762Y-125207016D01*
X129298482Y-125222648D01*
X129345010Y-125238157D01*
X129366870Y-125220450D01*
X129372243Y-125185157D01*
X129405094Y-125100771D01*
X129417428Y-124994647D01*
X129416085Y-124971566D01*
X129413276Y-124949829D01*
X129422923Y-124907697D01*
X129415085Y-124870406D01*
X129391538Y-124840286D01*
X129357820Y-124820349D01*
X129320341Y-124813785D01*
X129303063Y-124818892D01*
X129291032Y-124834912D01*
X129272592Y-124855917D01*
X129264859Y-124849944D01*
X129252808Y-124818548D01*
X129232903Y-124709005D01*
X129220690Y-124600317D01*
X129217882Y-124529609D01*
X129225453Y-124503108D01*
X129250732Y-124494193D01*
X129275690Y-124506068D01*
X129365526Y-124576259D01*
X129636025Y-124821113D01*
X129651657Y-124844438D01*
X129675593Y-124878632D01*
X129694766Y-124828318D01*
X129730303Y-124753579D01*
G37*
G36*
X128874476Y-124753579D02*
G01*
X128855303Y-124728178D01*
X128830757Y-124693129D01*
X128714009Y-124557819D01*
X128606664Y-124451207D01*
X128543893Y-124387337D01*
X128457798Y-124297334D01*
X128349842Y-124253370D01*
X128316962Y-124259676D01*
X128295254Y-124277184D01*
X128282380Y-124304425D01*
X128277424Y-124345938D01*
X128283653Y-124428370D01*
X128300628Y-124518862D01*
X128321144Y-124589692D01*
X128317114Y-124603981D01*
X128303436Y-124608743D01*
X128224180Y-124540600D01*
X128069696Y-124377079D01*
X127988490Y-124294534D01*
X127926325Y-124242990D01*
X127866238Y-124207701D01*
X127827896Y-124198660D01*
X127793107Y-124206307D01*
X127769888Y-124228213D01*
X127756696Y-124261901D01*
X127751448Y-124315408D01*
X127763782Y-124476852D01*
X127780484Y-124552987D01*
X127806036Y-124625840D01*
X127812875Y-124649166D01*
X127814218Y-124666995D01*
X127797854Y-124684947D01*
X127772575Y-124657470D01*
X127739113Y-124612163D01*
X127676343Y-124559895D01*
X127607955Y-124506284D01*
X127530163Y-124460366D01*
X127452250Y-124444490D01*
X127438572Y-124448642D01*
X127424895Y-124458290D01*
X127372993Y-124508482D01*
X127344295Y-124547561D01*
X127290364Y-124649537D01*
X127249284Y-124711692D01*
X127206307Y-124755118D01*
X127176256Y-124765914D01*
X127162578Y-124762494D01*
X127148900Y-124753579D01*
X127095655Y-124878632D01*
X127183094Y-124936151D01*
X127220704Y-124951310D01*
X127250017Y-124955690D01*
X127308052Y-124944369D01*
X127371819Y-124906855D01*
X127444678Y-124833813D01*
X127517614Y-124755676D01*
X127566138Y-124720844D01*
X127598429Y-124711936D01*
X127641176Y-124725728D01*
X127714057Y-124783573D01*
X127834734Y-124920397D01*
X127955996Y-125063299D01*
X128015515Y-125117689D01*
X128040997Y-125128736D01*
X128095708Y-125124584D01*
X128112072Y-125107121D01*
X128117568Y-125075980D01*
X128109385Y-125022002D01*
X128087404Y-124943478D01*
X128058827Y-124851887D01*
X128046493Y-124804138D01*
X128034891Y-124734406D01*
X128015108Y-124596409D01*
X128023290Y-124573206D01*
X128042341Y-124565024D01*
X128063590Y-124571130D01*
X128090212Y-124590914D01*
X128126482Y-124626573D01*
X128189986Y-124677009D01*
X128287683Y-124788384D01*
X128389410Y-124902445D01*
X128519958Y-125043862D01*
X128565661Y-125082367D01*
X128582117Y-125089658D01*
X128644277Y-125080132D01*
X128660412Y-125067826D01*
X128665404Y-125051556D01*
X128656610Y-124995515D01*
X128616922Y-124864099D01*
X128577842Y-124731002D01*
X128568440Y-124663210D01*
X128574546Y-124647456D01*
X128590300Y-124641350D01*
X128629256Y-124660034D01*
X128680425Y-124718653D01*
X128726953Y-124769699D01*
X128793876Y-124837233D01*
X128804745Y-124858604D01*
X128819766Y-124878632D01*
X128838939Y-124828318D01*
X128874476Y-124753579D01*
G37*
G36*
X127105425Y-124692641D02*
G01*
X126981106Y-124609598D01*
X126964741Y-124591036D01*
X126942882Y-124557330D01*
X126917602Y-124527166D01*
X126881332Y-124505184D01*
X126849947Y-124470868D01*
X126798046Y-124422752D01*
X126759822Y-124398695D01*
X126709141Y-124356807D01*
X126586323Y-124248392D01*
X126491277Y-124179609D01*
X126399286Y-124133203D01*
X126333496Y-124120502D01*
X126301037Y-124124746D01*
X126280861Y-124135645D01*
X126268249Y-124153355D01*
X126263764Y-124178265D01*
X126274023Y-124229190D01*
X126306140Y-124266315D01*
X126379902Y-124321392D01*
X126433147Y-124382575D01*
X126506908Y-124446566D01*
X126530111Y-124478196D01*
X126556123Y-124502986D01*
X126606681Y-124544263D01*
X126625756Y-124575426D01*
X126666154Y-124622665D01*
X126788398Y-124738192D01*
X126822592Y-124781912D01*
X126886828Y-124872037D01*
X126877180Y-124884371D01*
X126814410Y-124851399D01*
X126741992Y-124789605D01*
X126666277Y-124720240D01*
X126624511Y-124685191D01*
X126605460Y-124674200D01*
X126583478Y-124660401D01*
X126519617Y-124591638D01*
X126466120Y-124548415D01*
X126411184Y-124520322D01*
X126364881Y-124512023D01*
X126339447Y-124517783D01*
X126321161Y-124534738D01*
X126309844Y-124560712D01*
X126303454Y-124602637D01*
X126306140Y-124734528D01*
X126300830Y-124776359D01*
X126282327Y-124813541D01*
X126252879Y-124839949D01*
X126216015Y-124848590D01*
X126192079Y-124841873D01*
X126168143Y-124824166D01*
X126149703Y-124801085D01*
X126131263Y-124779347D01*
X126115509Y-124769944D01*
X126095725Y-124753579D01*
X126063607Y-124825020D01*
X126043824Y-124878632D01*
X126105983Y-124938471D01*
X126170952Y-124996967D01*
X126250209Y-125044473D01*
X126326657Y-125060226D01*
X126407385Y-125046766D01*
X126463311Y-125009668D01*
X126499730Y-124950038D01*
X126519364Y-124856650D01*
X126522784Y-124831371D01*
X126537072Y-124804748D01*
X126552093Y-124819159D01*
X126571266Y-124838942D01*
X126615596Y-124873136D01*
X126677756Y-124922229D01*
X126758478Y-125002951D01*
X126804884Y-125047892D01*
X126868387Y-125094542D01*
X126949720Y-125142658D01*
X126998813Y-125166716D01*
X127028855Y-125175631D01*
X127088296Y-125166742D01*
X127125819Y-125143391D01*
X127148588Y-125104899D01*
X127157327Y-125043618D01*
X127153390Y-125007357D01*
X127141573Y-124972787D01*
X127094434Y-124907452D01*
X127091748Y-124878632D01*
X127095167Y-124864344D01*
X127104082Y-124847369D01*
X127122400Y-124804626D01*
X127144993Y-124753579D01*
X127129239Y-124732208D01*
X127105425Y-124692641D01*
G37*
G36*
X126097923Y-124753579D02*
G01*
X126083513Y-124732330D01*
X126062386Y-124704120D01*
X126026849Y-124672613D01*
X125977634Y-124624497D01*
X125917550Y-124556598D01*
X125831454Y-124458290D01*
X125776866Y-124398572D01*
X125698953Y-124311378D01*
X125658365Y-124271093D01*
X125617009Y-124244089D01*
X125571948Y-124227610D01*
X125524075Y-124222107D01*
X125480191Y-124230342D01*
X125451657Y-124253004D01*
X125434925Y-124288331D01*
X125428454Y-124342763D01*
X125451657Y-124463541D01*
X125524075Y-124699357D01*
X125547278Y-124751503D01*
X125558269Y-124782889D01*
X125560956Y-124803405D01*
X125551430Y-124823921D01*
X125538485Y-124812930D01*
X125524075Y-124796566D01*
X125490736Y-124753579D01*
X125436636Y-124703876D01*
X125404640Y-124658447D01*
X125360188Y-124616926D01*
X125345900Y-124599340D01*
X125324651Y-124573450D01*
X125282274Y-124536814D01*
X125224877Y-124497369D01*
X125158688Y-124467449D01*
X125107397Y-124456580D01*
X125067000Y-124461828D01*
X125032292Y-124477096D01*
X125002732Y-124502415D01*
X124976238Y-124541332D01*
X124924214Y-124698503D01*
X124890753Y-124761395D01*
X124870648Y-124777013D01*
X124849110Y-124781912D01*
X124817114Y-124774829D01*
X124790369Y-124753579D01*
X124735781Y-124878632D01*
X124783653Y-124918810D01*
X124831402Y-124958866D01*
X124890143Y-124999776D01*
X124944731Y-125011500D01*
X125004815Y-124997822D01*
X125031247Y-124980909D01*
X125054030Y-124956789D01*
X125081385Y-124916489D01*
X125119609Y-124843339D01*
X125160031Y-124796200D01*
X125212543Y-124727201D01*
X125224877Y-124723049D01*
X125276168Y-124747595D01*
X125330024Y-124789727D01*
X125418928Y-124857871D01*
X125455809Y-124889134D01*
X125521388Y-124973520D01*
X125637526Y-125096008D01*
X125673063Y-125130690D01*
X125708600Y-125164030D01*
X125748900Y-125185157D01*
X125798726Y-125191263D01*
X125842524Y-125180781D01*
X125858077Y-125153771D01*
X125866992Y-125077934D01*
X125820586Y-124934685D01*
X125760380Y-124733796D01*
X125755617Y-124715478D01*
X125744016Y-124684703D01*
X125734490Y-124653928D01*
X125731681Y-124631336D01*
X125738520Y-124616437D01*
X125760380Y-124610942D01*
X125796650Y-124627306D01*
X125850505Y-124679207D01*
X125912055Y-124743443D01*
X125943440Y-124770799D01*
X125975558Y-124798154D01*
X126017201Y-124837721D01*
X126025505Y-124854085D01*
X126043213Y-124878632D01*
X126062386Y-124828318D01*
X126097923Y-124753579D01*
G37*
D11*
G36*
X139199647Y-108475612D02*
G01*
X139326711Y-108496767D01*
X139417299Y-108541386D01*
X139501628Y-108620814D01*
X139603686Y-108781203D01*
X139653568Y-108969463D01*
X139651372Y-109165832D01*
X139597196Y-109350547D01*
X139497273Y-109497647D01*
X139356091Y-109617281D01*
X139213003Y-109676609D01*
X139045597Y-109682542D01*
X138945868Y-109667664D01*
X138844798Y-109619420D01*
X138737987Y-109523613D01*
X138643721Y-109400722D01*
X138580287Y-109271224D01*
X138574316Y-109251606D01*
X138551117Y-109058597D01*
X138579551Y-108865104D01*
X138654179Y-108694916D01*
X138720526Y-108612254D01*
X138829982Y-108524657D01*
X138947279Y-108479031D01*
X139095894Y-108468680D01*
X139199647Y-108475612D01*
G37*
G36*
X143594263Y-108473724D02*
G01*
X143784288Y-108510166D01*
X143921091Y-108592258D01*
X144012193Y-108726697D01*
X144059498Y-108888091D01*
X144072283Y-109048398D01*
X144056023Y-109211931D01*
X144016029Y-109362939D01*
X143957609Y-109485674D01*
X143886072Y-109564384D01*
X143824545Y-109585085D01*
X143773747Y-109605553D01*
X143766997Y-109615992D01*
X143724021Y-109642646D01*
X143634383Y-109662808D01*
X143523520Y-109672849D01*
X143416872Y-109669146D01*
X143405241Y-109667556D01*
X143304466Y-109624621D01*
X143193248Y-109536349D01*
X143091018Y-109423087D01*
X143017208Y-109305181D01*
X142993894Y-109236862D01*
X142983391Y-109126304D01*
X142985730Y-108999034D01*
X142998665Y-108879053D01*
X143019951Y-108790362D01*
X143038528Y-108759813D01*
X143076289Y-108713648D01*
X143119440Y-108640376D01*
X143203969Y-108541440D01*
X143336642Y-108485401D01*
X143523065Y-108470289D01*
X143594263Y-108473724D01*
G37*
D12*
X143131606Y-110470521D02*
X143175349Y-110486180D01*
X143254052Y-110543379D01*
X143268112Y-110628302D01*
X143218103Y-110737792D01*
X143106050Y-110867284D01*
X142968672Y-110984310D01*
X142794921Y-111108824D01*
X142607083Y-111226841D01*
X142427441Y-111324381D01*
X142278281Y-111387459D01*
X142275709Y-111388290D01*
X142176558Y-111423784D01*
X142106284Y-111455570D01*
X142095312Y-111462589D01*
X142012661Y-111497832D01*
X141873708Y-111526357D01*
X141694071Y-111547308D01*
X141489367Y-111559826D01*
X141275216Y-111563054D01*
X141067234Y-111556134D01*
X140881041Y-111538207D01*
X140838169Y-111531644D01*
X140706207Y-111502079D01*
X140583633Y-111462891D01*
X140549532Y-111448471D01*
X140438230Y-111402541D01*
X140336434Y-111369893D01*
X140264760Y-111342046D01*
X140237215Y-111312991D01*
X140208229Y-111283833D01*
X140187144Y-111280823D01*
X140123328Y-111258898D01*
X140021881Y-111200782D01*
X139899336Y-111117960D01*
X139772225Y-111021921D01*
X139657081Y-110924152D01*
X139612424Y-110881498D01*
X139528530Y-110787611D01*
X139490338Y-110711934D01*
X139485651Y-110629609D01*
X139486145Y-110624157D01*
X139503263Y-110540809D01*
X139548924Y-110504684D01*
X139615772Y-110493738D01*
X139693435Y-110496126D01*
X139765167Y-110527786D01*
X139852738Y-110600085D01*
X139892136Y-110638056D01*
X139999066Y-110741869D01*
X140078266Y-110812280D01*
X140152795Y-110867145D01*
X140245713Y-110924319D01*
X140309374Y-110961132D01*
X140599956Y-111098335D01*
X140908362Y-111182792D01*
X141252146Y-111218833D01*
X141362371Y-111220849D01*
X141525610Y-111217797D01*
X141664199Y-111209142D01*
X141760845Y-111196321D01*
X141795326Y-111184895D01*
X141852749Y-111157680D01*
X141957576Y-111121473D01*
X142086292Y-111084338D01*
X142206800Y-111049162D01*
X142293879Y-111017132D01*
X142329699Y-110994866D01*
X142329829Y-110993972D01*
X142358881Y-110961573D01*
X142421384Y-110925975D01*
X142480245Y-110896967D01*
X142535315Y-110862172D01*
X142600899Y-110810370D01*
X142691304Y-110730339D01*
X142808438Y-110622372D01*
X142917226Y-110525270D01*
X142994527Y-110472354D01*
X143059576Y-110456484D01*
X143131606Y-110470521D01*
G36*
X143131606Y-110470521D02*
G01*
X143175349Y-110486180D01*
X143254052Y-110543379D01*
X143268112Y-110628302D01*
X143218103Y-110737792D01*
X143106050Y-110867284D01*
X142968672Y-110984310D01*
X142794921Y-111108824D01*
X142607083Y-111226841D01*
X142427441Y-111324381D01*
X142278281Y-111387459D01*
X142275709Y-111388290D01*
X142176558Y-111423784D01*
X142106284Y-111455570D01*
X142095312Y-111462589D01*
X142012661Y-111497832D01*
X141873708Y-111526357D01*
X141694071Y-111547308D01*
X141489367Y-111559826D01*
X141275216Y-111563054D01*
X141067234Y-111556134D01*
X140881041Y-111538207D01*
X140838169Y-111531644D01*
X140706207Y-111502079D01*
X140583633Y-111462891D01*
X140549532Y-111448471D01*
X140438230Y-111402541D01*
X140336434Y-111369893D01*
X140264760Y-111342046D01*
X140237215Y-111312991D01*
X140208229Y-111283833D01*
X140187144Y-111280823D01*
X140123328Y-111258898D01*
X140021881Y-111200782D01*
X139899336Y-111117960D01*
X139772225Y-111021921D01*
X139657081Y-110924152D01*
X139612424Y-110881498D01*
X139528530Y-110787611D01*
X139490338Y-110711934D01*
X139485651Y-110629609D01*
X139486145Y-110624157D01*
X139503263Y-110540809D01*
X139548924Y-110504684D01*
X139615772Y-110493738D01*
X139693435Y-110496126D01*
X139765167Y-110527786D01*
X139852738Y-110600085D01*
X139892136Y-110638056D01*
X139999066Y-110741869D01*
X140078266Y-110812280D01*
X140152795Y-110867145D01*
X140245713Y-110924319D01*
X140309374Y-110961132D01*
X140599956Y-111098335D01*
X140908362Y-111182792D01*
X141252146Y-111218833D01*
X141362371Y-111220849D01*
X141525610Y-111217797D01*
X141664199Y-111209142D01*
X141760845Y-111196321D01*
X141795326Y-111184895D01*
X141852749Y-111157680D01*
X141957576Y-111121473D01*
X142086292Y-111084338D01*
X142206800Y-111049162D01*
X142293879Y-111017132D01*
X142329699Y-110994866D01*
X142329829Y-110993972D01*
X142358881Y-110961573D01*
X142421384Y-110925975D01*
X142480245Y-110896967D01*
X142535315Y-110862172D01*
X142600899Y-110810370D01*
X142691304Y-110730339D01*
X142808438Y-110622372D01*
X142917226Y-110525270D01*
X142994527Y-110472354D01*
X143059576Y-110456484D01*
X143131606Y-110470521D01*
G37*
X144990774Y-106734431D02*
X145330434Y-106735504D01*
X145624340Y-106737190D01*
X145867366Y-106739518D01*
X146054385Y-106742519D01*
X146180270Y-106746221D01*
X146234504Y-106749829D01*
X146364317Y-106775869D01*
X146475656Y-106814773D01*
X146523141Y-106842321D01*
X146605255Y-106908804D01*
X146617769Y-109235321D01*
X146630283Y-111561837D01*
X146739537Y-111583688D01*
X146813058Y-111590850D01*
X146945974Y-111596511D01*
X147125535Y-111600683D01*
X147338992Y-111603374D01*
X147573597Y-111604594D01*
X147816601Y-111604355D01*
X148055254Y-111602665D01*
X148276809Y-111599534D01*
X148468515Y-111594972D01*
X148617624Y-111588990D01*
X148706888Y-111582160D01*
X148896306Y-111559408D01*
X148896799Y-109282403D01*
X148897205Y-108881748D01*
X148898208Y-108501155D01*
X148899752Y-108146980D01*
X148901780Y-107825580D01*
X148904234Y-107543312D01*
X148907057Y-107306532D01*
X148910193Y-107121596D01*
X148913585Y-106994862D01*
X148917175Y-106932687D01*
X148917896Y-106928616D01*
X148931651Y-106887825D01*
X148953275Y-106853911D01*
X148989100Y-106826180D01*
X149045461Y-106803938D01*
X149128690Y-106786490D01*
X149245121Y-106773142D01*
X149401087Y-106763200D01*
X149602920Y-106755970D01*
X149856956Y-106750757D01*
X150169526Y-106746868D01*
X150546964Y-106743607D01*
X150610084Y-106743126D01*
X150994107Y-106740670D01*
X151312504Y-106739740D01*
X151571793Y-106740492D01*
X151778494Y-106743082D01*
X151939126Y-106747665D01*
X152060210Y-106754399D01*
X152148263Y-106763439D01*
X152209806Y-106774941D01*
X152233664Y-106782005D01*
X152377982Y-106832063D01*
X152400646Y-107459923D01*
X152405443Y-107628051D01*
X152410087Y-107857613D01*
X152414458Y-108137883D01*
X152418433Y-108458137D01*
X152421888Y-108807649D01*
X152424702Y-109175695D01*
X152426752Y-109551548D01*
X152427706Y-109828622D01*
X152432101Y-111569460D01*
X153604687Y-111569460D01*
X154777272Y-111569460D01*
X154777272Y-109225121D01*
X154777272Y-106880782D01*
X154874837Y-106816811D01*
X154904429Y-106800760D01*
X154944278Y-106787495D01*
X155001317Y-106776683D01*
X155082479Y-106767992D01*
X155194696Y-106761089D01*
X155344903Y-106755643D01*
X155540030Y-106751321D01*
X155787011Y-106747791D01*
X156092780Y-106744719D01*
X156435503Y-106741987D01*
X156830593Y-106739137D01*
X157159701Y-106737649D01*
X157429001Y-106738546D01*
X157644668Y-106742849D01*
X157812878Y-106751578D01*
X157939805Y-106765756D01*
X158031626Y-106786404D01*
X158094515Y-106814544D01*
X158134647Y-106851196D01*
X158158197Y-106897383D01*
X158171342Y-106954126D01*
X158180256Y-107022446D01*
X158181248Y-107030757D01*
X158185397Y-107100986D01*
X158189315Y-107236401D01*
X158192933Y-107430028D01*
X158196184Y-107674893D01*
X158198998Y-107964023D01*
X158201307Y-108290444D01*
X158203042Y-108647184D01*
X158204135Y-109027268D01*
X158204515Y-109395667D01*
X158204829Y-111569460D01*
X159233096Y-111569460D01*
X160261363Y-111569460D01*
X160261363Y-111767897D01*
X160261363Y-111966335D01*
X159125270Y-111966335D01*
X158805800Y-111966020D01*
X158550667Y-111964808D01*
X158352048Y-111962297D01*
X158202124Y-111958084D01*
X158093072Y-111951768D01*
X158017072Y-111942947D01*
X157966301Y-111931217D01*
X157932940Y-111916178D01*
X157916605Y-111904197D01*
X157902127Y-111890303D01*
X157889715Y-111871745D01*
X157879209Y-111843229D01*
X157870451Y-111799461D01*
X157863282Y-111735148D01*
X157857543Y-111644996D01*
X157853075Y-111523710D01*
X157849718Y-111365998D01*
X157847315Y-111166566D01*
X157845706Y-110920119D01*
X157844733Y-110621365D01*
X157844235Y-110265010D01*
X157844055Y-109845759D01*
X157844033Y-109486867D01*
X157844033Y-107131676D01*
X156491050Y-107131676D01*
X155138067Y-107131676D01*
X155138067Y-109486867D01*
X155138021Y-109956763D01*
X155137777Y-110359793D01*
X155137175Y-110701251D01*
X155136058Y-110986431D01*
X155134265Y-111220627D01*
X155131639Y-111409133D01*
X155128019Y-111557241D01*
X155123248Y-111670247D01*
X155117166Y-111753443D01*
X155109615Y-111812123D01*
X155100435Y-111851582D01*
X155089468Y-111877112D01*
X155076554Y-111894007D01*
X155065496Y-111904197D01*
X155041965Y-111919967D01*
X155007195Y-111932842D01*
X154954258Y-111943111D01*
X154876222Y-111951064D01*
X154766159Y-111956989D01*
X154617140Y-111961176D01*
X154422233Y-111963914D01*
X154174510Y-111965492D01*
X153867041Y-111966200D01*
X153576873Y-111966335D01*
X153218965Y-111966161D01*
X152926406Y-111965438D01*
X152692390Y-111963861D01*
X152510108Y-111961127D01*
X152372753Y-111956934D01*
X152273515Y-111950976D01*
X152205586Y-111942951D01*
X152162160Y-111932555D01*
X152136427Y-111919485D01*
X152121579Y-111903436D01*
X152120265Y-111901392D01*
X152110772Y-111857616D01*
X152101839Y-111756366D01*
X152093413Y-111595717D01*
X152085440Y-111373748D01*
X152077866Y-111088537D01*
X152070637Y-110738162D01*
X152063701Y-110320700D01*
X152057002Y-109834230D01*
X152052823Y-109486436D01*
X152025939Y-107136424D01*
X151792274Y-107111401D01*
X151694691Y-107105216D01*
X151543502Y-107100987D01*
X151349063Y-107098576D01*
X151121725Y-107097843D01*
X150871843Y-107098649D01*
X150609771Y-107100854D01*
X150345861Y-107104318D01*
X150090467Y-107108903D01*
X149853943Y-107114468D01*
X149646642Y-107120875D01*
X149478919Y-107127983D01*
X149361125Y-107135653D01*
X149303616Y-107143747D01*
X149300871Y-107144963D01*
X149291610Y-107167215D01*
X149283616Y-107224421D01*
X149276813Y-107320648D01*
X149271121Y-107459962D01*
X149266464Y-107646431D01*
X149262766Y-107884119D01*
X149259947Y-108177096D01*
X149257931Y-108529426D01*
X149256641Y-108945177D01*
X149255999Y-109428416D01*
X149255954Y-109506035D01*
X149255465Y-109990593D01*
X149254446Y-110407709D01*
X149252800Y-110762097D01*
X149250431Y-111058474D01*
X149247241Y-111301553D01*
X149243135Y-111496051D01*
X149238016Y-111646682D01*
X149231787Y-111758162D01*
X149224352Y-111835206D01*
X149215614Y-111882530D01*
X149206877Y-111903195D01*
X149190331Y-111919172D01*
X149162774Y-111932216D01*
X149117384Y-111942624D01*
X149047338Y-111950688D01*
X148945813Y-111956703D01*
X148805988Y-111960963D01*
X148621038Y-111963762D01*
X148384142Y-111965395D01*
X148088477Y-111966154D01*
X147742015Y-111966335D01*
X147385224Y-111966258D01*
X147093625Y-111965784D01*
X146860250Y-111964549D01*
X146678132Y-111962188D01*
X146540303Y-111958335D01*
X146439797Y-111952628D01*
X146369646Y-111944701D01*
X146322882Y-111934189D01*
X146292538Y-111920727D01*
X146271647Y-111903952D01*
X146257711Y-111888655D01*
X146244192Y-111870379D01*
X146232609Y-111845511D01*
X146222815Y-111808706D01*
X146214659Y-111754618D01*
X146207992Y-111677900D01*
X146202665Y-111573206D01*
X146198529Y-111435190D01*
X146195433Y-111258507D01*
X146193229Y-111037809D01*
X146191768Y-110767752D01*
X146190899Y-110442989D01*
X146190475Y-110058173D01*
X146190344Y-109607960D01*
X146190340Y-109477196D01*
X146190340Y-107143417D01*
X143663904Y-107118502D01*
X143156643Y-107114319D01*
X142603641Y-107111222D01*
X142020212Y-107109212D01*
X141421671Y-107108288D01*
X140823335Y-107108450D01*
X140240519Y-107109700D01*
X139688539Y-107112036D01*
X139182710Y-107115458D01*
X138865324Y-107118490D01*
X136593181Y-107143392D01*
X136593181Y-109495152D01*
X136593150Y-109964512D01*
X136592945Y-110367024D01*
X136592401Y-110708000D01*
X136591350Y-110992752D01*
X136589625Y-111226592D01*
X136587061Y-111414830D01*
X136583489Y-111562778D01*
X136578745Y-111675749D01*
X136572660Y-111759053D01*
X136565069Y-111818003D01*
X136555805Y-111857909D01*
X136544700Y-111884083D01*
X136531589Y-111901838D01*
X136517234Y-111915643D01*
X136494716Y-111933082D01*
X136464808Y-111947300D01*
X136420464Y-111958623D01*
X136354642Y-111967379D01*
X136260296Y-111973897D01*
X136130383Y-111978503D01*
X135957857Y-111981526D01*
X135735676Y-111983293D01*
X135456795Y-111984132D01*
X135114169Y-111984370D01*
X135039526Y-111984374D01*
X134684498Y-111984257D01*
X134394683Y-111983677D01*
X134163134Y-111982289D01*
X133982906Y-111979749D01*
X133847051Y-111975713D01*
X133748624Y-111969838D01*
X133680678Y-111961777D01*
X133636268Y-111951188D01*
X133608446Y-111937727D01*
X133590266Y-111921048D01*
X133583239Y-111912215D01*
X133572195Y-111890264D01*
X133562707Y-111852390D01*
X133554659Y-111793465D01*
X133547931Y-111708363D01*
X133542407Y-111591958D01*
X133537969Y-111439122D01*
X133534499Y-111244729D01*
X133531880Y-111003653D01*
X133529995Y-110710765D01*
X133528724Y-110360941D01*
X133527952Y-109949052D01*
X133527567Y-109485866D01*
X133526420Y-107131676D01*
X132245596Y-107131676D01*
X130964772Y-107131676D01*
X130964772Y-109476846D01*
X130964772Y-111822016D01*
X130883628Y-111903195D01*
X130861894Y-111923759D01*
X130837124Y-111940573D01*
X130802237Y-111954073D01*
X130750153Y-111964698D01*
X130673789Y-111972885D01*
X130566067Y-111979071D01*
X130419905Y-111983694D01*
X130228222Y-111987191D01*
X129983938Y-111990000D01*
X129679973Y-111992558D01*
X129403940Y-111994608D01*
X128005397Y-112004842D01*
X127915624Y-111915069D01*
X127825851Y-111825296D01*
X127825851Y-109478486D01*
X127825851Y-107131676D01*
X126581107Y-107131676D01*
X125336363Y-107131676D01*
X125336363Y-109488597D01*
X125336363Y-111845518D01*
X125252858Y-111923966D01*
X125228599Y-111945137D01*
X125200572Y-111962110D01*
X125161097Y-111975348D01*
X125102492Y-111985316D01*
X125017078Y-111992477D01*
X124897175Y-111997295D01*
X124735101Y-112000233D01*
X124523178Y-112001757D01*
X124253723Y-112002329D01*
X123953995Y-112002414D01*
X122738636Y-112002414D01*
X122738636Y-111844035D01*
X122738636Y-111685655D01*
X123821022Y-111659062D01*
X124903408Y-111632470D01*
X124908124Y-109499331D01*
X124909364Y-109104466D01*
X124911263Y-108724071D01*
X124913736Y-108365535D01*
X124916701Y-108036249D01*
X124920075Y-107743601D01*
X124923773Y-107494979D01*
X124927715Y-107297775D01*
X124931815Y-107159375D01*
X124935184Y-107095596D01*
X124957528Y-106824999D01*
X126256391Y-106806089D01*
X126681369Y-106800493D01*
X127039746Y-106797202D01*
X127337050Y-106796369D01*
X127578805Y-106798145D01*
X127770538Y-106802680D01*
X127917777Y-106810126D01*
X128026047Y-106820635D01*
X128100874Y-106834356D01*
X128147785Y-106851443D01*
X128158485Y-106858139D01*
X128170060Y-106872788D01*
X128180212Y-106902073D01*
X128189127Y-106951094D01*
X128196991Y-107024951D01*
X128203990Y-107128743D01*
X128210310Y-107267570D01*
X128216138Y-107446530D01*
X128221659Y-107670724D01*
X128227059Y-107945251D01*
X128232526Y-108275210D01*
X128238245Y-108665701D01*
X128244401Y-109121823D01*
X128246226Y-109261743D01*
X128276846Y-111623579D01*
X129395312Y-111623579D01*
X130513778Y-111623579D01*
X130531817Y-109254334D01*
X130535180Y-108847613D01*
X130538879Y-108462475D01*
X130542825Y-108104934D01*
X130546926Y-107781004D01*
X130551090Y-107496702D01*
X130555228Y-107258041D01*
X130559248Y-107071036D01*
X130563059Y-106941703D01*
X130566570Y-106876057D01*
X130567897Y-106868951D01*
X130600002Y-106846288D01*
X130645477Y-106827502D01*
X130711039Y-106812172D01*
X130803405Y-106799874D01*
X130929293Y-106790188D01*
X131095419Y-106782689D01*
X131308500Y-106776957D01*
X131575254Y-106772570D01*
X131902398Y-106769104D01*
X132192322Y-106766849D01*
X132558911Y-106764504D01*
X132860387Y-106763254D01*
X133103793Y-106763331D01*
X133296169Y-106764967D01*
X133444558Y-106768393D01*
X133556001Y-106773842D01*
X133637539Y-106781545D01*
X133696213Y-106791734D01*
X133739066Y-106804642D01*
X133769957Y-106818790D01*
X133887215Y-106880972D01*
X133887215Y-108064781D01*
X133888097Y-108427270D01*
X133890581Y-108837690D01*
X133894425Y-109271837D01*
X133899386Y-109705505D01*
X133905220Y-110114490D01*
X133911090Y-110445104D01*
X133934965Y-111641619D01*
X135047596Y-111641619D01*
X135374650Y-111640994D01*
X135635604Y-111638955D01*
X135836508Y-111635259D01*
X135983411Y-111629658D01*
X136082362Y-111621910D01*
X136139412Y-111611768D01*
X136160609Y-111598987D01*
X136161083Y-111596519D01*
X136161237Y-111552649D01*
X136161359Y-111443571D01*
X136161448Y-111276234D01*
X136161503Y-111057590D01*
X136161523Y-110794589D01*
X136161507Y-110494181D01*
X136161454Y-110163316D01*
X136161364Y-109808946D01*
X136161327Y-109693323D01*
X136161667Y-109314131D01*
X136162876Y-108940912D01*
X136164865Y-108583005D01*
X136167544Y-108249748D01*
X136170826Y-107950477D01*
X136174620Y-107694531D01*
X136178837Y-107491247D01*
X136183388Y-107349963D01*
X136183801Y-107340818D01*
X136206887Y-106846409D01*
X136318855Y-106806606D01*
X136368058Y-106801611D01*
X136484294Y-106796584D01*
X136662436Y-106791553D01*
X136897356Y-106786549D01*
X137183929Y-106781600D01*
X137517028Y-106776737D01*
X137891526Y-106771987D01*
X138302296Y-106767382D01*
X138744213Y-106762949D01*
X139212148Y-106758719D01*
X139700976Y-106754721D01*
X140205570Y-106750984D01*
X140720804Y-106747537D01*
X141241550Y-106744410D01*
X141762682Y-106741632D01*
X142279073Y-106739233D01*
X142785597Y-106737242D01*
X143277127Y-106735688D01*
X143748536Y-106734600D01*
X144194698Y-106734009D01*
X144610486Y-106733943D01*
X144990774Y-106734431D01*
G36*
X144990774Y-106734431D02*
G01*
X145330434Y-106735504D01*
X145624340Y-106737190D01*
X145867366Y-106739518D01*
X146054385Y-106742519D01*
X146180270Y-106746221D01*
X146234504Y-106749829D01*
X146364317Y-106775869D01*
X146475656Y-106814773D01*
X146523141Y-106842321D01*
X146605255Y-106908804D01*
X146617769Y-109235321D01*
X146630283Y-111561837D01*
X146739537Y-111583688D01*
X146813058Y-111590850D01*
X146945974Y-111596511D01*
X147125535Y-111600683D01*
X147338992Y-111603374D01*
X147573597Y-111604594D01*
X147816601Y-111604355D01*
X148055254Y-111602665D01*
X148276809Y-111599534D01*
X148468515Y-111594972D01*
X148617624Y-111588990D01*
X148706888Y-111582160D01*
X148896306Y-111559408D01*
X148896799Y-109282403D01*
X148897205Y-108881748D01*
X148898208Y-108501155D01*
X148899752Y-108146980D01*
X148901780Y-107825580D01*
X148904234Y-107543312D01*
X148907057Y-107306532D01*
X148910193Y-107121596D01*
X148913585Y-106994862D01*
X148917175Y-106932687D01*
X148917896Y-106928616D01*
X148931651Y-106887825D01*
X148953275Y-106853911D01*
X148989100Y-106826180D01*
X149045461Y-106803938D01*
X149128690Y-106786490D01*
X149245121Y-106773142D01*
X149401087Y-106763200D01*
X149602920Y-106755970D01*
X149856956Y-106750757D01*
X150169526Y-106746868D01*
X150546964Y-106743607D01*
X150610084Y-106743126D01*
X150994107Y-106740670D01*
X151312504Y-106739740D01*
X151571793Y-106740492D01*
X151778494Y-106743082D01*
X151939126Y-106747665D01*
X152060210Y-106754399D01*
X152148263Y-106763439D01*
X152209806Y-106774941D01*
X152233664Y-106782005D01*
X152377982Y-106832063D01*
X152400646Y-107459923D01*
X152405443Y-107628051D01*
X152410087Y-107857613D01*
X152414458Y-108137883D01*
X152418433Y-108458137D01*
X152421888Y-108807649D01*
X152424702Y-109175695D01*
X152426752Y-109551548D01*
X152427706Y-109828622D01*
X152432101Y-111569460D01*
X153604687Y-111569460D01*
X154777272Y-111569460D01*
X154777272Y-109225121D01*
X154777272Y-106880782D01*
X154874837Y-106816811D01*
X154904429Y-106800760D01*
X154944278Y-106787495D01*
X155001317Y-106776683D01*
X155082479Y-106767992D01*
X155194696Y-106761089D01*
X155344903Y-106755643D01*
X155540030Y-106751321D01*
X155787011Y-106747791D01*
X156092780Y-106744719D01*
X156435503Y-106741987D01*
X156830593Y-106739137D01*
X157159701Y-106737649D01*
X157429001Y-106738546D01*
X157644668Y-106742849D01*
X157812878Y-106751578D01*
X157939805Y-106765756D01*
X158031626Y-106786404D01*
X158094515Y-106814544D01*
X158134647Y-106851196D01*
X158158197Y-106897383D01*
X158171342Y-106954126D01*
X158180256Y-107022446D01*
X158181248Y-107030757D01*
X158185397Y-107100986D01*
X158189315Y-107236401D01*
X158192933Y-107430028D01*
X158196184Y-107674893D01*
X158198998Y-107964023D01*
X158201307Y-108290444D01*
X158203042Y-108647184D01*
X158204135Y-109027268D01*
X158204515Y-109395667D01*
X158204829Y-111569460D01*
X159233096Y-111569460D01*
X160261363Y-111569460D01*
X160261363Y-111767897D01*
X160261363Y-111966335D01*
X159125270Y-111966335D01*
X158805800Y-111966020D01*
X158550667Y-111964808D01*
X158352048Y-111962297D01*
X158202124Y-111958084D01*
X158093072Y-111951768D01*
X158017072Y-111942947D01*
X157966301Y-111931217D01*
X157932940Y-111916178D01*
X157916605Y-111904197D01*
X157902127Y-111890303D01*
X157889715Y-111871745D01*
X157879209Y-111843229D01*
X157870451Y-111799461D01*
X157863282Y-111735148D01*
X157857543Y-111644996D01*
X157853075Y-111523710D01*
X157849718Y-111365998D01*
X157847315Y-111166566D01*
X157845706Y-110920119D01*
X157844733Y-110621365D01*
X157844235Y-110265010D01*
X157844055Y-109845759D01*
X157844033Y-109486867D01*
X157844033Y-107131676D01*
X156491050Y-107131676D01*
X155138067Y-107131676D01*
X155138067Y-109486867D01*
X155138021Y-109956763D01*
X155137777Y-110359793D01*
X155137175Y-110701251D01*
X155136058Y-110986431D01*
X155134265Y-111220627D01*
X155131639Y-111409133D01*
X155128019Y-111557241D01*
X155123248Y-111670247D01*
X155117166Y-111753443D01*
X155109615Y-111812123D01*
X155100435Y-111851582D01*
X155089468Y-111877112D01*
X155076554Y-111894007D01*
X155065496Y-111904197D01*
X155041965Y-111919967D01*
X155007195Y-111932842D01*
X154954258Y-111943111D01*
X154876222Y-111951064D01*
X154766159Y-111956989D01*
X154617140Y-111961176D01*
X154422233Y-111963914D01*
X154174510Y-111965492D01*
X153867041Y-111966200D01*
X153576873Y-111966335D01*
X153218965Y-111966161D01*
X152926406Y-111965438D01*
X152692390Y-111963861D01*
X152510108Y-111961127D01*
X152372753Y-111956934D01*
X152273515Y-111950976D01*
X152205586Y-111942951D01*
X152162160Y-111932555D01*
X152136427Y-111919485D01*
X152121579Y-111903436D01*
X152120265Y-111901392D01*
X152110772Y-111857616D01*
X152101839Y-111756366D01*
X152093413Y-111595717D01*
X152085440Y-111373748D01*
X152077866Y-111088537D01*
X152070637Y-110738162D01*
X152063701Y-110320700D01*
X152057002Y-109834230D01*
X152052823Y-109486436D01*
X152025939Y-107136424D01*
X151792274Y-107111401D01*
X151694691Y-107105216D01*
X151543502Y-107100987D01*
X151349063Y-107098576D01*
X151121725Y-107097843D01*
X150871843Y-107098649D01*
X150609771Y-107100854D01*
X150345861Y-107104318D01*
X150090467Y-107108903D01*
X149853943Y-107114468D01*
X149646642Y-107120875D01*
X149478919Y-107127983D01*
X149361125Y-107135653D01*
X149303616Y-107143747D01*
X149300871Y-107144963D01*
X149291610Y-107167215D01*
X149283616Y-107224421D01*
X149276813Y-107320648D01*
X149271121Y-107459962D01*
X149266464Y-107646431D01*
X149262766Y-107884119D01*
X149259947Y-108177096D01*
X149257931Y-108529426D01*
X149256641Y-108945177D01*
X149255999Y-109428416D01*
X149255954Y-109506035D01*
X149255465Y-109990593D01*
X149254446Y-110407709D01*
X149252800Y-110762097D01*
X149250431Y-111058474D01*
X149247241Y-111301553D01*
X149243135Y-111496051D01*
X149238016Y-111646682D01*
X149231787Y-111758162D01*
X149224352Y-111835206D01*
X149215614Y-111882530D01*
X149206877Y-111903195D01*
X149190331Y-111919172D01*
X149162774Y-111932216D01*
X149117384Y-111942624D01*
X149047338Y-111950688D01*
X148945813Y-111956703D01*
X148805988Y-111960963D01*
X148621038Y-111963762D01*
X148384142Y-111965395D01*
X148088477Y-111966154D01*
X147742015Y-111966335D01*
X147385224Y-111966258D01*
X147093625Y-111965784D01*
X146860250Y-111964549D01*
X146678132Y-111962188D01*
X146540303Y-111958335D01*
X146439797Y-111952628D01*
X146369646Y-111944701D01*
X146322882Y-111934189D01*
X146292538Y-111920727D01*
X146271647Y-111903952D01*
X146257711Y-111888655D01*
X146244192Y-111870379D01*
X146232609Y-111845511D01*
X146222815Y-111808706D01*
X146214659Y-111754618D01*
X146207992Y-111677900D01*
X146202665Y-111573206D01*
X146198529Y-111435190D01*
X146195433Y-111258507D01*
X146193229Y-111037809D01*
X146191768Y-110767752D01*
X146190899Y-110442989D01*
X146190475Y-110058173D01*
X146190344Y-109607960D01*
X146190340Y-109477196D01*
X146190340Y-107143417D01*
X143663904Y-107118502D01*
X143156643Y-107114319D01*
X142603641Y-107111222D01*
X142020212Y-107109212D01*
X141421671Y-107108288D01*
X140823335Y-107108450D01*
X140240519Y-107109700D01*
X139688539Y-107112036D01*
X139182710Y-107115458D01*
X138865324Y-107118490D01*
X136593181Y-107143392D01*
X136593181Y-109495152D01*
X136593150Y-109964512D01*
X136592945Y-110367024D01*
X136592401Y-110708000D01*
X136591350Y-110992752D01*
X136589625Y-111226592D01*
X136587061Y-111414830D01*
X136583489Y-111562778D01*
X136578745Y-111675749D01*
X136572660Y-111759053D01*
X136565069Y-111818003D01*
X136555805Y-111857909D01*
X136544700Y-111884083D01*
X136531589Y-111901838D01*
X136517234Y-111915643D01*
X136494716Y-111933082D01*
X136464808Y-111947300D01*
X136420464Y-111958623D01*
X136354642Y-111967379D01*
X136260296Y-111973897D01*
X136130383Y-111978503D01*
X135957857Y-111981526D01*
X135735676Y-111983293D01*
X135456795Y-111984132D01*
X135114169Y-111984370D01*
X135039526Y-111984374D01*
X134684498Y-111984257D01*
X134394683Y-111983677D01*
X134163134Y-111982289D01*
X133982906Y-111979749D01*
X133847051Y-111975713D01*
X133748624Y-111969838D01*
X133680678Y-111961777D01*
X133636268Y-111951188D01*
X133608446Y-111937727D01*
X133590266Y-111921048D01*
X133583239Y-111912215D01*
X133572195Y-111890264D01*
X133562707Y-111852390D01*
X133554659Y-111793465D01*
X133547931Y-111708363D01*
X133542407Y-111591958D01*
X133537969Y-111439122D01*
X133534499Y-111244729D01*
X133531880Y-111003653D01*
X133529995Y-110710765D01*
X133528724Y-110360941D01*
X133527952Y-109949052D01*
X133527567Y-109485866D01*
X133526420Y-107131676D01*
X132245596Y-107131676D01*
X130964772Y-107131676D01*
X130964772Y-109476846D01*
X130964772Y-111822016D01*
X130883628Y-111903195D01*
X130861894Y-111923759D01*
X130837124Y-111940573D01*
X130802237Y-111954073D01*
X130750153Y-111964698D01*
X130673789Y-111972885D01*
X130566067Y-111979071D01*
X130419905Y-111983694D01*
X130228222Y-111987191D01*
X129983938Y-111990000D01*
X129679973Y-111992558D01*
X129403940Y-111994608D01*
X128005397Y-112004842D01*
X127915624Y-111915069D01*
X127825851Y-111825296D01*
X127825851Y-109478486D01*
X127825851Y-107131676D01*
X126581107Y-107131676D01*
X125336363Y-107131676D01*
X125336363Y-109488597D01*
X125336363Y-111845518D01*
X125252858Y-111923966D01*
X125228599Y-111945137D01*
X125200572Y-111962110D01*
X125161097Y-111975348D01*
X125102492Y-111985316D01*
X125017078Y-111992477D01*
X124897175Y-111997295D01*
X124735101Y-112000233D01*
X124523178Y-112001757D01*
X124253723Y-112002329D01*
X123953995Y-112002414D01*
X122738636Y-112002414D01*
X122738636Y-111844035D01*
X122738636Y-111685655D01*
X123821022Y-111659062D01*
X124903408Y-111632470D01*
X124908124Y-109499331D01*
X124909364Y-109104466D01*
X124911263Y-108724071D01*
X124913736Y-108365535D01*
X124916701Y-108036249D01*
X124920075Y-107743601D01*
X124923773Y-107494979D01*
X124927715Y-107297775D01*
X124931815Y-107159375D01*
X124935184Y-107095596D01*
X124957528Y-106824999D01*
X126256391Y-106806089D01*
X126681369Y-106800493D01*
X127039746Y-106797202D01*
X127337050Y-106796369D01*
X127578805Y-106798145D01*
X127770538Y-106802680D01*
X127917777Y-106810126D01*
X128026047Y-106820635D01*
X128100874Y-106834356D01*
X128147785Y-106851443D01*
X128158485Y-106858139D01*
X128170060Y-106872788D01*
X128180212Y-106902073D01*
X128189127Y-106951094D01*
X128196991Y-107024951D01*
X128203990Y-107128743D01*
X128210310Y-107267570D01*
X128216138Y-107446530D01*
X128221659Y-107670724D01*
X128227059Y-107945251D01*
X128232526Y-108275210D01*
X128238245Y-108665701D01*
X128244401Y-109121823D01*
X128246226Y-109261743D01*
X128276846Y-111623579D01*
X129395312Y-111623579D01*
X130513778Y-111623579D01*
X130531817Y-109254334D01*
X130535180Y-108847613D01*
X130538879Y-108462475D01*
X130542825Y-108104934D01*
X130546926Y-107781004D01*
X130551090Y-107496702D01*
X130555228Y-107258041D01*
X130559248Y-107071036D01*
X130563059Y-106941703D01*
X130566570Y-106876057D01*
X130567897Y-106868951D01*
X130600002Y-106846288D01*
X130645477Y-106827502D01*
X130711039Y-106812172D01*
X130803405Y-106799874D01*
X130929293Y-106790188D01*
X131095419Y-106782689D01*
X131308500Y-106776957D01*
X131575254Y-106772570D01*
X131902398Y-106769104D01*
X132192322Y-106766849D01*
X132558911Y-106764504D01*
X132860387Y-106763254D01*
X133103793Y-106763331D01*
X133296169Y-106764967D01*
X133444558Y-106768393D01*
X133556001Y-106773842D01*
X133637539Y-106781545D01*
X133696213Y-106791734D01*
X133739066Y-106804642D01*
X133769957Y-106818790D01*
X133887215Y-106880972D01*
X133887215Y-108064781D01*
X133888097Y-108427270D01*
X133890581Y-108837690D01*
X133894425Y-109271837D01*
X133899386Y-109705505D01*
X133905220Y-110114490D01*
X133911090Y-110445104D01*
X133934965Y-111641619D01*
X135047596Y-111641619D01*
X135374650Y-111640994D01*
X135635604Y-111638955D01*
X135836508Y-111635259D01*
X135983411Y-111629658D01*
X136082362Y-111621910D01*
X136139412Y-111611768D01*
X136160609Y-111598987D01*
X136161083Y-111596519D01*
X136161237Y-111552649D01*
X136161359Y-111443571D01*
X136161448Y-111276234D01*
X136161503Y-111057590D01*
X136161523Y-110794589D01*
X136161507Y-110494181D01*
X136161454Y-110163316D01*
X136161364Y-109808946D01*
X136161327Y-109693323D01*
X136161667Y-109314131D01*
X136162876Y-108940912D01*
X136164865Y-108583005D01*
X136167544Y-108249748D01*
X136170826Y-107950477D01*
X136174620Y-107694531D01*
X136178837Y-107491247D01*
X136183388Y-107349963D01*
X136183801Y-107340818D01*
X136206887Y-106846409D01*
X136318855Y-106806606D01*
X136368058Y-106801611D01*
X136484294Y-106796584D01*
X136662436Y-106791553D01*
X136897356Y-106786549D01*
X137183929Y-106781600D01*
X137517028Y-106776737D01*
X137891526Y-106771987D01*
X138302296Y-106767382D01*
X138744213Y-106762949D01*
X139212148Y-106758719D01*
X139700976Y-106754721D01*
X140205570Y-106750984D01*
X140720804Y-106747537D01*
X141241550Y-106744410D01*
X141762682Y-106741632D01*
X142279073Y-106739233D01*
X142785597Y-106737242D01*
X143277127Y-106735688D01*
X143748536Y-106734600D01*
X144194698Y-106734009D01*
X144610486Y-106733943D01*
X144990774Y-106734431D01*
G37*
%LPC*%
D13*
X118507941Y-131500949D03*
D14*
X115967941Y-131500949D03*
X118507941Y-128960949D03*
X115967941Y-128960949D03*
X118507941Y-126420949D03*
X115967941Y-126420949D03*
X118507941Y-123880949D03*
X115967941Y-123880949D03*
X118507941Y-121340949D03*
X115967941Y-121340949D03*
X118507941Y-118800949D03*
X115967941Y-118800949D03*
X118507941Y-116260949D03*
X115967941Y-116260949D03*
X118507941Y-113720949D03*
X115967941Y-113720949D03*
X118507941Y-111180949D03*
X115967941Y-111180949D03*
X118507941Y-108640949D03*
X115967941Y-108640949D03*
X118507941Y-106100949D03*
X115967941Y-106100949D03*
X118507941Y-103560949D03*
X115967941Y-103560949D03*
X118507941Y-101020949D03*
X115967941Y-101020949D03*
X118507941Y-98480949D03*
X115967941Y-98480949D03*
X118507941Y-95940949D03*
X115967941Y-95940949D03*
X118507941Y-93400949D03*
X115967941Y-93400949D03*
D15*
X116500000Y-136500000D03*
X163500000Y-136500000D03*
D16*
X132048688Y-85114797D03*
X129508688Y-85114797D03*
X126968688Y-85114797D03*
D17*
X132048688Y-136349927D03*
D18*
X129508688Y-136349927D03*
X126968688Y-136349927D03*
D15*
X121000000Y-80000000D03*
D19*
X114635033Y-79279627D03*
X114635033Y-83279627D03*
X114635033Y-85279627D03*
X114635033Y-87279627D03*
D20*
X114635033Y-89629627D03*
X114635033Y-76929627D03*
%LPD*%
M02*
